<?xml version="1.0" encoding="utf-8"?>
<!-- Generator: Adobe Illustrator 23.0.1, SVG Export Plug-In . SVG Version: 6.00 Build 0)  -->
<svg version="1.1" id="Layer_1" xmlns="http://www.w3.org/2000/svg" xmlns:xlink="http://www.w3.org/1999/xlink" x="0px" y="0px"
	 viewBox="0 0 1000 1000" style="enable-background:new 0 0 1000 1000;" xml:space="preserve">
<style type="text/css">
	.st0{fill:none;stroke:#284B6B;stroke-width:0.26;stroke-miterlimit:10;}
	.st1{fill:none;stroke:#284B6B;stroke-width:0.13;stroke-miterlimit:10;}
	.st2{fill:none;stroke:#25415E;stroke-width:0.101;stroke-miterlimit:10;}
	.st3{fill:#286EA5;}
	.st4{fill:#3579BC;}
	.st5{fill:#199BD6;}
	.st6{fill:#00A8DA;}
</style>
<g>
	<g>
		<g>
			<path class="st0" d="M499.6,370.8L396.2,253.9"/>
			<path class="st1" d="M173.5,280.9l80.9,118.2"/>
			<g>
				<path class="st0" d="M499.6,371l102.3-118.2 M623.2,501.4l121.4-102.3 M623.2,501.2L744.6,608 M603,742.9L499.6,628.2
					 M396.2,742.9l103.4-114.6 M254.5,603.5l116.9-102.3 M254.6,398.9l116.9,102.3 M499.6,370.8l-245,28.1 M499.6,370.8l245,28.1"/>
				<path class="st0" d="M623.2,501.2l-21.4-248.4 M623.2,501.2L603,742.8"/>
				<path class="st0" d="M744.6,608l-245,20.2 M254.5,603.5l245,24.9"/>
				<path class="st0" d="M396.2,742.9l-24.9-241.6 M396.2,253.9l-24.9,247.3"/>
			</g>
			<g>
				<path class="st1" d="M142.1,430.4l112.4-31.5 M278.1,169.6l118.2,84.3 M423.1,116.8l-27,137.1 M423.1,116.8l178.7,136"/>
				<path class="st1" d="M574.9,116.8l27,136 M719.9,169.6l-118.2,83.2 M825.5,280.9l-223.7-28.1 M744.6,398.9l80.9-118.2
					 M744.6,398.9l114.6,31.5"/>
				<path class="st1" d="M744.6,398.9L857,569.7 M574.9,116.8L396.2,253.9"/>
				<path class="st1" d="M744.6,398.9l-24.9-229.3 M744.6,608L857,569.7"/>
				<path class="st1" d="M744.6,608l114.6-177.6 M744.6,608l80.9,109 M744.6,608l-24.9,220.3 M603,742.9l116.9,85.4"/>
				<path class="st1" d="M603,742.9L825.5,717 M603,742.9l-26.8,138.1 M603,742.9L423.1,880.9 M396.2,742.9l27,138.4"/>
				<path class="st1" d="M396.2,742.9l180,138.1 M396.3,742.9l-118.2,85.4 M396.3,742.9l-222.9-24.8 M254.5,603.5l-81.1,114.6"/>
				<path class="st1" d="M254.5,603.5l23.6,224.8 M254.5,603.5L141,568.6 M254.5,398.9L141,568.6"/>
				<path class="st1" d="M254.5,603.5L142.1,430.4 M278.1,169.6l-23.6,229.3"/>
				<path class="st1" d="M173.5,280.9l222.5-27"/>
			</g>
		</g>
		<g>
			<path class="st2" d="M278.1,169.6l-86.5-40.5 M278.1,169.6l-6.7-94.4 M423.1,116.8L271.4,75.2"/>
			<path class="st2" d="M423.1,116.8L358,37 M423.1,116.8l27-95.7 M278.1,169.6L357.9,37 M574.9,116.8L450.1,21.1"/>
			<path class="st2" d="M574.9,116.8l-28.2-98.9 M423,116.8l123.6-98.9 M574.9,116.8L640.1,37 M719.9,169.6L639.9,37"/>
			<path class="st2" d="M719.9,169.6l7.9-94.4 M574.9,116.8l152.8-41.6 M719.9,169.6l88.6-45 M719.9,169.6l154,23.6"/>
			<path class="st2" d="M825.5,280.9l48.3-87.7 M825.5,280.9l-16.9-156.2 M825.5,280.9l101.2-7.9 M825.5,280.9l138.4,78.7"/>
			<path class="st2" d="M859.2,430.4L926.7,273 M859.2,430.4l104.5-70.8 M859.2,430.4L976.1,454 M857,569.7L976.1,454"/>
			<path class="st2" d="M857,569.7l122.5-22.5 M859.2,430.4l120.3,116.9 M857,569.7l104.5,69.7 M825.5,717l136-77.6"/>
			<path class="st2" d="M825.5,717l100,10.1 M857.1,569.7l68.4,157.3 M825.7,717l47.2,88.6 M825.7,717l-18,155.1"/>
			<path class="st2" d="M807.5,872.1l-87.7-43.8 M719.9,828.3l6.7,98 M719.9,828.3l152.8-22.5 M719.9,828.3l-79.9,134.9"/>
			<path class="st2" d="M576.2,880.9l63.7,82 M576.2,880.9l150.6,45 M576.2,880.9l-29.5,101.2 M576.2,880.9L450.3,982.1"/>
			<path class="st2" d="M423.1,880.9l27,101.2 M423.1,880.9l123.5,101.2 M423.1,880.9l-64.1,82 M278.1,828.3l80.9,134.9"/>
			<path class="st2" d="M423.1,880.9l-152.8,47.2 M278.1,828.3l-7.9,100 M278.1,828.3l-87.7,48.3 M173.5,718.1l16.9,158.5"/>
			<path class="st2" d="M278.1,828.3l-154-21.3 M173.5,718.1L124,806.7 M173.5,718.1L72.3,728.2 M173.5,718.1L34.3,640.6 M141,568.6
				L34.3,640.6 M141,568.6L19.6,547.3"/>
			<path class="st2" d="M141,568.6L72.6,728.2 M142.1,430.4L19.6,547.3"/>
			<path class="st2" d="M141,568.6L19.6,454 M142.2,430.4L37.6,360.7"/>
			<path class="st2" d="M142.1,430.4L19.6,454 M142.1,430.4L72.5,273"/>
			<path class="st2" d="M173.5,280.9L72.3,273 M173.5,280.9L37.6,360.7 M173.5,280.9l-48.2-83.2 M173.5,280.9l18-151.7"/>
			<path class="st2" d="M278.1,169.6l-152.9,28.1"/>
		</g>
	</g>
	<path class="st3" d="M311.3,559.6l0.8-118.2l118.2,0.8l-0.8,118.2L311.3,559.6z M439.2,429.5l0.8-118.2l118.2,0.8l-0.8,118.2
		L439.2,429.5z M439.2,688.6l0.8-118.2l118.2,0.8l-0.8,118.2L439.2,688.6z M568.2,558.5l0.8-118.2l118.2,0.8l-0.8,118.2L568.2,558.5
		z"/>
	<path class="st4" d="M561.4,293.9l0.6-82l82.4,0.6l-0.6,82L561.4,293.9z M355.4,293.9l0.6-82l82.4,0.6l-0.6,82L355.4,293.9z
		 M212.8,440l0.6-82l82.4,0.6l-0.6,82L212.8,440z M212.7,646.2l0.9-82l82.4,0.9l-0.9,82L212.7,646.2z M704,644.6l0.6-82l82.4,0.6
		l-0.6,82L704,644.6z M705.6,440.6l0.9-82l82.4,0.9l-0.9,82L705.6,440.6z"/>
	<path class="st5" d="M146,307.7l0.4-54l53.8,0.4l-0.4,54L146,307.7z M251.3,197.9l0.4-54l53.8,0.4l-0.4,54L251.3,197.9z
		 M396.2,143.6l0.4-54l53.8,0.4l-0.4,54L396.2,143.6z M114.3,457.1l0.4-54l53.5,0.4l-0.4,54L114.3,457.1z M798.3,254.5l54-0.4
		l0.4,53.8l-54,0.4L798.3,254.5z M693,142.8l54-0.4l0.4,53.8l-54,0.4L693,142.8z M547.6,89.9l54-0.4l0.4,53.8l-54,0.4L547.6,89.9z
		 M829.7,403.7l54-0.4l0.4,53.8l-54,0.4L829.7,403.7z"/>
	<path class="st4" d="M354.3,786.1l0.6-82l82.4,0.6l-0.6,82L354.3,786.1z M560.3,786.1l0.6-82l82.4,0.6l-0.6,82L560.3,786.1z"/>
	<path class="st5" d="M797.9,744.6l0.4-54l53.8,0.4l-0.4,54L797.9,744.6z M693.8,855.5l0.4-54l53.8,0.4l-0.4,54L693.8,855.5z
		 M548.9,908.7l0.4-54l53.8,0.4l-0.4,54L548.9,908.7z M829.6,595.2l0.4-54l53.8,0.4l-0.4,54L829.6,595.2z M146.1,690.6l54-0.4
		l0.4,53.8l-54,0.4L146.1,690.6z M251.4,801.1l54-0.4l0.4,53.8l-54,0.4L251.4,801.1z M395.6,854.1l54-0.4l0.4,53.8l-54,0.4
		L395.6,854.1z M114.7,541.4l54-0.4l0.4,53.8l-54,0.4L114.7,541.4z"/>
	<g>
		<g>
			<path id="B" class="st6" d="M911.1,287.5l0.2-29.2l29.8,0.2l-0.2,29.2L911.1,287.5z"/>
		</g>
		<g>
			<path class="st6" d="M949.6,375.8l0.2-29.2l29.8,0.2l-0.2,29.2L949.6,375.8z"/>
		</g>
		<g>
			<path class="st6" d="M859.1,209.4l0.2-29.2l29.8,0.2l-0.2,29.2L859.1,209.4z"/>
		</g>
		<g>
			<path class="st6" d="M176.6,142.6l0.2-29.2l29.8,0.2l-0.2,29.2L176.6,142.6z"/>
		</g>
		<g>
			<path class="st6" d="M5.7,468.5l0.2-29.2l29.8,0.2l-0.2,29.2L5.7,468.5z"/>
		</g>
		<g>
			<path class="st6" d="M793.4,142.6l0.2-29.2l29.8,0.2l-0.2,29.2L793.4,142.6z"/>
		</g>
		<g>
			<path class="st6" d="M22.7,375.7l0.2-29.2l29.8,0.2l-0.2,29.2L22.7,375.7z"/>
		</g>
		<g>
			<path class="st6" d="M344.1,52.1l0.2-29.2l29.8,0.2l-0.2,29.2L344.1,52.1z"/>
		</g>
		<g>
			<path class="st6" d="M58.9,287.5l0.2-29.2l29.8,0.2l-0.2,29.2L58.9,287.5z"/>
		</g>
		<g>
			<path class="st6" d="M112.1,208.3l0.2-29.2l29.8,0.2l-0.2,29.2L112.1,208.3z"/>
		</g>
		<path class="st6" d="M256.3,60.5l29.2-0.2l0.2,29.8l-29.2,0.2L256.3,60.5z M436.9,3l29.2-0.2l0.2,29.8l-29.2,0.2L436.9,3z"/>
		<g>
			<path class="st6" d="M714.2,90.5l0.2-29.2l29.8,0.2L744,90.7L714.2,90.5z"/>
		</g>
		<g>
			<path class="st6" d="M964.3,467.4l0.2-29.2l29.8,0.2l-0.2,29.2L964.3,467.4z"/>
		</g>
		<path class="st6" d="M532,31.7l0.2-29.2L562,2.7l-0.2,29.2L532,31.7z"/>
		<g>
			<path class="st6" d="M624.8,50.9l0.2-29.2l29.8,0.2l-0.2,29.2L624.8,50.9z"/>
		</g>
		<g>
			<path class="st6" d="M793.4,887.3l0.2-29.2l29.8,0.2l-0.2,29.2L793.4,887.3z"/>
		</g>
		<g>
			<path class="st6" d="M964.3,561.4l0.2-29.2l29.8,0.2l-0.2,29.2L964.3,561.4z"/>
		</g>
		<g>
			<path class="st6" d="M176.6,887.3l0.2-29.2l29.8,0.2l-0.2,29.2L176.6,887.3z"/>
		</g>
		<g>
			<path class="st6" d="M949.6,655.5l0.2-29.2l29.8,0.2l-0.2,29.2L949.6,655.5z"/>
		</g>
		<g>
			<path class="st6" d="M624.8,979l0.2-29.2l29.8,0.2l-0.2,29.2L624.8,979z"/>
		</g>
		<g>
			<path class="st6" d="M911.1,743.6l0.2-29.2l29.8,0.2l-0.2,29.2L911.1,743.6z"/>
		</g>
		<g>
			<path class="st6" d="M859.1,822.8l0.2-29.2l29.8,0.2l-0.2,29.2L859.1,822.8z"/>
		</g>
		<path class="st6" d="M713,912.6l29.2-0.2l0.2,29.8l-29.2,0.2L713,912.6z M533.5,967.7l29.2-0.2l0.2,29.8l-29.2,0.2L533.5,967.7z"
			/>
		<g>
			<path class="st6" d="M256.9,942.8l0.2-29.2l29.8,0.2l-0.2,29.2L256.9,942.8z"/>
		</g>
		<g>
			<path class="st6" d="M57.7,742.5l0.2-29.2l29.8,0.2l-0.2,29.2L57.7,742.5z"/>
		</g>
		<g>
			<path class="st6" d="M22.6,655.3l0.2-29.2l29.8,0.2l-0.2,29.2L22.6,655.3z"/>
		</g>
		<g>
			<path class="st6" d="M110.9,822.8l0.2-29.2l29.8,0.2l-0.2,29.2L110.9,822.8z"/>
		</g>
		<g>
			<path class="st6" d="M5.7,561.4l0.2-29.2l29.8,0.2l-0.2,29.2L5.7,561.4z"/>
		</g>
		<g>
			<path class="st6" d="M438,997.1l0.2-29.2l29.8,0.2l-0.2,29.2L438,997.1z"/>
		</g>
		<g>
			<path class="st6" d="M342.9,977.9l0.2-29.2l29.8,0.2l-0.2,29.2L342.9,977.9z"/>
		</g>
	</g>
</g>
</svg>
