<svg width="144" height="144" viewBox="0 0 144 144" fill="none" xmlns="http://www.w3.org/2000/svg">
<rect width="144" height="144" rx="24" fill="url(#paint0_linear_683_2985)"/>
<path d="M72.1645 59.4243L62.5 48.498" stroke="white" stroke-width="0.26" stroke-miterlimit="10"/>
<path d="M41.6855 51.0215L49.247 62.0693" stroke="white" stroke-width="0.13" stroke-miterlimit="10"/>
<path d="M72.1646 59.4414L81.7263 48.3936M83.7171 71.6294L95.064 62.0678M83.7171 71.6108L95.064 81.593M81.8291 94.2017L72.1646 83.4811M62.5001 94.2017L72.1646 83.4904M49.2559 81.1724L60.1821 71.6108M60.1915 71.6108L49.2652 62.0491L72.1646 59.4227L95.064 62.0491" stroke="white" stroke-width="0.26" stroke-miterlimit="10"/>
<path d="M81.7168 48.3936L83.717 71.6108L81.829 94.1924" stroke="white" stroke-width="0.26" stroke-miterlimit="10"/>
<path d="M95.064 81.5925L72.1646 83.4805M49.2559 81.1719L72.1553 83.4992" stroke="white" stroke-width="0.26" stroke-miterlimit="10"/>
<path d="M62.5012 94.2014L60.1738 71.6198M62.5012 48.4961L60.1738 71.6105" stroke="white" stroke-width="0.26" stroke-miterlimit="10"/>
<path d="M38.75 64.9948L49.2557 62.0506M51.4615 40.6187L62.5093 48.4979M62.4906 48.4979L65.0142 35.6836L81.7168 48.3951" stroke="white" stroke-width="0.13" stroke-miterlimit="10"/>
<path d="M79.2031 35.6836L81.7267 48.3951M92.7558 40.6187L81.708 48.3951M102.626 51.0215L81.7174 48.3951M102.626 51.0028L95.0645 62.0506L105.776 64.9948" stroke="white" stroke-width="0.13" stroke-miterlimit="10"/>
<path d="M95.0639 62.0506L105.57 78.0148M79.2025 35.6836L62.5 48.4979" stroke="white" stroke-width="0.13" stroke-miterlimit="10"/>
<path d="M95.0637 62.0511L92.7363 40.6191M95.0637 81.5951L105.569 78.0153" stroke="white" stroke-width="0.13" stroke-miterlimit="10"/>
<path d="M95.065 81.5949L105.776 64.9951M95.065 81.5949L102.626 91.7828M95.065 81.5949L92.7377 102.186M81.8301 94.2035L92.7564 102.186" stroke="white" stroke-width="0.13" stroke-miterlimit="10"/>
<path d="M81.829 94.203L102.625 91.7822M81.829 94.203L79.3241 107.111M81.829 94.203L65.0143 107.101M62.5 94.203L65.0236 107.139" stroke="white" stroke-width="0.13" stroke-miterlimit="10"/>
<path d="M62.5012 94.2031L79.3253 107.111M51.4628 102.185L62.5105 94.2031L41.6768 91.8851L49.2569 81.1738" stroke="white" stroke-width="0.13" stroke-miterlimit="10"/>
<path d="M51.4618 102.185L49.256 81.1731L38.6475 77.9111L49.256 62.0498" stroke="white" stroke-width="0.13" stroke-miterlimit="10"/>
<path d="M49.2557 81.1745L38.75 64.9953M51.4615 40.6191L49.2557 62.0511" stroke="white" stroke-width="0.13" stroke-miterlimit="10"/>
<path d="M41.6855 51.0217L62.4819 48.498" stroke="white" stroke-width="0.13" stroke-miterlimit="10"/>
<path d="M43.376 36.8338L51.4609 40.6192L50.8346 31.7959L65.0136 35.6841" stroke="white" stroke-width="0.101" stroke-miterlimit="10"/>
<path d="M58.9289 28.2244L65.0136 35.6831L67.5373 26.7383L79.2019 35.6831M51.4609 40.6181L58.9196 28.2244" stroke="white" stroke-width="0.101" stroke-miterlimit="10"/>
<path d="M76.5667 26.4404L79.2025 35.6843L85.2966 28.2256M65.0049 35.6843L76.5574 26.4404M92.7552 40.6194L85.2779 28.2256" stroke="white" stroke-width="0.101" stroke-miterlimit="10"/>
<path d="M92.7549 40.6192L93.4932 31.7959M92.7549 40.6192L101.036 36.4132M92.7549 40.6192L107.149 42.825M79.2021 35.6841L93.4839 31.7959" stroke="white" stroke-width="0.101" stroke-miterlimit="10"/>
<path d="M102.625 51.0214L107.139 42.8244M102.625 51.0214L101.045 36.4219M102.625 51.0214L112.083 50.283M102.625 51.0214L115.56 58.3773" stroke="white" stroke-width="0.101" stroke-miterlimit="10"/>
<path d="M105.774 64.9949L112.083 50.2832M105.774 64.9949L115.541 58.3774M105.774 64.9949L116.7 67.2007L105.568 78.0149" stroke="white" stroke-width="0.101" stroke-miterlimit="10"/>
<path d="M117.019 75.9121L105.569 78.0151L115.337 84.5297L102.625 91.7827M105.775 64.9951L117.019 75.9214" stroke="white" stroke-width="0.101" stroke-miterlimit="10"/>
<path d="M102.625 91.7833L111.971 92.7273M105.578 78.0156L111.971 92.718M107.055 100.064L102.643 91.7833L100.961 106.28" stroke="white" stroke-width="0.101" stroke-miterlimit="10"/>
<path d="M100.943 106.279L92.7458 102.185M92.7551 102.185L93.3813 111.345M92.7551 102.185L107.037 100.082M92.7551 102.185L85.2871 114.794" stroke="white" stroke-width="0.101" stroke-miterlimit="10"/>
<path d="M79.3232 107.103L85.277 114.767M79.3232 107.103L93.3993 111.309M79.3232 107.103L76.5659 116.561M79.3232 107.103L67.5557 116.561" stroke="white" stroke-width="0.101" stroke-miterlimit="10"/>
<path d="M65.0136 107.102L67.5373 116.561M65.0136 107.102L76.5568 116.561M65.0136 107.102L59.0224 114.766M51.4609 102.186L59.0224 114.794" stroke="white" stroke-width="0.101" stroke-miterlimit="10"/>
<path d="M65.0139 107.101L50.7322 111.513M50.7228 111.532L51.4612 102.185L43.2642 106.699L41.6846 91.8848" stroke="white" stroke-width="0.101" stroke-miterlimit="10"/>
<path d="M51.461 102.186L37.0671 100.195M41.6844 91.886L37.0578 100.167M41.6844 91.886L32.2255 92.8301M41.6844 91.886L28.6738 84.6423L38.6467 77.9127L27.2998 75.9219" stroke="white" stroke-width="0.101" stroke-miterlimit="10"/>
<path d="M38.6467 77.9123L32.2536 92.8296M38.7495 64.9951L27.2998 75.9214" stroke="white" stroke-width="0.101" stroke-miterlimit="10"/>
<path d="M38.6467 77.9122L27.2998 67.2009M38.7589 64.9951L28.9822 58.4805" stroke="white" stroke-width="0.101" stroke-miterlimit="10"/>
<path d="M27.2998 67.2007L38.7495 64.9949L32.2442 50.2832" stroke="white" stroke-width="0.101" stroke-miterlimit="10"/>
<path d="M41.6836 51.0217L32.2247 50.2833M41.6836 51.0217L28.9814 58.4804M41.6836 51.0217L37.1785 43.2453M41.6836 51.0217L43.366 36.8428" stroke="white" stroke-width="0.101" stroke-miterlimit="10"/>
<path d="M51.461 40.6191L37.1699 43.2456" stroke="white" stroke-width="0.101" stroke-miterlimit="10"/>
<path d="M54.5645 77.0702L54.6392 66.0224L65.687 66.0971L65.6123 77.1449L54.5645 77.0702ZM66.5189 64.9101L66.5937 53.8623L77.6415 53.9371L77.5667 64.9849L66.5189 64.9101ZM66.5189 89.1274L66.5937 78.0796L77.6415 78.1544L77.5667 89.2022L66.5189 89.1274ZM78.5761 76.9673L78.6509 65.9195L89.6987 65.9943L89.6239 77.0421L78.5761 76.9673Z" fill="white"/>
<path d="M77.9406 52.2366L77.9966 44.5723L85.6983 44.6283L85.6422 52.2926L77.9406 52.2366ZM58.6864 52.2366L58.7424 44.5723L66.4441 44.6283L66.388 52.2926L58.6864 52.2366ZM45.358 65.8921L45.4141 58.2278L53.1157 58.2839L53.0597 65.9482L45.358 65.8921ZM45.3486 85.165L45.4328 77.5007L53.1344 77.5848L53.0503 85.2491L45.3486 85.165ZM91.269 85.0154L91.325 77.3511L99.0267 77.4072L98.9706 85.0715L91.269 85.0154ZM91.4185 65.9482L91.5026 58.2839L99.2043 58.368L99.1202 66.0323L91.4185 65.9482Z" fill="white"/>
<path d="M39.1143 53.5263L39.1517 48.4791L44.1802 48.5165L44.1428 53.5637L39.1143 53.5263ZM48.9563 43.2637L48.9937 38.2164L54.0223 38.2538L53.9849 43.301L48.9563 43.2637ZM62.4997 38.1884L62.5371 33.1412L67.5656 33.1786L67.5282 38.2258L62.4997 38.1884ZM36.1514 67.4903L36.1888 62.4431L41.1892 62.4805L41.1519 67.5277L36.1514 67.4903ZM100.083 48.5539L105.13 48.5165L105.167 53.545L100.12 53.5824L100.083 48.5539ZM90.2407 38.1136L95.2879 38.0762L95.3253 43.1048L90.2781 43.1421L90.2407 38.1136ZM76.6506 33.1692L81.6978 33.1318L81.7352 38.1604L76.688 38.1977L76.6506 33.1692ZM103.018 62.4992L108.065 62.4618L108.102 67.4903L103.055 67.5277L103.018 62.4992Z" fill="white"/>
<path d="M58.583 98.2405L58.6391 90.5762L66.3408 90.6323L66.2847 98.2965L58.583 98.2405ZM77.8372 98.2405L77.8933 90.5762L85.595 90.6323L85.5389 98.2965L77.8372 98.2405Z" fill="white"/>
<path d="M100.045 94.3619L100.082 89.3147L105.111 89.3521L105.074 94.3993L100.045 94.3619ZM90.3152 104.727L90.3526 99.6802L95.3811 99.7176L95.3437 104.765L90.3152 104.727ZM76.7718 109.7L76.8092 104.653L81.8377 104.69L81.8004 109.737L76.7718 109.7ZM103.008 80.3979L103.045 75.3507L108.074 75.3881L108.037 80.4353L103.008 80.3979ZM39.1233 89.3147L44.1706 89.2773L44.2079 94.3058L39.1607 94.3432L39.1233 89.3147ZM48.9654 99.6428L54.0126 99.6054L54.05 104.634L49.0028 104.671L48.9654 99.6428ZM62.4433 104.597L67.4906 104.559L67.5279 109.588L62.4807 109.625L62.4433 104.597ZM36.1885 75.3694L41.2357 75.332L41.2731 80.3606L36.2259 80.3979L36.1885 75.3694Z" fill="white"/>
<path d="M110.625 51.6384L110.644 48.9092L113.429 48.9279L113.41 51.6571L110.625 51.6384Z" fill="white"/>
<path d="M114.224 59.8913L114.242 57.1621L117.028 57.1808L117.009 59.91L114.224 59.8913Z" fill="white"/>
<path d="M105.767 44.3376L105.785 41.6084L108.571 41.6271L108.552 44.3563L105.767 44.3376Z" fill="white"/>
<path d="M41.9736 38.0945L41.9923 35.3652L44.7776 35.3839L44.7589 38.1132L41.9736 38.0945Z" fill="white"/>
<path d="M26 68.5554L26.0187 65.8262L28.804 65.8449L28.7853 68.5741L26 68.5554Z" fill="white"/>
<path d="M99.624 38.0945L99.6427 35.3652L102.428 35.3839L102.409 38.1132L99.624 38.0945Z" fill="white"/>
<path d="M27.5898 59.8816L27.6085 57.1523L30.3939 57.171L30.3752 59.9003L27.5898 59.8816Z" fill="white"/>
<path d="M57.6299 29.6355L57.6486 26.9062L60.4339 26.9249L60.4152 29.6542L57.6299 29.6355Z" fill="white"/>
<path d="M30.9727 51.6384L30.9913 48.9092L33.7767 48.9279L33.758 51.6571L30.9727 51.6384Z" fill="white"/>
<path d="M35.9453 44.2361L35.964 41.5068L38.7493 41.5255L38.7306 44.2548L35.9453 44.2361Z" fill="white"/>
<path d="M49.4229 30.4204L52.1521 30.4017L52.1708 33.187L49.4415 33.2057L49.4229 30.4204ZM66.303 25.046L69.0322 25.0273L69.0509 27.8127L66.3217 27.8314L66.303 25.046Z" fill="white"/>
<path d="M92.2227 33.2244L92.2414 30.4951L95.0267 30.5138L95.008 33.243L92.2227 33.2244Z" fill="white"/>
<path d="M115.598 68.4529L115.616 65.7236L118.402 65.7423L118.383 68.4716L115.598 68.4529Z" fill="white"/>
<path d="M75.1914 27.7292L75.2101 25L77.9954 25.0187L77.9767 27.7479L75.1914 27.7292Z" fill="white"/>
<path d="M83.8662 29.5232L83.8849 26.7939L86.6702 26.8126L86.6515 29.5419L83.8662 29.5232Z" fill="white"/>
<path d="M99.624 107.7L99.6427 104.971L102.428 104.989L102.409 107.719L99.624 107.7Z" fill="white"/>
<path d="M115.598 77.239L115.616 74.5098L118.402 74.5285L118.383 77.2577L115.598 77.239Z" fill="white"/>
<path d="M41.9736 107.7L41.9923 104.971L44.7776 104.989L44.7589 107.719L41.9736 107.7Z" fill="white"/>
<path d="M114.224 86.0329L114.242 83.3037L117.028 83.3224L117.009 86.0516L114.224 86.0329Z" fill="white"/>
<path d="M83.8662 116.27L83.8849 113.541L86.6702 113.56L86.6515 116.289L83.8662 116.27Z" fill="white"/>
<path d="M110.625 94.2683L110.644 91.5391L113.429 91.5578L113.41 94.287L110.625 94.2683Z" fill="white"/>
<path d="M105.767 101.672L105.785 98.9424L108.571 98.9611L108.552 101.69L105.767 101.672Z" fill="white"/>
<path d="M92.1094 110.065L94.8386 110.046L94.8573 112.831L92.128 112.85L92.1094 110.065ZM75.332 115.215L78.0613 115.196L78.08 117.981L75.3507 118L75.332 115.215Z" fill="white"/>
<path d="M49.4785 112.886L49.4972 110.157L52.2825 110.176L52.2638 112.905L49.4785 112.886Z" fill="white"/>
<path d="M30.8594 94.1658L30.8781 91.4365L33.6634 91.4552L33.6447 94.1845L30.8594 94.1658Z" fill="white"/>
<path d="M27.5801 86.0144L27.5988 83.2852L30.3841 83.3039L30.3654 86.0331L27.5801 86.0144Z" fill="white"/>
<path d="M35.832 101.672L35.8507 98.9424L38.636 98.9611L38.6173 101.69L35.832 101.672Z" fill="white"/>
<path d="M26 77.239L26.0187 74.5098L28.804 74.5285L28.7853 77.2577L26 77.239Z" fill="white"/>
<path d="M66.4053 117.962L66.424 115.232L69.2093 115.251L69.1906 117.98L66.4053 117.962Z" fill="white"/>
<path d="M57.5176 116.168L57.5363 113.438L60.3216 113.457L60.3029 116.186L57.5176 116.168Z" fill="white"/>
<defs>
<linearGradient id="paint0_linear_683_2985" x1="10" y1="15.5" x2="144" y2="131.5" gradientUnits="userSpaceOnUse">
<stop stop-color="#00A8DA"/>
<stop offset="0.495" stop-color="#3579BC"/>
<stop offset="1" stop-color="#286EA5"/>
</linearGradient>
</defs>
</svg>
