<svg xmlns="http://www.w3.org/2000/svg" role="img" viewBox="-3.89 -3.89 488.28 164.28"><style>svg {enable-background:new 0 0 480.9 156.4}</style><style>.st5{fill:#fff}</style><path d="M224.3 63c7.2 0 12.6 2.4 17.1 6.6.4.4.4.9.1 1.3l-1.1 1.2c-.4.4-.8.4-1.2-.1-4-3.6-9.1-5.8-14.9-5.8-12.3 0-22 10.1-22 22.3 0 12.1 9.7 22.1 22 22.1 6.1 0 10.6-2.4 14.9-5.9.4-.4.8-.4 1.1-.1l1.2 1.2c.4.3.4.8 0 1.2-4.8 4.7-10.9 6.8-17.2 6.8-14.1 0-25.5-11.1-25.5-25.3-.1-14.2 11.4-25.5 25.5-25.5zm37.8 21.1c7.9 0 14.2 6.7 14.2 14.7 0 8.3-6.3 14.9-14.2 14.9-8 0-14.2-6.6-14.2-14.9 0-8 6.2-14.7 14.2-14.7zm0 26.7c6.2 0 11.1-5.3 11.1-12 0-6.5-4.9-11.8-11.1-11.8-6.3 0-11.1 5.3-11.1 11.8-.1 6.8 4.8 12 11.1 12zm22.8-25.1c0-.5.4-.9.9-.9h.8c.4 0 .8.3.8.8l.3 2.9c.7-1 3.5-4.4 8.8-4.4 2.3 0 3.8.6 4.4.8.6.2 1 .7.8 1.3l-.6 1.4c-.2.5-.6.6-1.1.4-.4-.1-1.8-.8-3.7-.8-5.5 0-8.2 4.4-8.4 4.9v20.1c0 .6-.3.9-.9.9h-1.4c-.5 0-.8-.4-.8-.9V85.7zm34.4-1.6c7.4 0 12.8 5.4 12.8 12.9 0 1.1 0 2.8-1.1 2.8h-22.5c.3 6.1 4.7 11.1 11 11.1 3.7 0 6.6-1.5 8.3-2.6.6-.4.9-.5 1.3 0l.7 1c.2.3.1.7-.3 1.1-1.4 1.4-5.9 3.3-10.2 3.3-8.6 0-13.9-6.6-13.9-14.9 0-8 5.3-14.7 13.9-14.7zm9.7 13.1c0-5.5-3.3-10.3-9.7-10.3-6.2 0-10.4 4.5-10.7 10.3H329z"/><path fill="#acaeb1" d="M341.4 64.6c0-.5.4-.9.8-.9h15c13.7 0 24.8 11.1 24.8 24.6 0 13.8-11.1 24.8-24.8 24.8h-15c-.4 0-.8-.4-.8-.9V64.6zm15.2 45.4c12.3 0 21.9-9.4 21.9-21.7 0-12.2-9.5-21.6-21.9-21.6h-11.9V110h11.9zm36.9-46.1c0-.6.5-.9 1.1-.9h1.2l33.8 44.1h.1V64.6c0-.5.4-.9.9-.9h1.4c.5 0 .9.4.9.9v48.2c0 .6-.6.9-1.1.9h-.9c-.1 0-.6-.2-34.1-44.5h-.1v42.9c0 .5-.4.9-.9.9h-1.3c-.5 0-.9-.4-.9-.9V63.9zm51.4 42.6l.6-.8c.5-.6 1-.8 1.6-.3.7.6 5.9 5.4 13 5.4 6.4 0 11.8-4.3 11.8-9.4 0-6.3-5.1-9.1-13.7-12-8.2-2.9-13.6-5.8-13.6-13.9 0-5.3 4.2-12.5 15.2-12.5 7 0 12.1 3.6 12.1 3.6.3.2.8.7.3 1.5l-.6.9c-.4.6-.8.8-1.6.4-.2-.1-4.9-3.3-10.4-3.3-8.7 0-11.9 5.4-11.9 9.4 0 6 4.6 8.6 11.7 10.9 9.7 3.3 15.8 6.7 15.8 14.9 0 7.1-7.3 12.6-15.4 12.6-8.4 0-14-4.9-14.9-5.8-.2-.5-.6-.9 0-1.6z"/><linearGradient id="SVGID_1_" x1="1400.393" x2="1517.578" y1="-3700.588" y2="-3700.588" gradientTransform="rotate(-45.001 5308.725 -142.157)" gradientUnits="userSpaceOnUse"><stop offset="0" stop-color="#6d6e71"/><stop offset=".738" stop-color="#535456"/><stop offset="1" stop-color="#48484a"/></linearGradient><path fill="url(#SVGID_1_)" d="M51.8 81.9c-1.2 1.2-2.1 2.4-2.8 3.8.7-1.3 1.6-2.6 2.8-3.8z"/><linearGradient id="SVGID_2_" x1="1400.393" x2="1517.578" y1="-3684.672" y2="-3684.672" gradientTransform="rotate(-45.001 5308.725 -142.157)" gradientUnits="userSpaceOnUse"><stop offset="0" stop-color="#6d6e71"/><stop offset=".738" stop-color="#535456"/><stop offset="1" stop-color="#48484a"/></linearGradient><path fill="url(#SVGID_2_)" d="M99.3 48.2c2.2 0 4.3.8 6 2.5l4.9 4.9-4.9-4.9c-1.6-1.6-3.8-2.5-6-2.5z"/><linearGradient id="SVGID_3_" x1="1400.393" x2="1517.578" y1="-3706.921" y2="-3706.921" gradientTransform="rotate(-45.001 5308.725 -142.157)" gradientUnits="userSpaceOnUse"><stop offset="0" stop-color="#6d6e71"/><stop offset=".738" stop-color="#535456"/><stop offset="1" stop-color="#48484a"/></linearGradient><path fill="url(#SVGID_3_)" d="M51.7 54.1c5.4-5.4 14.2-5.4 19.6 0l4.1 4.1 12.7-12.7c6.2-6.2 16.2-6.2 22.3 0l4.9 4.9 12.2-12.2L101 11.5c-7.7-7.7-20.2-7.7-27.9 0l-55 55C11.6 73 10.6 83 15.2 90.6l.2-.2 36.3-36.3z"/><linearGradient id="SVGID_4_" x1="1400.392" x2="1517.578" y1="-3651.24" y2="-3651.24" gradientTransform="rotate(-45.001 5308.725 -142.157)" gradientUnits="userSpaceOnUse"><stop offset="0" stop-color="#6d6e71"/><stop offset=".738" stop-color="#535456"/><stop offset="1" stop-color="#48484a"/></linearGradient><path fill="url(#SVGID_4_)" d="M123.5 102c-5.4 5.4-14.2 5.4-19.6 0L99 97.1l-16 16c-6.2 6.2-16.2 6.2-22.3 0l-4.1-4.1-11.9 11.9 24.5 24.5c7.7 7.7 20.2 7.7 27.9 0l55-55c5.7-5.7 7.2-14.2 4.4-21.3l-1.8 1.8-31.2 31.1z"/><path d="M77.8 107.9c-.8.8-1.8 1.4-2.8 1.8-1 .4-2.1.6-3.2.6-2.2 0-4.3-.8-6-2.5l-4.1-4.1L57 99c-1.6-1.6-2.5-3.8-2.5-6 0-1.1.2-2.2.6-3.2s1-2 1.8-2.8l23.7-23.7 12.7-12.7c1.2-1.2 2.8-2 4.4-2.3.5-.1 1.1-.2 1.6-.2 2.2 0 4.3.8 6 2.5l4.9 4.9 5.2-5.2-4.9-4.9c-6.2-6.2-16.2-6.2-22.3 0L75.5 58.2 51.8 81.9c-1.2 1.2-2.1 2.4-2.8 3.8-.2.5-.5.9-.6 1.4-1.7 4.3-1.5 9.2.6 13.3.7 1.4 1.7 2.7 2.8 3.8l4.8 4.8 4.1 4.1c6.2 6.2 16.2 6.2 22.3 0l16-16-5.2-5.2-16 16z" class="st5"/><path d="M154.6 70.9l1.8-1.8c-.6-1.6-1.5-3.2-2.6-4.6.3 2.1.6 4.3.8 6.4zM15.4 90.5l-.2.2.3.6c0-.3-.1-.6-.1-.8z"/><linearGradient id="SVGID_5_" x1="1400.393" x2="1517.578" y1="-3678.858" y2="-3678.858" gradientTransform="rotate(-45.001 5308.725 -142.157)" gradientUnits="userSpaceOnUse"><stop offset="0" stop-color="#6d6e71"/><stop offset=".738" stop-color="#535456"/><stop offset="1" stop-color="#48484a"/></linearGradient><path fill="url(#SVGID_5_)" d="M93.7 72.1l16.5-16.5-4.9-4.9c-1.6-1.6-3.8-2.5-6-2.5-.5 0-1.1.1-1.6.2-1.6.3-3.1 1.1-4.4 2.3L80.7 63.4l.9.9c5.4 5.4 5.4 14.2 0 19.6l-19.8 19.8 4.1 4.1c1.6 1.6 3.8 2.5 6 2.5 1.1 0 2.2-.2 3.2-.6 1-.4 2-1 2.8-1.8l16-16-.1-.1c-5.6-5.5-5.6-14.2-.1-19.7z"/><linearGradient id="SVGID_6_" x1="1389.283" x2="1530.018" y1="-3678.858" y2="-3678.858" gradientTransform="rotate(-45.001 5308.725 -142.157)" gradientUnits="userSpaceOnUse"><stop offset="0" stop-color="#6d6e71"/><stop offset=".738" stop-color="#535456"/><stop offset="1" stop-color="#48484a"/></linearGradient><path fill="url(#SVGID_6_)" d="M93.7 72.1l16.5-16.5-4.9-4.9c-1.6-1.6-3.8-2.5-6-2.5-.5 0-1.1.1-1.6.2-1.6.3-3.1 1.1-4.4 2.3L80.7 63.4l.9.9c5.4 5.4 5.4 14.2 0 19.6l-19.8 19.8 4.1 4.1c1.6 1.6 3.8 2.5 6 2.5 1.1 0 2.2-.2 3.2-.6 1-.4 2-1 2.8-1.8l16-16-.1-.1c-5.6-5.5-5.6-14.2-.1-19.7z"/><path d="M77.8 107.9c-.8.8-1.8 1.4-2.8 1.8 1-.3 2-.9 2.8-1.8z" class="st5"/><linearGradient id="SVGID_7_" x1="1389.283" x2="1530.018" y1="-3664.467" y2="-3664.467" gradientTransform="rotate(-45.001 5308.725 -142.157)" gradientUnits="userSpaceOnUse"><stop offset="0" stop-color="#6d6e71"/><stop offset=".738" stop-color="#535456"/><stop offset="1" stop-color="#48484a"/></linearGradient><path fill="url(#SVGID_7_)" d="M77.8 107.9c-.8.8-1.8 1.4-2.8 1.8 1-.3 2-.9 2.8-1.8z"/><path d="M61.7 103.8l4.1 4.1c1.6 1.6 3.8 2.5 6 2.5-2.2 0-4.3-.8-6-2.5l-4.1-4.1z" class="st5"/><linearGradient id="SVGID_8_" x1="1389.283" x2="1530.018" y1="-3672.508" y2="-3672.508" gradientTransform="rotate(-45.001 5308.725 -142.157)" gradientUnits="userSpaceOnUse"><stop offset="0" stop-color="#6d6e71"/><stop offset=".738" stop-color="#535456"/><stop offset="1" stop-color="#48484a"/></linearGradient><path fill="url(#SVGID_8_)" d="M61.7 103.8l4.1 4.1c1.6 1.6 3.8 2.5 6 2.5-2.2 0-4.3-.8-6-2.5l-4.1-4.1z"/><path d="M93.4 50.7c1.2-1.2 2.8-2 4.4-2.3-1.7.3-3.2 1.1-4.4 2.3z" class="st5"/><linearGradient id="SVGID_9_" x1="1389.283" x2="1530.018" y1="-3692.86" y2="-3692.86" gradientTransform="rotate(-45.001 5308.725 -142.157)" gradientUnits="userSpaceOnUse"><stop offset="0" stop-color="#6d6e71"/><stop offset=".738" stop-color="#535456"/><stop offset="1" stop-color="#48484a"/></linearGradient><path fill="url(#SVGID_9_)" d="M93.4 50.7c1.2-1.2 2.8-2 4.4-2.3-1.7.3-3.2 1.1-4.4 2.3z"/><path fill="#48484a" d="M18.1 94.4c-1-1-1.9-2.1-2.6-3.2l-.3-.6-5.2 5.3c-5.4 5.4-5.4 14.2 0 19.6l10.2 10.2c4.4 4.4 10.9 5.2 16.2 2.5 1.3-.6 2.4-1.5 3.5-2.5l3.3-3.3 1.2-1.2.4-.4-26.7-26.4z"/><path d="M51.8 104.3c-1.2-1.2-2.1-2.4-2.8-3.8-2.2-4.1-2.4-9-.6-13.3.2-.5.4-.9.6-1.4.7-1.4 1.7-2.7 2.8-3.8l23.7-23.7-4.1-4.1c-5.4-5.4-14.2-5.4-19.6 0L15.4 90.5c0 .2.1.5.2.7.7 1.1 1.6 2.2 2.6 3.2l26.5 26.5L56.5 109l-4.7-4.7z"/><path d="M48.3 87.1c-1.7 4.3-1.5 9.2.6 13.3-2.1-4.1-2.3-9-.6-13.3zm13.4 16.7L81.6 84c5.4-5.4 5.4-14.2 0-19.6l-.9-.9L57 87.1c-.8.8-1.4 1.8-1.8 2.8s-.6 2.1-.6 3.2c0 2.2.8 4.3 2.5 6l4.6 4.7z"/><path d="M57 99c-1.6-1.6-2.5-3.8-2.5-6 0 2.2.8 4.4 2.5 6l4.8 4.8L57 99zm0-11.9c-.8.8-1.4 1.8-1.8 2.8.3-1 .9-2 1.8-2.8zm53.2-31.5L93.7 72.1c-5.4 5.4-5.4 14.2 0 19.6l.1.1 20.4-20.4c1.2-1.2 2-2.8 2.3-4.4.1-.5.2-1.1.2-1.6 0-2.2-.8-4.3-2.5-6l-4-3.8z"/><path d="M114.2 71.5c1.2-1.2 2-2.8 2.3-4.4-.3 1.7-1.1 3.2-2.3 4.4zm0-11.9c1.6 1.6 2.5 3.8 2.5 6 0-2.2-.8-4.4-2.5-6l-4-4 4 4zm5.2 17.1z"/><path fill="#939598" d="M122.9 71.5c.2-.5.4-1 .5-1.4 1.6-5.4.3-11.4-4-15.7l-4-4-5.2 5.2 4 4c1.6 1.6 2.5 3.8 2.5 6 0 .5-.1 1.1-.2 1.6-.3 1.6-1.1 3.1-2.3 4.4L93.8 91.9l5.2 5.2 20.4-20.4c1.5-1.5 2.7-3.3 3.5-5.2z"/><path fill="#6d6e71" d="M165.3 40.6l-10.2-10.2c-5.1-5.1-13.2-5.4-18.6-.9-.3.3-.7.6-1 .9l-6.6 6.6-1.2 1.2L152 62.5c.6.6 1.2 1.3 1.7 2 1.1 1.4 2 3 2.6 4.6l8.9-8.9c5.5-5.4 5.5-14.2.1-19.6z"/><path d="M119.4 54.4c4.2 4.2 5.6 10.3 4 15.7-.1.5-.3 1-.5 1.4-.8 1.9-1.9 3.7-3.5 5.2L99 97.1l4.8 4.8c5.4 5.4 14.2 5.4 19.6 0l31-31c-.2-2.1-.5-4.3-.9-6.4-.5-.7-1.1-1.4-1.7-2l-24.4-24.4-12.2 12.2 4.2 4.1zm0 0l-4-4 4 4z"/></svg>