<svg width="144" height="144" viewBox="0 0 144 144" fill="none" xmlns="http://www.w3.org/2000/svg">
<rect width="144" height="144" rx="24" fill="url(#paint0_linear_681_2845)"/>
<path d="M71.9968 19C70.3039 19.0002 68.9312 20.5322 68.9314 22.4221C68.9314 22.4511 68.9373 22.4788 68.9379 22.5076C68.9354 22.7644 68.9231 23.0737 68.9314 23.2973C68.9717 24.3873 69.2082 25.2216 69.3506 26.2258C69.6084 28.3752 69.8245 30.1569 69.6912 31.813C69.5615 32.4375 69.1037 33.0086 68.6956 33.4056L68.6235 34.7086C66.7839 34.8617 64.9319 35.1421 63.0821 35.5641C55.1226 37.3798 48.2695 41.4991 43.052 47.0609C42.7134 46.8288 42.1211 46.4019 41.945 46.2712C41.3977 46.3454 40.8445 46.5151 40.1241 46.0935C38.7522 45.1657 37.5028 43.8851 35.991 42.3424C35.2982 41.6044 34.7966 40.9018 33.9735 40.1904C33.7866 40.0289 33.5014 39.8104 33.2923 39.6442C32.6489 39.1288 31.89 38.86 31.157 38.8348C30.2147 38.8024 29.3075 39.1725 28.7138 39.9206C27.6584 41.2506 27.9963 43.2833 29.4671 44.4614C29.482 44.4734 29.4979 44.4827 29.5129 44.4943C29.715 44.6589 29.9625 44.8698 30.1483 45.0076C31.0217 45.6555 31.8195 45.9872 32.6897 46.5015C34.5231 47.6391 36.043 48.5823 37.2486 49.7196C37.7194 50.2237 37.8016 51.1122 37.8643 51.4964L38.8468 52.3782C33.5872 60.3308 31.153 70.1539 32.5915 80.1627L31.3077 80.5378C30.9693 80.9768 30.4912 81.6676 29.9911 81.8738C28.4138 82.3729 26.6387 82.5562 24.4956 82.7819C23.4894 82.866 22.6213 82.8158 21.5546 83.0188C21.3198 83.0635 20.9927 83.1491 20.7358 83.2097C20.7269 83.2116 20.7186 83.2142 20.7096 83.2162C20.6956 83.2195 20.6772 83.2263 20.6638 83.2294C18.857 83.668 17.6963 85.3365 18.0699 86.9805C18.4437 88.6248 20.2086 89.6248 22.0262 89.2312C22.0393 89.2282 22.0584 89.2277 22.072 89.2246C22.0926 89.2199 22.1106 89.2099 22.131 89.2049C22.3844 89.149 22.7019 89.0868 22.9236 89.0272C23.9723 88.7451 24.7318 88.3306 25.6746 87.9677C27.7029 87.2368 29.3828 86.6262 31.0195 86.3883C31.703 86.3345 32.4232 86.812 32.7814 87.0134L34.1177 86.7831C37.1926 96.3613 43.6366 104.103 51.7963 108.961L51.2396 110.303C51.4403 110.824 51.6616 111.53 51.5121 112.045C50.9171 113.595 49.898 115.231 48.7374 117.055C48.1755 117.898 47.6004 118.552 47.0934 119.516C46.972 119.747 46.8175 120.102 46.7004 120.346C45.9125 122.039 46.4904 123.99 48.0038 124.722C49.5268 125.459 51.4171 124.682 52.2352 122.985C52.2364 122.982 52.2406 122.98 52.2417 122.978C52.2426 122.976 52.2409 122.973 52.2417 122.971C52.3582 122.731 52.5233 122.415 52.6216 122.188C53.056 121.189 53.2005 120.332 53.5059 119.365C54.317 117.318 54.7626 115.17 55.8791 113.832C56.1849 113.466 56.6833 113.325 57.2001 113.186L57.8944 111.922C65.008 114.665 72.9705 115.402 80.9245 113.587C82.7391 113.173 84.4908 112.637 86.1843 111.994C86.3794 112.342 86.742 113.011 86.8393 113.179C87.3644 113.351 87.9377 113.439 88.4047 114.133C89.2401 115.567 89.8114 117.263 90.5073 119.312C90.8128 120.279 90.9638 121.136 91.3981 122.136C91.4971 122.363 91.6614 122.684 91.778 122.925C92.5944 124.628 94.4907 125.407 96.0159 124.669C97.5292 123.937 98.1077 121.986 97.3194 120.293C97.2023 120.049 97.0412 119.695 96.9198 119.464C96.4127 118.499 95.8377 117.852 95.2758 117.009C94.1152 115.185 93.1526 113.67 92.5575 112.12C92.3087 111.32 92.5995 110.823 92.7933 110.303C92.6772 110.17 92.4288 109.414 92.2824 109.059C100.762 104.029 107.017 95.9985 109.955 86.7239C110.351 86.7865 111.041 86.9091 111.265 86.9542C111.726 86.6487 112.149 86.2501 112.981 86.3159C114.617 86.5537 116.297 87.1645 118.326 87.8953C119.268 88.2581 120.028 88.6793 121.077 88.9614C121.298 89.021 121.616 89.0766 121.869 89.1325C121.889 89.1375 121.908 89.1475 121.928 89.1522C121.942 89.1553 121.961 89.1558 121.974 89.1588C123.792 89.552 125.557 88.5526 125.93 86.9081C126.303 85.2641 125.143 83.5952 123.336 83.157C123.074 83.097 122.701 82.995 122.446 82.9465C121.379 82.7435 120.511 82.7935 119.505 82.7095C117.361 82.4839 115.586 82.3004 114.009 81.8014C113.366 81.5507 112.908 80.7819 112.686 80.4655L111.448 80.1035C112.09 75.438 111.917 70.5825 110.806 65.7243C109.685 60.8208 107.704 56.3361 105.062 52.3848C105.379 52.0948 105.979 51.5612 106.149 51.4043C106.199 50.8517 106.156 50.2722 106.725 49.6603C107.931 48.523 109.451 47.5799 111.284 46.4423C112.154 45.9279 112.959 45.5964 113.832 44.9484C114.03 44.8019 114.299 44.5699 114.507 44.4022C115.977 43.2237 116.316 41.1911 115.26 39.8614C114.204 38.5317 112.159 38.4065 110.688 39.585C110.479 39.7516 110.195 39.9688 110.007 40.1312C109.184 40.8426 108.676 41.5452 107.983 42.2832C106.471 43.8259 105.222 45.113 103.85 46.0409C103.255 46.3885 102.385 46.2682 101.99 46.2449L100.824 47.0806C94.1753 40.0763 85.1235 35.5982 75.3766 34.7283C75.3494 34.3179 75.3137 33.5761 75.3046 33.3529C74.9056 32.9693 74.4235 32.6418 74.3024 31.813C74.1691 30.1569 74.3917 28.3752 74.6496 26.2258C74.7919 25.2216 75.0284 24.3873 75.0688 23.2973C75.078 23.0495 75.0632 22.69 75.0622 22.4221C75.062 20.5322 73.6898 18.9998 71.9968 19ZM68.1585 42.8886L67.248 59.0447L67.1825 59.0776C67.1214 60.5229 65.9375 61.677 64.4839 61.677C63.8884 61.677 63.3388 61.4849 62.8922 61.1571L62.866 61.1703L49.6807 51.7794C53.7331 47.7759 58.9164 44.8172 64.89 43.4546C65.9812 43.2056 67.0719 43.0209 68.1585 42.8886ZM75.8417 42.8886C82.8159 43.7504 89.2657 46.9232 94.2081 51.786L81.108 61.1176L81.0621 61.0979C79.8994 61.9512 78.2611 61.7394 77.3548 60.5978C76.9835 60.1301 76.7887 59.5801 76.7653 59.0249L76.7522 59.0184L75.8417 42.8886ZM44.8991 57.814L56.9382 68.633L56.9251 68.6988C58.0117 69.6479 58.172 71.2949 57.2657 72.4368C56.8944 72.9045 56.3975 73.2182 55.8639 73.3647L55.8508 73.4173L40.4188 77.8923C39.6334 70.6765 41.3261 63.6621 44.8991 57.814ZM99.0094 57.8206C100.798 60.7336 102.153 63.9871 102.959 67.5143C103.756 70.9991 103.956 74.4778 103.627 77.8397L88.1166 73.3515L88.1035 73.2857C86.7145 72.9043 85.8609 71.4848 86.1843 70.0611C86.3168 69.4778 86.6249 68.9844 87.0423 68.6198L87.0358 68.5869L99.0094 57.8206ZM69.5274 69.4688H74.4596L77.5251 73.3186L76.4247 78.1226L71.9968 80.2614L67.5558 78.1161L66.4554 73.312L69.5274 69.4688ZM85.3393 82.6437C85.5489 82.6331 85.7576 82.652 85.9616 82.6898L85.9878 82.6569L101.95 85.3682C99.6142 91.9624 95.144 97.675 89.1711 101.498L82.9747 86.4606L82.9944 86.4343C82.4252 85.1055 82.9948 83.5472 84.3044 82.9135C84.6397 82.7513 84.99 82.6614 85.3393 82.6437ZM58.5298 82.7095C59.748 82.7267 60.8406 83.5761 61.1237 84.822C61.2562 85.4052 61.1917 85.9831 60.973 86.4935L61.0189 86.5527L54.888 101.439C49.1559 97.7432 44.5904 92.2099 42.1481 85.4208L57.9731 82.7227L57.9993 82.7556C58.1763 82.7229 58.3558 82.7071 58.5298 82.7095ZM71.8986 89.2312C72.3229 89.2155 72.7534 89.303 73.1627 89.501C73.6992 89.7606 74.1136 90.1692 74.3745 90.6592H74.4334L82.2346 104.821C81.2221 105.162 80.1813 105.454 79.1167 105.697C73.1505 107.058 67.2032 106.645 61.818 104.802L69.5995 90.6658H69.6126C70.0795 89.7888 70.965 89.2656 71.8986 89.2312Z" fill="white" stroke="white" stroke-width="0.25"/>
<defs>
<linearGradient id="paint0_linear_681_2845" x1="10" y1="15.5" x2="144" y2="131.5" gradientUnits="userSpaceOnUse">
<stop stop-color="#4D87FF"/>
<stop offset="1" stop-color="#0547D0"/>
</linearGradient>
</defs>
</svg>
