<svg width="144" height="144" viewBox="0 0 144 144" fill="none" xmlns="http://www.w3.org/2000/svg">
<rect width="144" height="144" rx="24" fill="url(#paint0_linear_687_3454)"/>
<g clip-path="url(#clip0_687_3454)">
<path d="M89.5039 111.707H54.497C54.1727 111.707 54.0108 111.221 54.3349 111.059L57.2522 108.952C60.3314 106.683 61.9522 102.631 60.9797 98.7412H83.021C82.0485 102.631 83.6693 106.683 86.7485 108.952L89.6658 111.059C89.99 111.221 89.8279 111.707 89.5039 111.707Z" fill="#B0B6BB"/>
<path d="M113.328 98.741H30.6725C27.5931 98.741 25 96.148 25 93.0687V33.1032C25 30.0239 27.5931 27.4307 30.6725 27.4307H113.328C116.407 27.4307 119 30.0237 119 33.1032V93.0687C119 96.148 116.407 98.741 113.328 98.741Z" fill="#E8EDEE"/>
<path d="M119 84.1549H25V33.1032C25 30.0239 27.5931 27.4307 30.6725 27.4307H113.328C116.407 27.4307 119 30.0237 119 33.1032L119 84.1549Z" fill="#00B3FF"/>
<path d="M90.6374 116.569H53.3616C52.0651 116.569 50.9307 115.435 50.9307 114.138C50.9307 112.841 52.0651 111.707 53.3616 111.707H90.6374C91.9339 111.707 93.0684 112.841 93.0684 114.138C93.0684 115.435 91.9339 116.569 90.6374 116.569Z" fill="#E8EDEE"/>
</g>
<path d="M72.5275 53.8367C72.4431 53.8351 72.3605 53.8122 72.2873 53.7701L56.4699 44.7934C56.3983 44.7519 56.3388 44.6923 56.2973 44.6207C56.2559 44.549 56.2338 44.4678 56.2334 44.385C56.2334 44.2169 56.3258 44.0617 56.4699 43.9785L72.1912 35.0609C72.2637 35.021 72.345 35 72.4277 35C72.5105 35 72.5918 35.021 72.6643 35.0609L88.4872 44.0395C88.5591 44.0801 88.6188 44.1392 88.66 44.2107C88.7013 44.2822 88.7227 44.3635 88.7219 44.446C88.7225 44.5285 88.701 44.6097 88.6598 44.6812C88.6185 44.7526 88.5589 44.8118 88.4872 44.8525L72.7714 53.7683C72.6972 53.8114 72.6133 53.8349 72.5275 53.8367" fill="white"/>
<path opacity="0.7" d="M70.2553 75.6517C70.171 75.6535 70.0878 75.6317 70.0151 75.5888L54.2458 66.6417C54.1715 66.6024 54.1095 66.5436 54.0661 66.4716C54.0228 66.3997 54 66.3173 54 66.2333V48.278C54 48.108 54.0924 47.9546 54.2439 47.8696C54.3172 47.8271 54.4004 47.8047 54.4851 47.8047C54.5697 47.8047 54.6529 47.8271 54.7262 47.8696L70.4937 56.8131C70.5642 56.8565 70.6225 56.917 70.6632 56.9891C70.7039 57.0612 70.7257 57.1424 70.7265 57.2251V75.1805C70.7259 75.2628 70.7042 75.3436 70.6635 75.4151C70.6227 75.4866 70.5642 75.5464 70.4937 75.5888C70.4206 75.6291 70.3387 75.6507 70.2553 75.6517" fill="white"/>
<path opacity="0.4" d="M74.7198 75.6511C74.6333 75.6512 74.5482 75.6296 74.4722 75.5883C74.4016 75.5461 74.3432 75.4862 74.3027 75.4147C74.2623 75.3431 74.2411 75.2622 74.2412 75.18V57.3373C74.2412 57.171 74.3336 57.0158 74.4722 56.929L90.2397 47.9855C90.3119 47.9438 90.3938 47.9219 90.4771 47.9219C90.5605 47.9219 90.6424 47.9438 90.7146 47.9855C90.7876 48.0255 90.8485 48.0842 90.8911 48.1557C90.9337 48.2272 90.9563 48.3088 90.9566 48.392V66.2328C90.957 66.3164 90.9347 66.3985 90.8921 66.4704C90.8495 66.5424 90.7881 66.6014 90.7146 66.6411L74.9526 75.5883C74.8825 75.6307 74.8018 75.6525 74.7198 75.6511" fill="white"/>
<defs>
<linearGradient id="paint0_linear_687_3454" x1="161" y1="180" x2="3.59284e-07" y2="4.99998" gradientUnits="userSpaceOnUse">
<stop/>
<stop offset="1" stop-color="#595656"/>
</linearGradient>
<clipPath id="clip0_687_3454">
<rect width="94" height="94" fill="white" transform="translate(25 25)"/>
</clipPath>
</defs>
</svg>
