<?xml version="1.0" encoding="utf-8"?><!-- Uploaded to: SVG Repo, www.svgrepo.com, Generator: SVG Repo Mixer Tools -->
<svg width="800px" height="800px" viewBox="0 0 16 16" xmlns="http://www.w3.org/2000/svg" fill="none"><path fill="url(#azure-vms-color-16__paint0_linear_2372_267)" d="M14.533 2H1.467A.467.467 0 001 2.467v8.4c0 .257.209.466.467.466h13.066a.467.467 0 00.467-.466v-8.4A.467.467 0 0014.533 2z"/><path fill="#50E6FF" d="M10.333 5.306V8.02L8 9.389V6.667l2.333-1.361z"/><path fill="#C3F1FF" d="M10.333 5.306L8 6.674 5.667 5.306 8 3.944l2.333 1.362z"/><path fill="#9CEBFF" d="M8 6.674V9.39L5.667 8.02V5.306L8 6.674z"/><path fill="#C3F1FF" d="M5.667 8.02L8 6.667v2.722L5.667 8.02z"/><path fill="#9CEBFF" d="M10.333 8.02L8 6.667v2.722l2.333-1.369z"/><path fill="url(#azure-vms-color-16__paint1_linear_2372_267)" d="M10.808 14.157c-1.385-.218-1.44-1.214-1.44-2.824H6.624c0 1.61-.046 2.606-1.43 2.824a.778.778 0 00-.693.777h7a.777.777 0 00-.692-.777z"/><defs><linearGradient id="azure-vms-color-16__paint0_linear_2372_267" x1="8" x2="8" y1="11.333" y2="2" gradientUnits="userSpaceOnUse"><stop stop-color="#0078D4"/><stop offset=".82" stop-color="#5EA0EF"/></linearGradient><linearGradient id="azure-vms-color-16__paint1_linear_2372_267" x1="8" x2="8" y1="14.934" y2="11.333" gradientUnits="userSpaceOnUse"><stop offset=".15" stop-color="#CCC"/><stop offset="1" stop-color="#707070"/></linearGradient></defs></svg>