<svg width="144" height="144" viewBox="0 0 144 144" fill="none" xmlns="http://www.w3.org/2000/svg">
<rect x="-0.00195312" width="144" height="144" rx="24" fill="url(#paint0_linear_683_2972)"/>
<path d="M111.411 62.8H82.4939C81.7969 62.7997 81.1285 62.5228 80.6356 62.0301C80.1427 61.5373 79.8656 60.8691 79.8653 60.1722V30.0412C79.8653 27.81 78.0556 26 75.8249 26H65.5021C63.27 26 61.4614 27.81 61.4614 30.0412V59.9898C61.4614 61.5435 60.205 62.8065 58.6508 62.8133L49.1743 62.8584C47.6069 62.8669 46.3336 61.5955 46.3366 60.0298L46.3954 30.048C46.4005 27.8134 44.5902 26 42.355 26H32.0407C29.8083 26 28 27.81 28 30.0412V114.412C28 116.394 29.6061 118 31.5871 118H111.411C113.394 118 115 116.394 115 114.412V66.388C115 64.4058 113.394 62.8 111.411 62.8ZM97.8508 94.4779C97.8508 97.0755 95.7445 99.1817 93.1464 99.1817H84.9884C82.39 99.1817 80.2836 97.0755 80.2836 94.4779V86.3217C80.2836 83.7238 82.39 81.6179 84.9884 81.6179H93.1464C95.7445 81.6179 97.8508 83.7238 97.8508 86.3217V94.4779Z" fill="white"/>
<defs>
<linearGradient id="paint0_linear_683_2972" x1="5" y1="-7.5" x2="141" y2="124.5" gradientUnits="userSpaceOnUse">
<stop stop-color="#FF822F"/>
<stop offset="1" stop-color="#FF6600"/>
</linearGradient>
</defs>
</svg>
