<svg width="144" height="144" viewBox="0 0 144 144" fill="none" xmlns="http://www.w3.org/2000/svg">
<rect width="144" height="144" rx="24" fill="url(#paint0_linear_683_2849)"/>
<path d="M94.481 93.3049C95.0718 88.3477 94.8948 87.6208 98.5612 88.4238L99.492 88.5061C102.311 88.6353 105.999 88.0495 108.166 87.0358C112.83 84.8564 115.595 81.2176 110.996 82.1738C100.506 84.3532 99.7849 80.7759 99.7849 80.7759C110.862 64.224 115.493 43.2128 111.496 38.0697C100.594 24.0412 81.7231 30.675 81.4073 30.8472L81.3068 30.8659C79.234 30.4328 76.9143 30.174 74.3085 30.1316C69.5613 30.053 65.9591 31.3849 63.2266 33.4721C63.2266 33.4721 29.5621 19.5047 31.1282 51.0375C31.4613 57.7454 40.6758 101.795 51.6659 88.4901C55.6827 83.6249 59.5646 79.5113 59.5646 79.5113C61.4922 80.8009 63.8 81.4588 66.2204 81.2225L66.4075 81.0618C66.3489 81.6659 66.3747 82.2567 66.4824 82.9562C63.6517 86.1419 64.4835 86.7012 58.8231 87.8745C53.0965 89.0631 56.4609 91.1793 58.6569 91.7324C61.3199 92.403 67.4804 93.353 71.644 87.4845L71.4782 88.1541C72.5888 89.0489 72.5137 94.5854 72.6712 98.5411C72.8289 102.497 73.0919 106.189 73.8926 108.365C74.6933 110.541 75.6381 116.147 83.0771 114.541C89.2943 113.2 94.0478 111.269 94.481 93.3049Z" fill="black" stroke="black" stroke-width="6"/>
<path d="M110.998 82.1727C100.506 84.3521 99.7849 80.7748 99.7849 80.7748C110.862 64.2218 115.493 43.2102 111.497 38.0678C100.595 24.0401 81.7231 30.6743 81.4082 30.8465L81.3068 30.8648C79.2341 30.4315 76.9144 30.1733 74.3073 30.1305C69.56 30.0521 65.9591 31.3838 63.2267 33.4706C63.2267 33.4706 29.5615 19.5038 31.1272 51.0364C31.4603 57.7447 40.6746 101.795 51.6651 88.4895C55.6821 83.6243 59.5634 79.5106 59.5634 79.5106C61.4912 80.8002 63.799 81.4581 66.2184 81.2218L66.4063 81.0611C66.3479 81.6652 66.3746 82.256 66.4816 82.9555C63.6503 86.1412 64.4822 86.7005 58.8223 87.8738C53.0953 89.0625 56.4597 91.1786 58.6563 91.7317C61.3193 92.4023 67.4802 93.3524 71.643 87.4838L71.477 88.1534C72.5864 89.0482 73.3654 93.9739 73.2348 98.439C73.1042 102.904 73.0171 105.97 73.8912 108.364C74.7653 110.759 75.6365 116.146 83.0769 114.541C89.2941 113.199 92.5159 109.722 92.9641 103.922C93.2822 99.7988 94.0019 100.408 94.0474 96.7219L94.6247 94.9766C95.2905 89.3872 94.7305 87.584 98.5608 88.4227L99.4917 88.505C102.311 88.6342 106.001 88.0484 108.166 87.0347C112.829 84.8553 115.595 81.2166 110.997 82.1727H110.998Z" fill="#336791"/>
<path d="M72.0933 85.377C71.8045 95.7774 72.1659 106.25 73.1764 108.796C74.1876 111.341 76.3514 116.292 83.7925 114.686C90.0091 113.344 92.271 110.747 93.2526 105.014C93.9755 100.796 95.3691 89.081 95.5479 86.6809" stroke="white" stroke-width="2" stroke-linecap="round" stroke-linejoin="round"/>
<path d="M63.175 33.2393C63.175 33.2393 29.4868 19.3732 31.053 50.9058C31.386 57.6141 40.601 101.665 51.5913 88.3597C55.6075 83.4938 59.2397 79.6776 59.2397 79.6776" stroke="white" stroke-width="2" stroke-linecap="round" stroke-linejoin="round"/>
<path d="M81.3713 30.7078C80.2052 31.076 100.111 23.3796 111.423 37.9368C115.419 43.0795 110.789 64.0911 99.7115 80.6445" stroke="white" stroke-width="2" stroke-linecap="round" stroke-linejoin="round"/>
<path d="M99.711 80.6448C99.711 80.6448 100.433 84.223 110.924 82.0422C115.521 81.0861 112.755 84.7252 108.093 86.9057C104.267 88.694 95.6883 89.1523 95.5482 86.6812C95.1876 80.3053 100.063 82.2423 99.711 80.6448ZM99.711 80.6448C99.3929 79.206 97.2128 77.7939 95.7705 74.2725C94.5114 71.199 78.5019 47.6289 100.21 51.1294C101.006 50.9637 94.5485 30.3348 74.2325 29.9994C53.9211 29.6639 54.5875 55.1545 54.5875 55.1545" stroke="white" stroke-width="2" stroke-linecap="round" stroke-linejoin="bevel"/>
<path d="M66.4077 82.8253C63.576 86.0108 64.4088 86.5702 58.7485 87.7439C53.0214 88.9327 56.3862 91.0485 58.5822 91.6013C61.2452 92.2724 67.4061 93.2224 71.5689 87.3524C72.8366 85.5651 71.5614 82.7134 69.8201 81.9864C68.9787 81.6354 67.8537 81.1956 66.4077 82.8253Z" stroke="white" stroke-width="2" stroke-linecap="round" stroke-linejoin="round"/>
<path d="M66.2225 82.7691C65.9372 80.8961 66.8336 78.6674 67.7943 76.0599C69.238 72.1477 72.569 68.2348 69.9044 55.8246C67.9182 46.5767 54.5963 53.9 54.588 55.154C54.5798 56.4075 55.1905 61.5099 54.3654 67.4515C53.2888 75.2048 59.2643 81.7621 66.1451 81.0913" stroke="white" stroke-width="2" stroke-linecap="round" stroke-linejoin="round"/>
<path d="M63.0528 54.9665C62.9928 55.3948 63.8314 56.5377 64.9249 56.6904C66.0166 56.8437 66.951 55.9506 67.0102 55.5227C67.0694 55.0945 66.2318 54.6227 65.1379 54.4694C64.0456 54.3158 63.1108 54.5393 63.0531 54.9665H63.0528Z" fill="white" stroke="white" stroke-width="2"/>
<path d="M96.3034 54.0924C96.3627 54.5207 95.5251 55.6635 94.4313 55.8162C93.3389 55.9696 92.4045 55.0765 92.3446 54.6486C92.2868 54.2203 93.1247 53.7486 94.2173 53.5953C95.31 53.4419 96.2442 53.6652 96.3034 54.0926V54.0924Z" fill="white" stroke="white"/>
<path d="M100.21 51.1289C100.39 54.4883 99.492 56.7765 99.3787 60.3527C99.211 65.5508 101.84 71.5005 97.8789 77.4575" stroke="white" stroke-width="2" stroke-linecap="round" stroke-linejoin="round"/>
<defs>
<linearGradient id="paint0_linear_683_2849" x1="140" y1="130.5" x2="4" y2="9.49999" gradientUnits="userSpaceOnUse">
<stop stop-color="#002C4C"/>
<stop offset="1" stop-color="#00477B"/>
</linearGradient>
</defs>
</svg>
