<?xml version="1.0" encoding="iso-8859-1"?>
<!-- Uploaded to: SVG Repo, www.svgrepo.com, Generator: SVG Repo Mixer Tools -->
<svg height="800px" width="800px" version="1.1" id="Layer_1" xmlns="http://www.w3.org/2000/svg" xmlns:xlink="http://www.w3.org/1999/xlink" 
	 viewBox="0 0 512 512" xml:space="preserve">
<path style="fill:#B0B6BB;" d="M351.338,472.276H160.662c-1.766,0-2.648-2.648-0.883-3.531l15.89-11.476
	c16.772-12.359,25.6-34.428,20.303-55.614h120.055l0,0c-5.297,21.186,3.531,43.255,20.303,55.614l15.89,11.476
	C353.986,469.628,353.103,472.276,351.338,472.276"/>
<path style="fill:#E8EDEE;" d="M481.103,401.655H30.897C14.124,401.655,0,387.531,0,370.759V44.138
	c0-16.772,14.124-30.897,30.897-30.897h450.207c16.772,0,30.897,14.124,30.897,30.897v326.621
	C512,387.531,497.876,401.655,481.103,401.655"/>
<path style="fill:#38454F;" d="M512,322.207H0V44.138c0-16.772,14.124-30.897,30.897-30.897h450.207
	c16.772,0,30.897,14.124,30.897,30.897V322.207z"/>
<path style="fill:#E8EDEE;" d="M357.517,498.759H154.483c-7.062,0-13.241-6.179-13.241-13.241s6.179-13.241,13.241-13.241h203.034
	c7.062,0,13.241,6.179,13.241,13.241S364.579,498.759,357.517,498.759"/>
<path style="fill:#DD342E;" d="M158.897,75.034H44.138c-5.297,0-8.828-3.531-8.828-8.828c0-5.297,3.531-8.828,8.828-8.828h114.759
	c5.297,0,8.828,3.531,8.828,8.828C167.724,71.503,164.193,75.034,158.897,75.034"/>
<path style="fill:#7383BF;" d="M211.862,110.345H88.276c-5.297,0-8.828-3.531-8.828-8.828s3.531-8.828,8.828-8.828h123.586
	c5.297,0,8.828,3.531,8.828,8.828S217.159,110.345,211.862,110.345"/>
<path style="fill:#42B05C;" d="M52.966,110.345h-8.828c-5.297,0-8.828-3.531-8.828-8.828s3.531-8.828,8.828-8.828h8.828
	c5.297,0,8.828,3.531,8.828,8.828S58.262,110.345,52.966,110.345"/>
<path style="fill:#ECBA16;" d="M211.862,75.034h-17.655c-5.297,0-8.828-3.531-8.828-8.828c0-5.297,3.531-8.828,8.828-8.828h17.655
	c5.297,0,8.828,3.531,8.828,8.828C220.69,71.503,217.159,75.034,211.862,75.034"/>
<path style="fill:#DD342E;" d="M123.586,145.655H44.138c-5.297,0-8.828-3.531-8.828-8.828S38.841,128,44.138,128h79.448
	c5.297,0,8.828,3.531,8.828,8.828S128.883,145.655,123.586,145.655"/>
<path style="fill:#ECBA16;" d="M211.862,145.655h-52.966c-5.297,0-8.828-3.531-8.828-8.828S153.6,128,158.897,128h52.966
	c5.297,0,8.828,3.531,8.828,8.828S217.159,145.655,211.862,145.655"/>
<path style="fill:#42B05C;" d="M158.897,180.966H44.138c-5.297,0-8.828-3.531-8.828-8.828s3.531-8.828,8.828-8.828h114.759
	c5.297,0,8.828,3.531,8.828,8.828S164.193,180.966,158.897,180.966"/>
<path style="fill:#ECBA16;" d="M211.862,216.276H88.276c-5.297,0-8.828-3.531-8.828-8.828s3.531-8.828,8.828-8.828h123.586
	c5.297,0,8.828,3.531,8.828,8.828S217.159,216.276,211.862,216.276"/>
<path style="fill:#DD342E;" d="M52.966,216.276h-8.828c-5.297,0-8.828-3.531-8.828-8.828s3.531-8.828,8.828-8.828h8.828
	c5.297,0,8.828,3.531,8.828,8.828S58.262,216.276,52.966,216.276"/>
<path style="fill:#42B05C;" d="M123.586,251.586H44.138c-5.297,0-8.828-3.531-8.828-8.828s3.531-8.828,8.828-8.828h79.448
	c5.297,0,8.828,3.531,8.828,8.828S128.883,251.586,123.586,251.586"/>
<path style="fill:#7383BF;" d="M211.862,251.586h-52.966c-5.297,0-8.828-3.531-8.828-8.828s3.531-8.828,8.828-8.828h52.966
	c5.297,0,8.828,3.531,8.828,8.828S217.159,251.586,211.862,251.586"/>
<path style="fill:#ECBA16;" d="M158.897,286.897H44.138c-5.297,0-8.828-3.531-8.828-8.828c0-5.297,3.531-8.828,8.828-8.828h114.759
	c5.297,0,8.828,3.531,8.828,8.828C167.724,283.366,164.193,286.897,158.897,286.897"/>
<path style="fill:#42B05C;" d="M211.862,286.897h-17.655c-5.297,0-8.828-3.531-8.828-8.828c0-5.297,3.531-8.828,8.828-8.828h17.655
	c5.297,0,8.828,3.531,8.828,8.828C220.69,283.366,217.159,286.897,211.862,286.897"/>
<path style="fill:#DD342E;" d="M414.897,286.897H300.138c-5.297,0-8.828-3.531-8.828-8.828c0-5.297,3.531-8.828,8.828-8.828h114.759
	c5.297,0,8.828,3.531,8.828,8.828C423.724,283.366,420.193,286.897,414.897,286.897"/>
<path style="fill:#42B05C;" d="M467.862,286.897h-17.655c-5.297,0-8.828-3.531-8.828-8.828c0-5.297,3.531-8.828,8.828-8.828h17.655
	c5.297,0,8.828,3.531,8.828,8.828C476.69,283.366,473.159,286.897,467.862,286.897"/>
<path style="fill:#7383BF;" d="M211.862,180.966h-17.655c-5.297,0-8.828-3.531-8.828-8.828s3.531-8.828,8.828-8.828h17.655
	c5.297,0,8.828,3.531,8.828,8.828S217.159,180.966,211.862,180.966"/>
<path style="fill:#ECBA16;" d="M476.69,145.655c0,48.552-39.724,88.276-88.276,88.276s-88.276-39.724-88.276-88.276
	s39.724-88.276,88.276-88.276S476.69,97.103,476.69,145.655"/>
<path style="fill:#42B05C;" d="M300.138,145.655c0,2.648,0,6.179,0,8.828h88.276V57.379
	C339.862,57.379,300.138,97.103,300.138,145.655"/>
</svg>