<svg width="144" height="144" viewBox="0 0 144 144" fill="none" xmlns="http://www.w3.org/2000/svg">
<rect width="144" height="144" rx="24" fill="url(#paint0_linear_687_3268)"/>
<g clip-path="url(#clip0_687_3268)">
<path d="M89.5039 111.707H54.497C54.1727 111.707 54.0108 111.221 54.3349 111.059L57.2522 108.952C60.3314 106.683 61.9522 102.631 60.9797 98.7412H83.021C82.0485 102.631 83.6693 106.683 86.7485 108.952L89.6658 111.059C89.99 111.221 89.8279 111.707 89.5039 111.707Z" fill="#B0B6BB"/>
<path d="M113.328 98.741H30.6725C27.5931 98.741 25 96.148 25 93.0687V33.1032C25 30.0239 27.5931 27.4307 30.6725 27.4307H113.328C116.407 27.4307 119 30.0237 119 33.1032V93.0687C119 96.148 116.407 98.741 113.328 98.741Z" fill="#E8EDEE"/>
<path d="M119 84.1549H25V33.1032C25 30.0239 27.5931 27.4307 30.6725 27.4307H113.328C116.407 27.4307 119 30.0237 119 33.1032L119 84.1549Z" fill="#38454F"/>
<path d="M90.6374 116.569H53.3616C52.0651 116.569 50.9307 115.435 50.9307 114.138C50.9307 112.841 52.0651 111.707 53.3616 111.707H90.6374C91.9339 111.707 93.0684 112.841 93.0684 114.138C93.0684 115.435 91.9339 116.569 90.6374 116.569Z" fill="#E8EDEE"/>
<path d="M54.1722 38.7757H33.1032C32.1307 38.7757 31.4824 38.1274 31.4824 37.1549C31.4824 36.1824 32.1307 35.5342 33.1032 35.5342H54.1722C55.1447 35.5342 55.793 36.1824 55.793 37.1549C55.7928 38.1274 55.1445 38.7757 54.1722 38.7757Z" fill="#DD342E"/>
<path d="M63.8963 45.2591H41.2067C40.2342 45.2591 39.5859 44.6108 39.5859 43.6383C39.5859 42.6658 40.2342 42.0176 41.2067 42.0176H63.8963C64.8688 42.0176 65.5171 42.6658 65.5171 43.6383C65.5171 44.6108 64.8688 45.2591 63.8963 45.2591Z" fill="#7383BF"/>
<path d="M34.724 45.2591H33.1032C32.1307 45.2591 31.4824 44.6108 31.4824 43.6383C31.4824 42.6658 32.1307 42.0176 33.1032 42.0176H34.724C35.6964 42.0176 36.3447 42.6658 36.3447 43.6383C36.3447 44.6108 35.6963 45.2591 34.724 45.2591Z" fill="#42B05C"/>
<path d="M63.8963 38.7757H60.6549C59.6824 38.7757 59.0342 38.1274 59.0342 37.1549C59.0342 36.1824 59.6824 35.5342 60.6549 35.5342H63.8963C64.8688 35.5342 65.5171 36.1824 65.5171 37.1549C65.5171 38.1274 64.8688 38.7757 63.8963 38.7757Z" fill="#ECBA16"/>
<path d="M47.6893 51.7413H33.1032C32.1307 51.7413 31.4824 51.0931 31.4824 50.1206C31.4824 49.1481 32.1307 48.5 33.1032 48.5H47.6893C48.6618 48.5 49.3101 49.1483 49.3101 50.1208C49.3101 51.0933 48.6618 51.7413 47.6893 51.7413Z" fill="#DD342E"/>
<path d="M63.8968 51.7413H54.1725C53.2 51.7413 52.5518 51.0931 52.5518 50.1206C52.5518 49.1481 53.2002 48.5 54.1727 48.5H63.8969C64.8694 48.5 65.5177 49.1483 65.5177 50.1208C65.5177 51.0933 64.8692 51.7413 63.8968 51.7413Z" fill="#ECBA16"/>
<path d="M54.1722 58.224H33.1032C32.1307 58.224 31.4824 57.5757 31.4824 56.6032C31.4824 55.6307 32.1307 54.9824 33.1032 54.9824H54.1722C55.1447 54.9824 55.793 55.6307 55.793 56.6032C55.793 57.5757 55.1445 58.224 54.1722 58.224Z" fill="#42B05C"/>
<path d="M63.8963 64.7074H41.2067C40.2342 64.7074 39.5859 64.0591 39.5859 63.0866C39.5859 62.1141 40.2342 61.4658 41.2067 61.4658H63.8963C64.8688 61.4658 65.5171 62.1141 65.5171 63.0866C65.5171 64.0591 64.8688 64.7074 63.8963 64.7074Z" fill="#ECBA16"/>
<path d="M34.724 64.7074H33.1032C32.1307 64.7074 31.4824 64.0591 31.4824 63.0866C31.4824 62.1141 32.1307 61.4658 33.1032 61.4658H34.724C35.6964 61.4658 36.3447 62.1141 36.3447 63.0866C36.3447 64.0591 35.6963 64.7074 34.724 64.7074Z" fill="#DD342E"/>
<path d="M47.6893 71.1898H33.1032C32.1307 71.1898 31.4824 70.5415 31.4824 69.569C31.4824 68.5965 32.1307 67.9482 33.1032 67.9482H47.6893C48.6618 67.9482 49.3101 68.5965 49.3101 69.569C49.3101 70.5415 48.6618 71.1898 47.6893 71.1898Z" fill="#42B05C"/>
<path d="M63.8968 71.1898H54.1725C53.2 71.1898 52.5518 70.5415 52.5518 69.569C52.5518 68.5965 53.2 67.9482 54.1725 67.9482H63.8968C64.8692 67.9482 65.5175 68.5965 65.5175 69.569C65.5175 70.5415 64.8692 71.1898 63.8968 71.1898Z" fill="#7383BF"/>
<path d="M54.1722 77.6722H33.1032C32.1307 77.6722 31.4824 77.0239 31.4824 76.0514C31.4824 75.0789 32.1307 74.4307 33.1032 74.4307H54.1722C55.1447 74.4307 55.793 75.0789 55.793 76.0514C55.7928 77.0239 55.1445 77.6722 54.1722 77.6722Z" fill="#ECBA16"/>
<path d="M63.8963 77.6722H60.6549C59.6824 77.6722 59.0342 77.0239 59.0342 76.0514C59.0342 75.0789 59.6824 74.4307 60.6549 74.4307H63.8963C64.8688 74.4307 65.5171 75.0789 65.5171 76.0514C65.5171 77.0239 64.8688 77.6722 63.8963 77.6722Z" fill="#42B05C"/>
<path d="M101.172 77.6722H80.1032C79.1307 77.6722 78.4824 77.0239 78.4824 76.0514C78.4824 75.0789 79.1307 74.4307 80.1032 74.4307H101.172C102.145 74.4307 102.793 75.0789 102.793 76.0514C102.793 77.0239 102.145 77.6722 101.172 77.6722Z" fill="#DD342E"/>
<path d="M110.896 77.6722H107.655C106.682 77.6722 106.034 77.0239 106.034 76.0514C106.034 75.0789 106.682 74.4307 107.655 74.4307H110.896C111.869 74.4307 112.517 75.0789 112.517 76.0514C112.517 77.0239 111.869 77.6722 110.896 77.6722Z" fill="#42B05C"/>
<path d="M63.8963 58.224H60.6549C59.6824 58.224 59.0342 57.5757 59.0342 56.6032C59.0342 55.6307 59.6824 54.9824 60.6549 54.9824H63.8963C64.8688 54.9824 65.5171 55.6307 65.5171 56.6032C65.5171 57.5757 64.8688 58.224 63.8963 58.224Z" fill="#7383BF"/>
<path d="M112.517 51.7411C112.517 60.6549 105.224 67.948 96.3104 67.948C87.3966 67.948 80.1035 60.6549 80.1035 51.7411C80.1035 42.8273 87.3966 35.5342 96.3104 35.5342C105.224 35.5342 112.517 42.8273 112.517 51.7411Z" fill="#ECBA16"/>
<path d="M80.1035 51.7411C80.1035 52.2273 80.1035 52.8755 80.1035 53.3619H96.3104V35.5342C87.3966 35.5342 80.1035 42.8273 80.1035 51.7411Z" fill="#42B05C"/>
</g>
<defs>
<linearGradient id="paint0_linear_687_3268" x1="1.23239e-06" y1="-9.50001" x2="168" y2="162" gradientUnits="userSpaceOnUse">
<stop stop-color="#8FDDFF"/>
<stop offset="1" stop-color="#0075FF"/>
</linearGradient>
<clipPath id="clip0_687_3268">
<rect width="94" height="94" fill="white" transform="translate(25 25)"/>
</clipPath>
</defs>
</svg>
