<svg width="144" height="144" viewBox="0 0 144 144" fill="none" xmlns="http://www.w3.org/2000/svg">
<rect width="144" height="144" rx="24" fill="url(#paint0_linear_679_1910)"/>
<path d="M138.685 121.057C138.685 126.652 136.462 132.017 132.504 135.973C128.547 139.929 123.179 142.151 117.582 142.151C111.985 142.151 106.618 139.929 102.66 135.973C98.7028 132.017 96.4795 126.652 96.4795 121.057C96.4795 118.287 97.0253 115.544 98.0858 112.985C99.1463 110.425 100.701 108.1 102.66 106.141C104.62 104.182 106.946 102.629 109.507 101.569C112.067 100.509 114.811 99.9629 117.582 99.9629C120.353 99.9629 123.098 100.509 125.658 101.569C128.218 102.629 130.544 104.182 132.504 106.141C134.464 108.1 136.018 110.425 137.079 112.985C138.139 115.544 138.685 118.287 138.685 121.057Z" fill="url(#paint1_radial_679_1910)"/>
<path d="M110.336 126.147H123.68V136.823H110.336V126.147Z" fill="#0F5E9C"/>
<path d="M119.27 112.294C119.27 112.714 119.178 113.131 119 113.519C118.821 113.908 118.56 114.261 118.23 114.558C117.901 114.855 117.509 115.091 117.079 115.252C116.648 115.413 116.186 115.496 115.72 115.496C114.778 115.496 113.875 115.158 113.21 114.558C112.544 113.957 112.17 113.143 112.17 112.294C112.17 111.445 112.544 110.63 113.21 110.03C113.875 109.429 114.778 109.092 115.72 109.092C116.186 109.092 116.648 109.175 117.079 109.336C117.509 109.496 117.901 109.732 118.23 110.03C118.56 110.327 118.821 110.68 119 111.068C119.178 111.457 119.27 111.873 119.27 112.294Z" fill="#59686F"/>
<path d="M128.11 114.103C128.11 114.953 127.736 115.767 127.07 116.368C126.404 116.968 125.501 117.305 124.56 117.305C124.094 117.305 123.632 117.223 123.201 117.062C122.771 116.901 122.379 116.665 122.05 116.368C121.72 116.07 121.458 115.717 121.28 115.329C121.102 114.94 121.01 114.524 121.01 114.103C121.01 113.683 121.102 113.266 121.28 112.878C121.458 112.49 121.72 112.137 122.05 111.839C122.379 111.542 122.771 111.306 123.201 111.145C123.632 110.984 124.094 110.901 124.56 110.901C125.501 110.901 126.404 111.239 127.07 111.839C127.736 112.44 128.11 113.254 128.11 114.103Z" fill="#59686F"/>
<path d="M122.333 118.976C122.333 119.826 121.958 120.64 121.293 121.241C120.627 121.841 119.724 122.178 118.782 122.178C118.316 122.178 117.855 122.096 117.424 121.935C116.993 121.774 116.602 121.538 116.272 121.241C115.943 120.943 115.681 120.59 115.503 120.202C115.324 119.813 115.232 119.397 115.232 118.976C115.232 118.556 115.324 118.14 115.503 117.751C115.681 117.363 115.943 117.01 116.272 116.712C116.602 116.415 116.993 116.179 117.424 116.018C117.855 115.857 118.316 115.774 118.782 115.774C119.724 115.774 120.627 116.112 121.293 116.712C121.958 117.313 122.333 118.127 122.333 118.976Z" fill="#59686F"/>
<path d="M115.308 121.905C113.735 121.426 115.707 120.68 115.429 120.573C114.653 120.276 115.73 119.333 116.74 118.539C117.628 117.841 117.659 117.839 117.892 118.468C118.024 118.823 118.371 119.206 118.665 119.319C119.289 119.558 120.951 119.269 120.951 118.835C120.951 118.223 121.415 118.699 121.794 119.531C122.457 120.987 122.437 122.472 121.45 122.472C120.859 122.472 120.31 122.691 120.19 123.147C115.046 124.6 116.471 123.284 115.308 121.905ZM123.094 118.054C121.609 117.466 120.547 114.838 120.547 113.309C120.547 111.323 122.541 109.095 124.317 109.095C128.315 109.095 130.684 112.261 128.838 118.409C128.385 119.919 123.933 118.387 123.094 118.054ZM125.866 115.649C127.544 114.474 125.857 111.755 123.981 112.61C122.479 113.294 123.119 116.115 124.77 116.164C124.961 116.169 125.454 115.938 125.866 115.649ZM124.339 114.579C123.771 114.381 123.803 113.256 124.383 113.034C124.902 112.835 125.604 113.398 125.604 114.014C125.604 114.489 124.936 114.787 124.339 114.579ZM112.319 116.98C109.96 115.67 110.286 111.006 112.417 108.965C114.396 107.069 118.778 107.103 119.764 109.462C120.415 111.021 120.228 112.6 119.398 114.077C118.194 116.219 114.242 118.049 112.319 116.98ZM116.56 113.593C117.325 112.901 117.297 112.06 116.572 111.259C115.777 110.379 114.692 110.345 114.035 111.347C113.524 112.127 113.431 112.528 113.943 113.309C114.58 114.28 115.67 114.399 116.56 113.593ZM114.374 112.34C114.128 111.698 114.985 110.981 115.68 111.247C115.974 111.36 116.164 111.718 116.102 112.044C115.961 112.785 114.632 113.012 114.374 112.34Z" fill="#D3D6DA"/>
<path d="M118.463 121.008L117.945 120.78C117.51 120.685 117.231 121.107 117.136 121.543L116.881 122.709C116.786 123.145 117.061 123.571 117.496 123.666L118.447 123.874C118.882 123.969 119.311 123.694 119.406 123.259L119.685 121.556C119.78 121.12 119.479 121.228 119.043 121.133L118.628 121.043C118.573 121.321 118.516 121.613 118.471 121.833C118.438 121.998 118.407 122.148 118.379 122.282C118.351 122.415 118.327 122.533 118.305 122.635C118.282 122.738 118.262 122.825 118.245 122.897C118.228 122.969 118.214 123.025 118.202 123.068C118.196 123.089 118.193 123.107 118.188 123.121C118.183 123.135 118.178 123.145 118.175 123.152C118.173 123.155 118.172 123.156 118.171 123.158C118.17 123.159 118.168 123.16 118.167 123.16L118.165 123.158C118.164 123.156 118.163 123.152 118.163 123.148C118.162 123.14 118.162 123.129 118.163 123.115C118.163 123.1 118.163 123.083 118.165 123.061C118.168 123.018 118.175 122.961 118.183 122.891C118.192 122.82 118.203 122.736 118.216 122.64C118.229 122.543 118.246 122.431 118.264 122.308C118.281 122.185 118.301 122.051 118.323 121.903C118.346 121.755 118.37 121.592 118.397 121.419C118.416 121.299 118.442 121.14 118.463 121.008Z" fill="#98C6D8"/>
<path d="M103.581 116.367C103.479 116.103 103.622 115.699 103.898 115.469C104.303 115.133 104.504 115.155 104.93 115.581C105.22 115.871 105.355 116.276 105.23 116.479C104.902 117.009 103.798 116.934 103.581 116.367Z" fill="#98C6D8"/>
<path d="M106.038 112.281C105.68 111.849 105.702 111.66 106.165 111.197C106.689 110.674 106.764 110.674 107.287 111.197C107.751 111.66 107.773 111.849 107.415 112.281C107.176 112.568 106.866 112.803 106.726 112.803C106.586 112.803 106.277 112.568 106.038 112.281Z" fill="#98C6D8"/>
<path d="M106.038 107.224C105.682 106.795 105.694 106.612 106.106 106.201C106.65 105.657 107.738 105.88 107.738 106.536C107.738 106.97 107.072 107.747 106.7 107.747C106.575 107.747 106.277 107.512 106.038 107.224Z" fill="#98C6D8"/>
<path d="M117.955 136.541C114.578 136.111 110.087 134.881 109.41 134.274C108.123 133.119 108.942 127.879 110.466 126.54C111.387 125.731 115.039 124.663 117.182 125.169C119.642 125.749 123.932 128.648 124.25 129.508C124.625 130.522 124.048 134.541 123.323 135.536C122.694 136.399 120.325 136.843 117.955 136.541ZM120.54 134.084C121.297 133.399 121.342 131.842 120.627 131.126C119.49 129.989 117.112 130.869 117.112 132.428C117.112 134.304 119.189 135.307 120.54 134.084ZM118.582 133.125C118.311 132.419 118.68 131.608 119.272 131.608C120 131.608 120.228 132.173 119.812 132.949C119.381 133.755 118.853 133.83 118.582 133.125ZM116.422 133.143C117.094 132.333 116.711 131.176 115.681 130.902C114.581 130.61 114.052 131.183 114.869 131.78C115.683 132.375 115.551 132.679 114.533 132.557C113.327 132.413 112.833 131.566 113.254 130.362C113.681 129.142 115.197 128.863 115.753 129.902C116.193 130.725 116.627 130.793 116.9 130.083C117.229 129.224 115.914 128.237 114.44 128.237C111.993 128.237 110.816 131.074 112.546 132.803C113.5 133.758 115.749 133.955 116.422 133.143Z" fill="#7BA9B9"/>
<path d="M120.118 138.592C118.751 137.297 121.916 136.096 123.606 138.283C124.469 139.322 122.853 139.976 120.118 138.592ZM106.12 135.658C104.751 134.289 106.963 133.904 108.581 135.23L109.941 135.92L108.059 136.061C107.215 136.062 106.343 135.881 106.12 135.658V135.658ZM125.363 127.866C125.082 127.41 128.333 126.267 128.688 126.486C128.846 126.584 128.975 127.337 128.975 128.161C128.975 129.239 128.84 129.658 128.49 129.658C128.222 129.658 125.476 128.047 125.363 127.866ZM118.641 121.095C114.871 120.753 115.378 119.327 116.361 118.499C116.928 118.021 117.34 117.779 117.913 117.667C117.913 117.667 117.872 119.046 118.666 119.319C119.297 119.536 120.278 119.064 120.471 118.675C122.188 115.201 121.415 118.699 121.794 119.532C123.238 124.007 120.188 121.73 118.641 121.095ZM104.912 121.23C104.242 120.487 103.693 119.729 103.693 119.544C103.693 119.116 104.746 119.112 105.863 119.537C106.593 119.814 110.347 120.006 110.347 121.153C110.347 121.899 108.89 123.762 108.726 123.762C108.563 123.762 105.583 121.972 104.912 121.23Z" fill="#A6B3C2"/>
<path d="M118.463 121.008C118.442 121.14 118.416 121.299 118.397 121.419C118.37 121.592 118.345 121.755 118.323 121.903C118.3 122.051 118.281 122.185 118.263 122.308C118.245 122.431 118.229 122.542 118.216 122.639C118.203 122.736 118.191 122.82 118.183 122.89C118.175 122.961 118.168 123.018 118.165 123.061C118.163 123.083 118.164 123.1 118.163 123.115C118.162 123.129 118.162 123.14 118.163 123.148C118.163 123.152 118.164 123.156 118.165 123.158L118.167 123.16C118.168 123.16 118.17 123.159 118.171 123.158C118.172 123.157 118.173 123.155 118.175 123.152C118.178 123.145 118.182 123.135 118.187 123.121C118.192 123.107 118.196 123.089 118.202 123.067C118.213 123.025 118.228 122.969 118.245 122.897C118.262 122.825 118.282 122.738 118.305 122.635C118.327 122.533 118.351 122.415 118.379 122.281C118.406 122.148 118.438 121.998 118.471 121.833C118.516 121.613 118.573 121.321 118.628 121.043L118.463 121.008Z" fill="#4C9CBB"/>
<path d="M30.9986 142.673C26.4489 140.916 21.4664 136.805 18.7921 132.603C15.4053 127.281 14.4052 123.419 15.0636 118.203C15.6806 113.315 17.3558 110.557 22.2232 106.413C29.0417 100.608 34.4846 97.9799 40.5947 97.5415C49.8212 96.8794 55.0978 99.8109 57.6465 107.015C58.5043 109.439 58.6856 115.57 58.0544 120.809C57.8311 122.663 57.4789 126.055 57.2718 128.348C56.5467 136.375 54.4147 140.417 49.6253 142.843C48.2979 143.516 47.7199 143.561 40.6924 143.539C33.5151 143.516 33.081 143.478 30.9986 142.673ZM0.0795765 104.965C0.0815723 103.853 0.144403 103.438 0.219427 104.044C0.294451 104.65 0.292899 105.56 0.215996 106.067C0.139079 106.573 0.0776838 106.078 0.0795765 104.965ZM0.00173351 102.24C0.0178992 101.848 0.0977897 101.768 0.205398 102.037C0.302772 102.28 0.290797 102.571 0.178787 102.683C0.0667748 102.795 -0.0129021 102.596 0.00173351 102.24ZM0.0283444 75.1326C0.0283444 74.6691 0.104857 74.4795 0.198369 74.7112C0.291884 74.943 0.291884 75.3222 0.198369 75.5539C0.104857 75.7857 0.0283444 75.5961 0.0283444 75.1326Z" fill="url(#paint2_radial_679_1910)"/>
<path d="M35.3133 112.544L37.9 111.091L39.3517 121.46L39.248 128.926L35.3703 130.851L32.9229 126.437L35.3133 112.544Z" fill="#3060AD"/>
<path d="M38.7295 116.69L39.3516 124.571L43.2919 125.919L43.3956 109.225L40.1812 110.054L38.7295 116.69Z" fill="#606368"/>
<path d="M35.3699 130.851C33.0324 129.73 29.7301 126.408 28.6621 124.103C28.0332 122.745 27.6397 122.31 26.8923 122.146C25.7879 121.903 25.8084 121.971 26.3218 120.258C26.5936 119.35 26.9032 118.954 27.3406 118.954C27.6862 118.954 29.1597 117.841 30.6149 116.48C32.0702 115.119 33.7226 113.677 34.2869 113.275L35.3129 112.544L35.6767 114.241C37.0443 120.618 37.027 124.266 35.6198 126.243C34.5521 127.744 34.8417 128.393 36.5791 128.393C37.397 128.393 37.8222 128.185 38.1305 127.634C38.6748 126.663 38.6315 120.968 38.0454 116.426C37.3446 110.995 37.3127 111.167 39.1578 110.398C40.036 110.031 40.818 109.797 40.8955 109.877C40.9731 109.956 40.8191 111.235 40.5534 112.718C39.6067 118.003 39.9315 123.238 41.2752 124.353C41.6851 124.693 41.7233 123.969 41.5452 119.232C41.3156 113.123 41.5174 110.919 42.4075 109.82C42.9198 109.188 43.213 109.116 44.4959 109.31C46.9566 109.682 46.9506 109.668 46.2099 113.254C45.8496 114.999 45.4483 117.224 45.318 118.2L45.0812 119.973L45.9446 119.645C46.4195 119.465 47.4413 118.994 48.2153 118.599L49.6226 117.881L49.3893 118.67C49.261 119.105 49.0672 120.701 48.9587 122.218L48.7614 124.976L47.1095 124.325C46.201 123.967 45.3116 123.674 45.1331 123.674C44.941 123.674 44.8085 125.532 44.8085 128.224C44.8085 131.891 44.7171 132.775 44.3386 132.775C41.0198 132.295 38.7842 132.458 35.3699 130.851Z" fill="#EEC23B"/>
<path d="M41.1639 132.418C41.1639 132.283 41.3408 130.515 41.6692 128.145C41.9977 125.775 42.3577 122.961 42.4692 121.893C42.5808 120.824 42.7969 120.027 42.9495 120.121C43.6443 120.551 44.2938 129.375 44.0474 131.42C43.8909 132.719 43.6595 132.737 43.3019 132.677C42.6602 132.57 41.9101 132.513 41.1639 132.418ZM32.5969 122.735C31.6813 122.583 30.8242 121.442 30.8242 120.374C30.8242 119.407 32.2381 117.937 33.1685 117.937C34.6666 117.937 35.8392 120.513 34.9484 121.847C34.5517 122.441 33.4147 122.87 32.5969 122.735Z" fill="white"/>
<path d="M114.021 137.498C107.318 135.74 106.273 134.104 106.609 125.891C106.716 123.281 106.885 120.539 106.986 119.797C107.545 115.664 108.342 112.173 109.086 110.599C109.744 109.206 109.842 108.712 109.535 108.342C108.45 107.035 110.371 104.995 111.91 105.819C112.457 106.111 112.918 106.077 113.945 105.665C117.062 104.419 123.117 105.571 126.814 108.115C128.149 109.033 128.485 109.136 129.038 108.791C130.523 107.863 132.451 110.573 131.25 111.9C130.787 112.412 130.755 112.705 131.065 113.596C131.85 115.846 131.794 116.104 128.006 127.719C125.58 135.16 124.543 137.365 123.264 137.811C121.653 138.373 116.723 138.206 114.021 137.498ZM122.541 135.229C123.003 134.541 123.359 133.313 123.513 131.878C123.794 129.25 123.819 129.283 120.317 127.601C117.685 126.338 113.833 125.972 111.855 126.798C110.829 127.227 110.595 127.556 110.059 129.327C109.116 132.443 109.703 134.308 111.832 134.958C113.139 135.357 120.09 136.43 120.98 136.37C121.504 136.335 122.082 135.912 122.541 135.229ZM119.451 122.42C119.63 122.081 119.685 121.556 119.685 121.556C120.156 121.654 120.48 121.683 120.726 121.719C121.105 121.774 121.564 121.587 121.745 121.303C122.149 120.671 120.474 117.701 119.548 117.408C118.668 117.128 115.935 118.827 115.935 119.653C115.935 120.022 116.553 120.411 116.831 120.518C116.982 120.576 117.252 120.738 117.576 120.938C117.38 121.351 117.346 121.478 117.312 121.724C117.204 122.498 117.435 122.686 118.416 122.912C119.151 122.991 119.25 122.845 119.451 122.42ZM127.265 116.836C130.933 113.475 127.074 107.41 122.705 109.67C121.626 110.228 120.654 112.019 120.654 113.449C120.654 115.664 122.831 117.937 124.957 117.941C125.733 117.943 126.414 117.617 127.265 116.836ZM117.141 115.622C119.035 114.468 119.804 111.795 118.802 109.857C118.082 108.464 117.008 107.83 115.366 107.83C111.508 107.83 109.485 113.234 112.465 115.578C113.57 116.448 115.754 116.468 117.141 115.622Z" fill="#0996D1"/>
<path opacity="0.9" d="M33.1757 26L32.381 27.219C31.9449 27.889 31.2836 29.3248 30.9091 30.4088C30.5347 31.4928 29.9922 32.9701 29.7043 33.6928C29.4163 34.4154 29.1733 36.115 29.1638 37.47C29.1436 40.353 28.7494 41.8888 27.6364 43.4225C26.9212 44.408 26.6751 44.5223 25.4532 44.441C23.8995 44.3377 22.8153 45.0815 21.217 47.3481C20.7165 48.058 20.1367 48.6393 19.9289 48.6393C19.7211 48.6393 19.1805 48.2319 18.7262 47.7351C18.2719 47.2382 17.9944 47.0115 18.111 47.2298C18.49 47.9396 17.5904 53.2615 16.8378 54.7642C15.967 56.5028 14.3872 57.7233 12.5354 58.0843C11.0059 58.3826 11.2283 58.09 8.71795 63.0946C6.66334 67.1907 5.96935 67.8264 2.65533 68.6542C1.49717 68.9434 0.458759 69.7142 0 70.5287V72.8263C0.356193 72.7473 0.828728 72.6203 1.61499 72.3873C2.99486 71.9782 4.82348 71.4806 5.6781 71.2806C7.72934 70.8006 9.39351 69.2195 9.92279 67.2467C10.2424 66.0554 10.7033 65.4241 11.9992 64.4058C13.284 63.3962 13.7565 62.7546 14.0671 61.5969C14.3739 60.4532 14.7011 60.004 15.4407 59.7063C17.0153 59.0724 20.6444 55.8655 21.2363 54.5858C21.5373 53.9349 22.1198 52.5399 22.5287 51.4862C23.2634 49.5932 25.0195 47.3261 25.7501 47.3261C25.9574 47.3261 27.109 46.7248 28.3093 45.9908C31.2376 44.2003 31.5991 43.4136 31.5991 38.8614C31.5991 35.6814 31.687 35.1557 32.3468 34.3684C33.0037 33.5847 33.0997 33.0249 33.1351 29.7391L33.1757 26ZM24.3338 63.5958C24.2037 63.6135 24.0738 63.6618 23.9258 63.7362C22.9397 64.2315 22.6136 64.9102 21.5973 68.586C21.0179 70.6815 20.4212 72.0819 19.8798 72.6178C19.4235 73.0695 18.9383 73.8823 18.801 74.4242C18.181 76.8715 16.7454 78.6073 14.4495 79.6871C12.4555 80.6249 10.6407 82.1179 9.11102 84.0798C8.32109 85.0929 7.48752 86.029 7.25678 86.1609C6.76164 86.444 5.70899 88.8941 4.60785 92.328C3.71092 95.125 1.71065 97.4682 0.478514 97.1658C0.254931 97.1109 0.106911 97.1137 0 97.2901V104.492C0.556411 103.664 1.2342 102.629 2.56347 100.54C4.34511 97.7397 6.46385 94.4867 7.27173 93.3124C8.0796 92.1381 9.35687 90.1488 10.1086 88.8916C11.2342 87.0092 12.1016 86.1243 15.0284 83.8833L18.5831 81.1627L20.4053 75.9881C23.1895 68.0817 23.9585 67.1997 27.7624 67.5515C29.4605 67.7085 30.6334 67.6196 32.0734 67.2267C34.1826 66.6512 34.4799 66.1872 33.3551 65.2318C32.6554 64.6376 31.3153 64.64 28.2388 65.2418C27.3397 65.4177 26.9343 65.2757 25.8932 64.4178C25.1051 63.7684 24.7241 63.5426 24.3338 63.5958ZM31.7166 83.2598C31.6605 83.2749 31.5921 83.3126 31.5115 83.3721C31.2709 83.55 30.6536 83.79 30.1379 83.9054C29.3876 84.0734 29.0498 84.4932 28.4482 86.0045C28.0347 87.0432 27.4915 88.1153 27.2412 88.3863C26.9909 88.6573 26.475 89.551 26.0941 90.3732C24.9422 92.8592 23.5282 94.0618 19.9011 95.6421C16.6107 97.0756 16.567 97.1086 15.6671 98.9802C15.1027 100.154 14.6792 101.757 14.5499 103.205C14.2731 106.302 13.5962 107.031 9.52118 108.616C5.91497 110.019 3.57702 111.745 3.41583 113.123C3.24041 114.623 2.59813 115.084 0.92926 114.907C0.539529 114.866 0.244332 114.851 0 114.881V121C1.02658 119.658 2.71922 118.361 6.22497 116.206C10.3604 113.665 12.7065 111.575 13.5779 109.654C13.926 108.887 14.6547 107.393 15.1971 106.334C15.7395 105.275 16.2845 103.901 16.4084 103.281C16.7324 101.66 18.3032 100.349 20.6659 99.726C25.177 98.5372 25.7461 98.0163 26.3525 94.5354C26.8561 91.6452 28.612 88.0661 30.5267 86.0246C31.3095 85.19 31.9495 84.18 31.9495 83.7791C31.9495 83.3766 31.8849 83.2146 31.7166 83.2598Z" fill="#359136"/>
<path d="M8.08177 74.4083C6.03419 73.8705 5.89443 73.7302 6.04271 72.3615C6.13025 71.5533 6.24017 70.8575 6.28696 70.8154C6.33376 70.7733 7.70443 71.0687 9.33292 71.4719C11.9768 72.1264 12.4866 72.1238 14.0947 71.4474C16.4041 70.476 17.2383 68.7753 16.4022 66.7431C15.9424 65.6257 14.9204 64.8281 12.2384 63.494C7.6417 61.2075 6.53062 59.999 6.27465 57.0076C5.89337 52.5519 8.84689 49.9836 14.3522 49.9836C15.9733 49.9836 17.8487 50.1937 18.5196 50.4505C19.6368 50.8781 19.6937 51.0399 19.1945 52.3712C18.7182 53.6416 18.5027 53.7688 17.4861 53.3796C15.5199 52.627 12.1948 52.8554 11.0058 53.8247C9.79058 54.8153 9.55736 56.9252 10.5324 58.1079C10.8727 58.5207 12.9087 59.779 15.0569 60.9041C18.4628 62.6881 19.082 63.2214 19.8951 65.0719C21.1152 67.8487 20.6788 70.3437 18.6078 72.4323C16.1607 74.9002 12.5413 75.5796 8.08177 74.4083ZM28.9328 74.3823C25.2365 72.9958 23.7138 70.5405 23.7138 65.9667C23.7138 62.5034 24.5588 60.4697 26.8333 58.4593C28.3964 57.0776 28.9867 56.8686 31.3268 56.8686C32.8168 56.8686 34.6821 57.2129 35.5005 57.6389C37.3169 58.5846 38.8319 61.7426 38.8466 64.6143L38.8573 66.7044H32.9423H27.0273L27.342 68.0569C27.515 68.8007 28.3354 70.0391 29.165 70.809C30.5773 72.1196 30.8949 72.1979 34.1547 72.0385C37.3938 71.8801 37.6463 71.9409 37.784 72.9122C37.9626 74.1725 37.1882 74.5236 33.5242 74.8434C31.8085 74.9932 30.1056 74.8222 28.9328 74.3823ZM35.0881 62.5242C34.9558 60.673 33.3644 59.3276 31.3072 59.3276C29.7086 59.3276 28.7281 60.0909 27.662 62.1655C26.7457 63.9486 27.412 64.2965 31.4488 64.1425L35.1936 63.9996L35.0881 62.5242ZM44.3914 74.3708C42.5711 73.5468 41.7059 72.1286 41.6421 69.8647C41.5416 66.2944 44.111 64.1468 49.2576 63.4994C51.8414 63.1744 52.0495 63.0577 51.7593 62.0969C50.965 59.4666 48.2423 58.5644 44.9276 59.8331C43.4303 60.4063 43.4868 60.4313 43.0514 59.0032C42.7801 58.1135 42.9982 57.8511 44.395 57.387C46.9364 56.5427 51.3745 56.6342 52.7779 57.56C54.9392 58.9857 55.3751 60.6019 55.5487 67.8328L55.7106 74.5745L54.123 74.574C53.0377 74.5733 52.5353 74.3396 52.5353 73.8354C52.5353 72.9066 52.0528 72.9024 50.752 73.8196C49.2013 74.913 46.1697 75.1757 44.3914 74.3708ZM50.9477 70.8175C51.7099 69.9735 52.0468 68.986 52.0468 67.5966V65.5929L49.8182 65.8458C45.719 66.311 43.8749 69.5118 46.5058 71.5953C48.0371 72.8079 49.3594 72.5763 50.9477 70.8175ZM92.002 74.5788C88.4024 73.4864 86.2419 70.2466 86.2419 65.941C86.2419 60.4042 89.5211 56.8325 94.641 56.7925C98.6989 56.7609 101.263 59.4679 101.503 64.0366L101.63 66.4585L96.2562 66.5885C93.3007 66.66 90.6158 66.816 90.2897 66.9351C89.3818 67.2668 90.4788 69.947 92.0306 71.1886C93.1599 72.0921 93.771 72.1912 96.8178 71.965C100.193 71.7144 100.318 71.7449 100.531 72.8684C100.73 73.9133 100.509 74.0835 98.3579 74.548C95.6103 75.1412 93.8829 75.1496 92.002 74.5788ZM97.9659 63.0823C97.9659 61.1231 96.1858 59.3276 94.2434 59.3276C92.2494 59.3276 90.1499 61.2562 90.1499 63.0878C90.1499 64.207 90.2797 64.2455 94.0579 64.2455C97.8414 64.2455 97.9659 64.2084 97.9659 63.0823ZM110.042 74.47C106.149 73.43 103.93 69.4029 104.54 64.4862C105.166 59.4442 107.951 56.8736 112.792 56.8705C115.374 56.869 115.805 57.0249 117.26 58.49C118.878 60.1185 119.941 62.8343 119.946 65.352L119.949 66.7044H114.087C108.488 66.7044 108.225 66.7501 108.225 67.7203C108.225 70.7122 110.952 72.3442 115.357 71.9882C118.136 71.7637 118.423 71.8315 118.667 72.7674C118.998 74.0443 118.968 74.072 116.69 74.6043C114.367 75.147 112.43 75.1078 110.042 74.47ZM116.119 62.7701C115.864 60.8787 114.159 59.3276 112.335 59.3276C110.566 59.3276 108.224 61.6014 108.224 63.3195C108.224 64.2128 108.527 64.2746 112.255 64.1424C116.241 64.0011 116.283 63.9862 116.119 62.7701ZM126.894 74.247C124.826 73.2208 123.532 71.3589 122.894 68.4889C121.975 64.3605 123.074 60.4914 125.83 58.1567C127.827 56.4657 131.838 56.3305 133.805 57.8879L135.092 58.9072V53.9536V49H137.046H139V61.7865V74.5731H137.29C135.762 74.5731 135.58 74.4331 135.58 73.2579V71.9427L134.481 72.9792C132.233 75.0998 129.525 75.5523 126.894 74.247ZM133.664 70.6766C134.976 69.3557 135.092 68.9537 135.092 65.7209C135.092 62.4572 134.985 62.0945 133.607 60.7076C132.365 59.4575 131.865 59.2622 130.554 59.5154C126.144 60.3672 124.835 68.1423 128.598 71.1229C130.348 72.5081 131.988 72.3635 133.664 70.6766ZM61.4107 66.0584C60.022 61.3754 58.8859 57.3919 58.8859 57.2062C58.8859 57.0206 59.7274 56.8686 60.7559 56.8686H62.6259L64.2551 63.8766C65.1512 67.731 65.956 70.6633 66.0437 70.3929C66.1313 70.1224 67.0557 67.0241 68.0978 63.5078L69.9926 57.1145H71.5969H73.2012L74.8865 63.2619C75.8134 66.643 76.6832 69.7412 76.8194 70.147C76.9557 70.5527 77.8419 67.731 78.789 63.8766L80.5109 56.8686H82.4517C83.9517 56.8686 84.3303 57.0316 84.119 57.586C83.9686 57.9806 82.6956 61.9641 81.2902 66.4382L78.7349 74.5731H76.9635H75.1921L73.5812 68.7945C72.6952 65.6163 71.8585 62.6841 71.7217 62.2783C71.4465 61.4616 71.5911 61.0733 69.1114 69.2863L67.5152 74.5731H65.7254H63.9356L61.4107 66.0584Z" fill="white"/>
<path d="M19.9746 119.274C19.0158 118.119 20.3381 116.166 21.5604 116.932C22.7632 117.686 22.3305 119.761 20.9704 119.761C20.645 119.761 20.1969 119.542 19.9746 119.274Z" fill="url(#paint3_radial_679_1910)"/>
<path d="M23.836 112.63C22.1152 111.689 21.8029 109.797 23.1465 108.453C24.0857 107.514 25.21 107.394 26.2507 108.123C27.8571 109.249 27.4655 112.013 25.6079 112.66C25.6079 112.66 24.4745 112.973 23.836 112.63Z" fill="url(#paint4_radial_679_1910)"/>
<path d="M33.7855 120.036C33.7855 120.188 33.7557 120.338 33.6976 120.479C33.6395 120.619 33.5544 120.746 33.4471 120.853C33.3398 120.961 33.2124 121.046 33.0723 121.104C32.9321 121.162 32.7818 121.192 32.6301 121.192C32.4783 121.192 32.3281 121.162 32.1879 121.104C32.0477 121.046 31.9203 120.961 31.813 120.853C31.7057 120.746 31.6206 120.619 31.5626 120.479C31.5045 120.338 31.4746 120.188 31.4746 120.036C31.4746 119.73 31.5963 119.436 31.813 119.219C32.0297 119.003 32.3236 118.881 32.6301 118.881C32.9365 118.881 33.2304 119.003 33.4471 119.219C33.6638 119.436 33.7855 119.73 33.7855 120.036Z" fill="black"/>
<path d="M120.721 118.276C120.721 118.623 120.565 118.956 120.287 119.201C120.009 119.446 119.632 119.584 119.239 119.584C118.846 119.584 118.469 119.446 118.191 119.201C117.913 118.956 117.757 118.623 117.757 118.276C117.757 118.105 117.795 117.935 117.87 117.776C117.944 117.617 118.053 117.473 118.191 117.352C118.329 117.23 118.492 117.134 118.672 117.068C118.851 117.003 119.044 116.969 119.239 116.969C119.433 116.969 119.626 117.003 119.806 117.068C119.986 117.134 120.149 117.23 120.287 117.352C120.424 117.473 120.533 117.617 120.608 117.776C120.682 117.935 120.721 118.105 120.721 118.276Z" fill="#59686F"/>
<defs>
<linearGradient id="paint0_linear_679_1910" x1="11" y1="-4.77768e-07" x2="164.5" y2="150.5" gradientUnits="userSpaceOnUse">
<stop stop-color="#64B7FF"/>
<stop offset="1" stop-color="#005DAD"/>
</linearGradient>
<radialGradient id="paint1_radial_679_1910" cx="0" cy="0" r="1" gradientUnits="userSpaceOnUse" gradientTransform="translate(124.904 128.636) rotate(-0.048552) scale(36.2802 31.4032)">
<stop stop-color="#1177CE"/>
<stop offset="1" stop-color="#7EC7FF" stop-opacity="0"/>
</radialGradient>
<radialGradient id="paint2_radial_679_1910" cx="0" cy="0" r="1" gradientUnits="userSpaceOnUse" gradientTransform="translate(39.3512 121.46) rotate(-0.0573) scale(50.2276 51.3091)">
<stop stop-color="#1177CE"/>
<stop offset="1" stop-color="#7EC7FF" stop-opacity="0"/>
</radialGradient>
<radialGradient id="paint3_radial_679_1910" cx="0" cy="0" r="1" gradientUnits="userSpaceOnUse" gradientTransform="translate(20.9548 118.26) scale(1.30929 1.50127)">
<stop stop-color="#88A3D0"/>
<stop offset="1" stop-color="#5D83BF"/>
</radialGradient>
<radialGradient id="paint4_radial_679_1910" cx="0" cy="0" r="1" gradientUnits="userSpaceOnUse" gradientTransform="translate(24.7843 110.221) scale(2.47277 2.56954)">
<stop stop-color="#88A3D0"/>
<stop offset="1" stop-color="#5D83BF"/>
</radialGradient>
</defs>
</svg>
