<svg width="144" height="144" viewBox="0 0 144 144" fill="none" xmlns="http://www.w3.org/2000/svg">
<rect width="144" height="144" rx="24" fill="url(#paint0_linear_681_2825)"/>
<path d="M26.0026 37.8588C26.0026 60.919 26.0026 83.9814 26.0026 107.046C25.973 108.323 26.1996 109.593 26.6692 110.783C27.1387 111.972 27.8418 113.056 28.7374 113.972C30.4539 115.659 32.7 116.709 35.1009 116.948C37.5019 117.187 39.9126 116.6 41.931 115.284C43.282 114.371 44.3881 113.143 45.1527 111.707C45.9174 110.271 46.3175 108.671 46.3181 107.046C46.3181 90.3528 46.2861 73.6597 46.3181 56.9666C61.6168 75.1889 76.9474 93.3856 92.31 111.557C94.4444 113.708 97.0875 115.291 99.997 116.162C102.906 117.032 105.989 117.162 108.962 116.539C111.061 116.128 112.973 115.057 114.415 113.485C115.857 111.913 116.754 109.921 116.974 107.804C117.009 84.2681 117.009 60.7343 116.974 37.2025C116.754 34.6907 115.595 32.3522 113.726 30.6486C111.858 28.945 109.415 28 106.881 28C104.346 28 101.903 28.945 100.035 30.6486C98.1663 32.3522 97.0074 34.6907 96.7869 37.2025C96.7869 54.1632 96.6844 71.1048 96.7869 88.0591C81.7616 70.4358 66.9219 52.6596 51.9543 34.9725C49.981 32.4554 47.3685 30.5073 44.3863 29.3291C41.4041 28.1509 38.1599 27.7852 34.9883 28.2698C32.5857 28.5359 30.3583 29.6493 28.7099 31.4084C27.0615 33.1675 26.101 35.4559 26.0026 37.8588Z" fill="white"/>
<defs>
<linearGradient id="paint0_linear_681_2825" x1="10" y1="15.5" x2="144" y2="131.5" gradientUnits="userSpaceOnUse">
<stop stop-color="#00C54A"/>
<stop offset="1" stop-color="#019639"/>
</linearGradient>
</defs>
</svg>
