<svg width="144" height="144" viewBox="0 0 144 144" fill="none" xmlns="http://www.w3.org/2000/svg">
<path d="M143.992 30.3697C143.992 29.2556 143.992 28.1517 143.992 27.0477C143.945 24.6287 143.717 22.2166 143.309 19.8316C142.912 17.4473 142.157 15.1365 141.072 12.9769C139.97 10.818 138.534 8.84665 136.817 7.13577L130.997 2.89044C128.837 1.80289 126.527 1.04189 124.144 0.632283C121.756 0.234808 119.34 0.0234113 116.919 0C115.815 0 28.1461 0 27.0323 0C24.6047 0.0242211 22.1826 0.235609 19.7876 0.632283C17.4128 1.03851 15.1126 1.79974 12.9643 2.89044C10.813 3.99519 8.84625 5.42736 7.13436 7.13577C5.41768 8.8444 3.9848 10.8163 2.88987 12.9769C1.80086 15.136 1.04313 17.4468 0.642193 19.8316C0.243497 22.2169 0.0287998 24.6294 0 27.0477C0 28.1517 0 115.838 0 116.952C0.0261755 119.384 0.240884 121.81 0.642193 124.209C1.04044 126.594 1.79829 128.905 2.88987 131.063C3.98515 133.218 5.4181 135.183 7.13436 136.884C8.84095 138.599 10.8087 140.032 12.9643 141.13C15.1147 142.209 17.4146 142.96 19.7876 143.358C22.1731 143.751 24.5847 143.966 27.0022 144C28.116 144 115.785 144 116.889 144C119.303 143.967 121.712 143.752 124.094 143.358C126.485 142.946 128.801 142.182 130.967 141.089C133.121 139.994 135.086 138.561 136.787 136.844C138.503 135.14 139.939 133.176 141.042 131.023C142.137 128.879 142.901 126.581 143.309 124.209C143.71 121.823 143.932 119.411 143.972 116.992C143.992 115.838 144.012 31.6744 143.992 30.3697Z" fill="url(#paint0_linear_681_2818)"/>
<path d="M115.955 67.4231C114.941 57.8234 110.701 48.8518 103.928 41.9752C97.1549 35.0986 88.2495 30.7239 78.668 29.5664V46.7786C84.4887 47.9127 89.7338 51.0362 93.5049 55.6137C97.276 60.1912 99.3381 65.9379 99.3381 71.8692C99.3381 77.8004 97.276 83.5471 93.5049 88.1246C89.7338 92.7022 84.4887 95.8256 78.668 96.9598V114.222C89.7801 112.877 99.9178 107.215 106.894 98.4601C113.869 89.7048 117.124 78.5573 115.955 67.4231Z" fill="white"/>
<path d="M28.0155 76.3654C29.0311 85.9644 33.2718 94.9351 40.0447 101.811C46.8175 108.688 55.722 113.063 65.3028 114.222V29.5664C54.1907 30.9119 44.053 36.5731 37.0772 45.3284C30.1013 54.0837 26.8467 65.2312 28.0155 76.3654Z" fill="#5BB193"/>
<defs>
<linearGradient id="paint0_linear_681_2818" x1="132.5" y1="132.5" x2="-24" y2="-19" gradientUnits="userSpaceOnUse">
<stop stop-color="#183729"/>
<stop offset="1" stop-color="#459D75"/>
</linearGradient>
</defs>
</svg>
