<?xml version="1.0" encoding="UTF-8" standalone="no"?>
<!-- Created with Inkscape (http://www.inkscape.org/) -->

<svg
   width="200mm"
   height="195.323mm"
   viewBox="0 0 200 195.323"
   version="1.1"
   id="svg948"
   inkscape:version="1.1.1 (c3084ef, 2021-09-22)"
   sodipodi:docname="ferretdb.svg"
   xmlns:inkscape="http://www.inkscape.org/namespaces/inkscape"
   xmlns:sodipodi="http://sodipodi.sourceforge.net/DTD/sodipodi-0.dtd"
   xmlns="http://www.w3.org/2000/svg"
   xmlns:svg="http://www.w3.org/2000/svg">
  <sodipodi:namedview
     id="namedview950"
     pagecolor="#ffffff"
     bordercolor="#666666"
     borderopacity="1.0"
     inkscape:pageshadow="2"
     inkscape:pageopacity="0.0"
     inkscape:pagecheckerboard="0"
     inkscape:document-units="mm"
     showgrid="false"
     inkscape:zoom="0.64052329"
     inkscape:cx="-69.474445"
     inkscape:cy="579.99452"
     inkscape:window-width="3440"
     inkscape:window-height="1387"
     inkscape:window-x="0"
     inkscape:window-y="25"
     inkscape:window-maximized="1"
     inkscape:current-layer="layer1" />
  <defs
     id="defs945" />
  <g
     inkscape:label="Layer 1"
     inkscape:groupmode="layer"
     id="layer1">
    <path
       d="M 95.871302,0.25836635 C 73.52529,3.312081 51.107429,17.502874 38.138123,36.831094 c -2.083712,3.125567 -5.676318,9.628178 -5.676318,10.274847 0,0.0719 1.724451,-0.970003 3.808162,-2.335187 25.651206,-16.921175 56.260205,-20.046742 81.156963,-8.298921 5.42484,2.550751 8.83781,5.029648 13.68783,9.879665 8.15521,8.191137 14.11894,19.148592 18.25044,33.554942 2.15556,7.400765 3.95187,17.495992 4.4189,24.35786 0.10778,1.86816 0.39518,3.52075 0.57482,3.62853 1.00593,0.61075 5.53261,-5.96372 8.73003,-12.645965 5.06558,-10.634111 7.43669,-21.0886 7.40077,-32.692714 -0.036,-16.418213 -5.71224,-30.213814 -17.13674,-41.710153 C 143.22184,10.640997 130.43216,3.6354156 117.03174,0.90503536 113.90617,0.29429263 111.6069,0.11466224 105.75097,0.00688441 101.69132,-0.02904391 97.272414,0.07873086 95.871302,0.25836635 Z"
       id="path824"
       style="fill:#216778;stroke-width:0.0359261" />
    <path
       d="m 48.377049,48.219658 c -2.335194,1.149625 -6.251134,4.742233 -9.700036,8.873735 -1.54482,1.832222 -3.880014,4.095564 -5.604464,5.388902 -4.02372,3.017795 -10.885597,9.735963 -14.370424,14.083015 -18.1785821,22.525641 -23.2441594,48.21277 -14.585984,74.00768 7.113359,21.12453 23.567499,35.13569 48.859444,41.4946 9.843739,2.51482 24.60935,3.91593 30.788632,2.94593 l 1.580747,-0.25148 -2.442972,-1.43704 C 69.42972,185.49312 60.017093,172.27233 57.39449,157.57857 c -0.790373,-4.45483 -0.826299,-12.35856 -0.03593,-16.70562 1.760377,-9.77189 6.682247,-18.7534 13.364494,-24.35786 3.125567,-2.6226 8.586328,-5.31706 12.933381,-6.35891 6.538543,-1.58075 10.526335,-3.37705 14.657827,-6.64633 2.658538,-2.0837 4.993728,-5.2452 6.933738,-9.340763 1.65259,-3.484834 5.17335,-14.550063 5.17335,-16.310439 0,-1.221482 -1.25742,-2.874082 -3.05372,-3.987789 -0.93408,-0.574812 -2.40705,-0.898147 -6.17927,-1.293338 C 84.949773,70.888992 76.866409,67.943063 67.094521,60.218953 65.693406,59.105246 64.00488,57.847837 63.322285,57.416727 62.639691,57.021536 61.2745,55.512639 60.340423,54.111526 c -2.838159,-4.131492 -6.358912,-6.790025 -9.053367,-6.825953 -0.574817,0 -1.904081,0.431119 -2.910011,0.934085 z m 17.639695,16.633763 c 1.221486,0.610741 2.55075,1.401113 2.981863,1.724447 l 0.790373,0.646669 -1.257411,5.029649 c -1.077783,4.38298 -1.257413,5.496687 -1.149634,8.622257 0.107777,3.089642 0.215555,3.77223 0.934077,4.778161 1.18556,1.616673 3.233345,2.586676 5.532613,2.586676 3.269271,0 5.820021,-1.86815 10.059296,-7.436693 1.221486,-1.580744 2.19149,-2.442973 3.628532,-3.125571 2.227415,-1.113706 3.808162,-1.221481 8.765958,-0.790372 l 3.305202,0.323335 v 1.940007 c 0,3.053724 1.616677,4.814099 4.921857,5.317065 l 1.58075,0.21555 -0.57481,1.329266 c -2.51483,6.071499 -8.981521,12.93338 -15.05302,15.987093 -0.970004,0.46703 -3.161494,1.32926 -4.850018,1.90408 -2.766306,0.89815 -3.520754,1.00593 -8.262994,1.00593 -4.706313,0 -5.496687,-0.10778 -8.083363,-0.97001 -7.795954,-2.58667 -13.58005,-8.334832 -16.202652,-16.058942 -0.934077,-2.73038 -0.970004,-10.670039 -0.03593,-13.975231 1.257413,-4.562611 3.484828,-8.33485 5.820023,-9.80782 1.508893,-0.970003 4.311126,-0.646669 7.149285,0.754454 z"
       id="path826"
       style="fill:#216778;stroke-width:0.0359261" />
    <path
       d="m 181.55494,78.397542 c 0,1.616673 -1.7963,9.089295 -3.30519,13.759681 -5.67632,17.495987 -15.95117,33.195677 -29.35159,44.656087 -9.41263,8.08336 -16.09488,11.64004 -26.69306,14.26265 -6.82596,1.68852 -11.28078,2.22741 -19.93897,2.44297 -10.813737,0.2874 -21.483776,-0.6826 -31.040108,-2.76631 -1.832229,-0.39519 -3.377049,-0.64667 -3.484828,-0.53889 -0.431112,0.39519 1.221487,5.89187 2.658529,8.80189 2.622602,5.38891 5.604466,9.41262 10.921522,14.72968 5.604465,5.60446 9.771888,8.6941 16.238576,12.03522 16.023019,8.263 34.417169,9.37671 53.278339,3.1615 19.90304,-6.50262 34.52495,-18.25043 42.39275,-34.05791 5.24521,-10.4904 7.40077,-21.69934 6.6104,-34.489 -0.97001,-15.77155 -6.79003,-31.219754 -15.23265,-40.344967 -1.32926,-1.437041 -2.55075,-2.586676 -2.73038,-2.586676 -0.17963,0 -0.32334,0.431109 -0.32334,0.934075 z"
       id="path828"
       style="fill:#216778;stroke-width:0.0359261" />
  </g>
</svg>
