<svg width="144" height="144" viewBox="0 0 144 144" fill="none" xmlns="http://www.w3.org/2000/svg">
<rect x="-0.00195312" width="144" height="144" rx="24" fill="url(#paint0_linear_683_2952)"/>
<path d="M69.5923 22.131C58.2662 23.6787 46.9037 30.8714 40.3302 40.6679C39.274 42.2521 37.4531 45.548 37.4531 45.8757C37.4531 45.9122 38.3272 45.3841 39.3833 44.6921C52.3847 36.1156 67.8989 34.5314 80.5178 40.4858C83.2674 41.7787 84.9973 43.0351 87.4555 45.4933C91.589 49.645 94.6117 55.1988 96.7058 62.5007C97.7983 66.2518 98.7088 71.3686 98.9455 74.8465C99.0001 75.7934 99.1458 76.631 99.2369 76.6856C99.7467 76.9952 102.041 73.6629 103.662 70.276C106.229 64.8861 107.431 59.5872 107.413 53.7057C107.395 45.3841 104.518 38.3917 98.727 32.5648C93.592 27.3934 87.1095 23.8426 80.3175 22.4587C78.7333 22.1492 77.5679 22.0581 74.5999 22.0035C72.5422 21.9853 70.3025 22.0399 69.5923 22.131Z" fill="white"/>
<path d="M45.52 46.4402C44.3364 47.0229 42.3516 48.8438 40.6035 50.9379C39.8205 51.8666 38.6369 53.0137 37.7629 53.6693C35.7234 55.1989 32.2455 58.604 30.4792 60.8073C21.2654 72.2244 18.6979 85.244 23.0863 98.3182C26.6917 109.025 35.0315 116.127 47.8508 119.35C52.8401 120.624 60.324 121.335 63.456 120.843L64.2572 120.715L63.019 119.987C56.1906 116.018 51.4198 109.317 50.0905 101.869C49.6899 99.611 49.6717 95.605 50.0723 93.4017C50.9645 88.4488 53.4592 83.8965 56.8461 81.0559C58.4303 79.7266 61.1981 78.3609 63.4014 77.8329C66.7155 77.0317 68.7367 76.1212 70.8307 74.4642C72.1782 73.408 73.3618 71.8056 74.3451 69.7298C75.1827 67.9635 76.9672 62.3551 76.9672 61.4628C76.9672 60.8437 76.3299 60.0061 75.4195 59.4416C74.946 59.1502 74.1994 58.9864 72.2875 58.7861C64.0569 57.9302 59.9599 56.4371 55.007 52.5221C54.2968 51.9576 53.441 51.3203 53.095 51.1018C52.749 50.9015 52.0571 50.1367 51.5836 49.4265C50.1451 47.3325 48.3606 45.985 46.9949 45.9668C46.7036 45.9668 46.0298 46.1853 45.52 46.4402ZM54.4607 54.8711C55.0798 55.1806 55.7535 55.5812 55.972 55.7451L56.3727 56.0729L55.7353 58.6222C55.1891 60.8437 55.098 61.4082 55.1526 62.9924C55.2073 64.5584 55.2619 64.9043 55.6261 65.4142C56.227 66.2336 57.2649 66.7253 58.4303 66.7253C60.0873 66.7253 61.3802 65.7784 63.5289 62.956C64.148 62.1548 64.6396 61.7177 65.368 61.3718C66.497 60.8073 67.2982 60.7527 69.811 60.9712L71.4863 61.135V62.1183C71.4863 63.6661 72.3057 64.5584 73.9809 64.8133L74.7821 64.9226L74.4908 65.5963C73.2161 68.6736 69.9385 72.1516 66.8611 73.6994C66.3695 73.9361 65.2587 74.3731 64.4029 74.6645C63.0008 75.1197 62.6184 75.1743 60.2148 75.1743C57.8294 75.1743 57.4288 75.1197 56.1177 74.6827C52.1663 73.3716 49.2347 70.4581 47.9054 66.5432C47.4319 65.1593 47.4137 61.135 47.8872 59.4598C48.5245 57.1472 49.6535 55.2353 50.8371 54.4887C51.6018 53.997 53.0222 54.1609 54.4607 54.8711Z" fill="white"/>
<path d="M113.022 61.7361C113.022 62.5555 112.111 66.3431 111.347 68.7102C108.47 77.5781 103.262 85.5355 96.4697 91.3443C91.6989 95.4413 88.3119 97.244 82.9402 98.5733C79.4805 99.4291 77.2226 99.7023 72.8341 99.8115C67.3532 99.9572 61.9451 99.4655 57.1014 98.4094C56.1727 98.2091 55.3898 98.0816 55.3351 98.1363C55.1166 98.3366 55.9542 101.123 56.6826 102.598C58.0119 105.329 59.5232 107.368 62.2182 110.063C65.0588 112.904 67.1711 114.47 70.4487 116.163C78.57 120.351 87.8931 120.916 97.453 117.766C107.541 114.47 114.952 108.516 118.94 100.503C121.598 95.1864 122.691 89.5051 122.29 83.0227C121.799 75.0288 118.849 67.1989 114.57 62.5738C113.896 61.8454 113.277 61.2627 113.186 61.2627C113.095 61.2627 113.022 61.4812 113.022 61.7361Z" fill="white"/>
<defs>
<linearGradient id="paint0_linear_683_2952" x1="5.5" y1="11" x2="141" y2="124.5" gradientUnits="userSpaceOnUse">
<stop stop-color="#45ADC6"/>
<stop offset="1" stop-color="#216778"/>
</linearGradient>
</defs>
</svg>
