<svg width="144" height="144" viewBox="0 0 144 144" fill="none" xmlns="http://www.w3.org/2000/svg">
<rect width="144" height="144" rx="24" fill="url(#paint0_linear_979_792)"/>
<path d="M71.5698 76.5336C71.2374 76.5336 70.9036 76.4847 70.5829 76.3892L36.2079 66.0767C34.3885 65.5311 33.3562 63.6144 33.9017 61.7966C34.4489 59.9755 36.3657 58.9483 38.1817 59.4904L71.5698 69.5076L104.958 59.4904C106.776 58.96 108.691 59.9772 109.238 61.7966C109.783 63.6144 108.751 65.5311 106.932 66.0767L72.5567 76.3892C72.236 76.4847 71.9022 76.5336 71.5698 76.5336Z" fill="#231F20"/>
<path d="M74.973 53.0214C74.7668 54.3276 73.8043 55.3933 72.5668 55.7714L38.1918 66.0839C37.848 66.187 37.5387 66.2214 37.1949 66.2214C36.3699 66.2214 35.5793 65.912 34.9262 65.362L21.1762 53.3308C20.248 52.5401 19.8355 51.2683 20.0762 50.0651C20.3168 48.862 21.1762 47.8651 22.3449 47.487L53.2824 37.1745C54.3137 36.8308 55.448 37.0026 56.3418 37.6214L73.5293 49.6526C74.6293 50.4089 75.1793 51.7151 74.973 53.0214Z" fill="#FFDC83"/>
<path d="M121.964 53.3308L108.214 65.362C107.56 65.912 106.77 66.2214 105.945 66.2214C105.601 66.2214 105.292 66.187 104.948 66.0839L70.573 55.7714C69.3355 55.3933 68.373 54.3276 68.1667 53.0214C67.9605 51.7151 68.5105 50.4089 69.6105 49.6526L86.798 37.6214C87.6917 37.0026 88.8261 36.8308 89.8574 37.1745L120.795 47.487C121.964 47.8651 122.823 48.862 123.064 50.0651C123.304 51.2683 122.892 52.5401 121.964 53.3308Z" fill="#FFDC83"/>
<path d="M109.382 63.6426V107.471C109.382 108.88 108.522 110.152 107.216 110.668L72.8412 124.418C72.4287 124.589 72.0162 124.658 71.5693 124.658C71.1225 124.658 70.71 124.589 70.2975 124.418L35.9225 110.668C34.6162 110.152 33.7568 108.88 33.7568 107.471V63.6426C33.7568 61.752 35.3037 60.2051 37.1943 60.2051H105.944C107.835 60.2051 109.382 61.752 109.382 63.6426Z" fill="#EABD4C"/>
<path d="M107.999 61.4958C107.999 62.9812 107.037 64.2979 105.643 64.7368L72.4613 74.865C72.1295 74.9662 71.8308 75 71.499 75C71.1672 75 70.8686 74.9662 70.5368 74.865L37.3549 64.7368C35.9613 64.2979 34.999 62.9812 34.999 61.4958C34.999 60.0103 35.9613 58.6937 37.3549 58.2548L70.5368 48.1266C71.1672 47.9578 71.8308 47.9578 72.4613 48.1266L105.643 58.2548C107.037 58.6937 107.999 60.0103 107.999 61.4958Z" fill="#4C3825"/>
<path d="M74.5118 77C75.35 77 76.1794 76.9628 77 76.9133V21.0867C76.1765 21.0347 75.3471 21 74.5059 21C73.6647 21 72.8294 21.0347 72 21.0867V76.9108C72.8265 76.9628 73.6588 76.9975 74.5 77H74.5118Z" fill="url(#paint1_linear_979_792)"/>
<path d="M44.0282 38.1129L43.2078 37.2959C42.0773 38.9121 41.0746 40.614 40.2088 42.3861C50.1001 52.4354 51.1424 57.2835 51.1289 58.9074C51.0919 63.026 46.0522 69.4845 40.1416 75.4657C40.9996 77.2375 41.9933 78.9405 43.1137 80.5592C43.4499 80.223 43.7693 79.9137 44.0954 79.5842C52.625 70.9975 56.794 64.2498 56.8445 58.9477C56.8949 53.6457 52.7024 46.8879 44.0282 38.1129Z" fill="url(#paint2_linear_979_792)"/>
<path d="M104.695 79.5975L105.676 80.5725C106.795 78.9492 107.787 77.2417 108.642 75.4655C102.735 69.4709 97.6948 62.9955 97.6545 58.8937C97.6175 54.8928 102.627 48.4208 108.568 42.359C107.703 40.5917 106.703 38.8944 105.576 37.2822L104.755 38.0992C96.081 46.8575 91.8885 53.6791 91.9389 58.9442C91.9894 64.2092 96.1583 71.0107 104.695 79.5975Z" fill="url(#paint3_linear_979_792)"/>
<path d="M87.4396 58.9344C87.4396 51.5378 90.7378 39.2393 95.8179 27.6165C94.1979 26.5139 92.495 25.5382 90.7244 24.6982C85.1635 37.2287 81.7207 50.5561 81.7207 58.9478C81.7207 67.0673 85.4493 80.5425 91.111 93.1403C92.8468 92.2859 94.5147 91.3002 96.1004 90.1917C90.8589 78.4009 87.4396 66.0755 87.4396 58.9344Z" fill="url(#paint4_linear_979_792)"/>
<path d="M67.0384 58.9353C67.0384 50.4998 63.4578 37.0985 57.9608 24.7227C56.2158 25.5613 54.5377 26.5325 52.9412 27.6275C58.0314 39.2435 61.3228 51.5454 61.3228 58.9353C61.3228 66.073 57.9036 78.395 52.6621 90.1724C54.2482 91.2802 55.9161 92.2658 57.6514 93.121C63.3199 80.5266 67.0384 67.0614 67.0384 58.9353Z" fill="url(#paint5_linear_979_792)"/>
<path d="M74.4229 74.987L60.6729 95.612C60.0197 96.6089 58.9541 97.1589 57.8197 97.1589C57.4072 97.1589 56.9604 97.0901 56.5479 96.9183L22.1729 83.1683C21.1416 82.7558 20.3854 81.8964 20.1104 80.8651C19.8354 79.7995 20.076 78.6651 20.7635 77.8401L34.5135 60.6526C35.3729 59.5526 32.7391 57.8404 34.0797 58.2185L72.5666 69.7964C73.5979 70.1058 74.4229 70.8964 74.801 71.9276C75.1791 72.9589 75.0416 74.0933 74.4229 74.987Z" fill="#FFDC83"/>
<path d="M123.029 80.6242C122.754 81.6555 121.998 82.5492 121.001 82.9274L86.6261 96.918C86.1792 97.0899 85.7667 97.1586 85.3199 97.1586C84.1855 97.1586 83.1199 96.6086 82.4667 95.6117L68.7167 74.9867C68.098 74.093 67.9605 72.9586 68.3386 71.9274C68.7167 70.8961 69.5417 70.1055 70.573 69.7961L108.469 58.4331C109.81 58.0206 107.732 59.5524 108.626 60.618L122.376 77.5992C123.064 78.4242 123.304 79.5586 123.029 80.6242Z" fill="#FFDC83"/>
<defs>
<linearGradient id="paint0_linear_979_792" x1="24" y1="3.5" x2="181" y2="147" gradientUnits="userSpaceOnUse">
<stop stop-color="#480000"/>
<stop offset="1" stop-color="#AE2300"/>
</linearGradient>
<linearGradient id="paint1_linear_979_792" x1="74.5" y1="17.2369" x2="74.5" y2="79.9133" gradientUnits="userSpaceOnUse">
<stop stop-color="#FFD200"/>
<stop offset="0.06" stop-color="#FFB500"/>
<stop offset="0.14" stop-color="#FF8C00"/>
<stop offset="0.21" stop-color="#FF7300"/>
<stop offset="0.26" stop-color="#FF6A00"/>
<stop offset="0.33" stop-color="#FC4F0E"/>
<stop offset="0.43" stop-color="#F92F1E"/>
<stop offset="0.51" stop-color="#F81B27"/>
<stop offset="0.57" stop-color="#F7142B"/>
<stop offset="0.68" stop-color="#DF162E"/>
<stop offset="0.79" stop-color="#AF1A38"/>
<stop offset="1" stop-color="#4B214C"/>
</linearGradient>
<linearGradient id="paint2_linear_979_792" x1="48.493" y1="15.8928" x2="48.493" y2="100.954" gradientUnits="userSpaceOnUse">
<stop stop-color="#FFD200"/>
<stop offset="0.06" stop-color="#FFB500"/>
<stop offset="0.14" stop-color="#FF8C00"/>
<stop offset="0.21" stop-color="#FF7300"/>
<stop offset="0.26" stop-color="#FF6A00"/>
<stop offset="0.33" stop-color="#FC4F0E"/>
<stop offset="0.43" stop-color="#F92F1E"/>
<stop offset="0.51" stop-color="#F81B27"/>
<stop offset="0.57" stop-color="#F7142B"/>
<stop offset="0.68" stop-color="#DF162E"/>
<stop offset="0.79" stop-color="#AF1A38"/>
<stop offset="1" stop-color="#4B214C"/>
</linearGradient>
<linearGradient id="paint3_linear_979_792" x1="100.29" y1="15.8926" x2="100.29" y2="100.953" gradientUnits="userSpaceOnUse">
<stop stop-color="#FFD200"/>
<stop offset="0.06" stop-color="#FFB500"/>
<stop offset="0.14" stop-color="#FF8C00"/>
<stop offset="0.21" stop-color="#FF7300"/>
<stop offset="0.26" stop-color="#FF6A00"/>
<stop offset="0.33" stop-color="#FC4F0E"/>
<stop offset="0.43" stop-color="#F92F1E"/>
<stop offset="0.51" stop-color="#F81B27"/>
<stop offset="0.57" stop-color="#F7142B"/>
<stop offset="0.68" stop-color="#DF162E"/>
<stop offset="0.79" stop-color="#AF1A38"/>
<stop offset="1" stop-color="#4B214C"/>
</linearGradient>
<linearGradient id="paint4_linear_979_792" x1="88.9122" y1="15.8929" x2="88.9122" y2="100.954" gradientUnits="userSpaceOnUse">
<stop stop-color="#FFD200"/>
<stop offset="0.06" stop-color="#FFB500"/>
<stop offset="0.14" stop-color="#FF8C00"/>
<stop offset="0.21" stop-color="#FF7300"/>
<stop offset="0.26" stop-color="#FF6A00"/>
<stop offset="0.33" stop-color="#FC4F0E"/>
<stop offset="0.43" stop-color="#F92F1E"/>
<stop offset="0.51" stop-color="#F81B27"/>
<stop offset="0.57" stop-color="#F7142B"/>
<stop offset="0.68" stop-color="#DF162E"/>
<stop offset="0.79" stop-color="#AF1A38"/>
<stop offset="1" stop-color="#4B214C"/>
</linearGradient>
<linearGradient id="paint5_linear_979_792" x1="59.857" y1="15.8938" x2="59.857" y2="100.955" gradientUnits="userSpaceOnUse">
<stop stop-color="#FFD200"/>
<stop offset="0.06" stop-color="#FFB500"/>
<stop offset="0.14" stop-color="#FF8C00"/>
<stop offset="0.21" stop-color="#FF7300"/>
<stop offset="0.26" stop-color="#FF6A00"/>
<stop offset="0.33" stop-color="#FC4F0E"/>
<stop offset="0.43" stop-color="#F92F1E"/>
<stop offset="0.51" stop-color="#F81B27"/>
<stop offset="0.57" stop-color="#F7142B"/>
<stop offset="0.68" stop-color="#DF162E"/>
<stop offset="0.79" stop-color="#AF1A38"/>
<stop offset="1" stop-color="#4B214C"/>
</linearGradient>
</defs>
</svg>
