<svg width="144" height="144" viewBox="0 0 144 144" fill="none" xmlns="http://www.w3.org/2000/svg">
<rect width="144" height="144" rx="24" fill="url(#paint0_linear_683_3091)"/>
<path fill-rule="evenodd" clip-rule="evenodd" d="M72 30.1641L117.983 36.7789V40.6739C117.983 46.4653 97.3862 51.1332 71.9827 51.1332C46.5792 51.1332 26 46.4653 26 40.6739V36.4431L72 30.1641ZM72 58.2678C91.2084 58.2678 107.658 55.5986 114.547 51.8048L116.803 48.111L117.723 44.753V48.9171L102.679 111.033C102.679 114.895 88.9533 118 72.0172 118C55.0812 118 41.3743 114.895 41.3743 111.033L26.33 48.9171V44.8369L29.8007 51.9382C36.7065 55.6653 52.9997 58.2678 72 58.2678Z" fill="#8C3123"/>
<path fill-rule="evenodd" clip-rule="evenodd" d="M72.0003 26C97.4038 26 118 30.6839 118 36.442C118 42.2 97.3866 46.8507 72.0003 46.8507C46.6141 46.8507 26.0176 42.2345 26.0176 36.442C26.0176 30.6494 46.5968 26 72.0003 26ZM72.0003 54.1037C95.6857 54.1037 115.172 50.058 117.706 44.8197L102.662 106.937C102.662 110.799 88.9364 113.905 72.0003 113.905C55.0643 113.905 41.339 110.816 41.339 106.954L26.2959 44.837C28.8466 50.058 48.3333 54.1037 72.0003 54.1037Z" fill="#E05243"/>
<path fill-rule="evenodd" clip-rule="evenodd" d="M61.1725 60.0293H81.0928V79.1676H61.1725V60.0293ZM45.3301 95.3688C45.3301 90.142 49.7104 85.9342 55.1511 85.9342C60.5917 85.9342 64.9721 90.142 64.9721 95.3688C64.9721 100.596 60.5917 104.803 55.1511 104.803C49.7104 104.803 45.3301 100.596 45.3301 95.3688ZM96.4487 104.368H76.7722L86.6105 86.7737L96.4487 104.368Z" fill="white"/>
<defs>
<linearGradient id="paint0_linear_683_3091" x1="0" y1="0" x2="151" y2="180" gradientUnits="userSpaceOnUse">
<stop stop-color="#FFF0EE"/>
<stop offset="1" stop-color="#EC887D"/>
</linearGradient>
</defs>
</svg>
