<svg width="144" height="144" viewBox="0 0 144 144" fill="none" xmlns="http://www.w3.org/2000/svg">
<rect width="144" height="144" rx="24" fill="url(#paint0_radial_144_3)"/>
<g clip-path="url(#clip0_144_3)">
<path d="M77.6407 97.0844L82.833 97.3604V104.637H61.1728V97.7197L64.1771 97.4495C65.8101 97.2684 66.8106 96.7193 66.8106 94.5343V69.2314C66.8106 67.2217 66.2701 66.5864 64.5365 66.5864L61.3568 66.4081V58.8584H77.6465L77.6407 97.0844ZM71.2726 39.363C75.2804 39.363 78.187 42.3731 78.187 46.1883C78.187 50.0149 75.2718 52.8381 71.1778 52.8381C66.9975 52.8381 64.2663 50.0149 64.2663 46.1883C64.2663 42.3731 66.9975 39.363 71.2726 39.363ZM72 118C46.6368 118 26 97.3632 26 72C26 46.6368 46.6368 26 72 26C97.3575 26 118 46.6368 118 72C118 97.3632 97.3575 118 72 118ZM72 34.625C51.392 34.625 34.625 51.392 34.625 72C34.625 92.608 51.392 109.375 72 109.375C92.608 109.375 109.375 92.608 109.375 72C109.375 51.392 92.608 34.625 72 34.625Z" fill="white"/>
</g>
<defs>
<radialGradient id="paint0_radial_144_3" cx="0" cy="0" r="1" gradientUnits="userSpaceOnUse" gradientTransform="translate(1.32298e-05 -7.50001) rotate(44.7178) scale(215.317 312.455)">
<stop stop-color="#00B5E7"/>
<stop offset="1" stop-color="#003984"/>
</radialGradient>
<clipPath id="clip0_144_3">
<rect width="92" height="92" fill="white" transform="translate(26 26)"/>
</clipPath>
</defs>
</svg>
