<?xml version="1.0" standalone="no"?>
<!DOCTYPE svg PUBLIC "-//W3C//DTD SVG 20010904//EN"
 "http://www.w3.org/TR/2001/REC-SVG-20010904/DTD/svg10.dtd">
<svg version="1.0" xmlns="http://www.w3.org/2000/svg"
 width="1920.000000pt" height="1080.000000pt" viewBox="0 0 1920.000000 1080.000000"
 preserveAspectRatio="xMidYMid meet">

<g transform="translate(0.000000,1080.000000) scale(0.100000,-0.100000)"
fill="#000000" stroke="none">
<path d="M0 10161 c0 -601 1 -640 18 -644 16 -4 16 -5 0 -6 -17 -1 -18 -45
-18 -767 l0 -766 42 7 c37 7 41 6 30 -8 -7 -8 -27 -18 -45 -21 -23 -5 -28 -9
-18 -15 9 -6 10 -11 2 -15 -6 -4 -11 -12 -11 -17 0 -6 26 12 58 39 50 43 109
74 100 53 -8 -18 -129 -121 -143 -121 -13 0 -15 -205 -15 -1826 0 -1735 1
-1826 17 -1819 29 11 35 11 40 -1 2 -6 -10 -17 -27 -24 l-30 -12 0 -1344 c0
-1068 3 -1344 13 -1344 8 0 7 -4 -3 -10 -11 -7 -3 -8 27 -4 125 19 176 -54 78
-111 -24 -14 -57 -25 -78 -25 l-36 0 -1 -680 0 -680 574 0 c316 0 582 3 591 6
14 6 13 10 -7 33 l-23 26 27 -24 c15 -13 25 -28 22 -32 -3 -5 4023 -9 9005 -9
l9011 0 0 5400 0 5400 -977 0 c-537 0 -974 -2 -972 -4 2 -2 33 -21 67 -41 44
-26 61 -40 54 -47 -8 -8 -39 5 -101 41 l-91 51 -8590 0 -8590 0 0 -639z m3148
442 c-9 -2 -15 -10 -12 -18 3 -8 -3 -16 -16 -20 -16 -5 -18 -10 -10 -20 6 -7
19 -11 29 -8 9 2 24 -3 31 -12 12 -14 12 -18 -1 -26 -31 -20 -133 -40 -116
-22 4 3 -10 17 -30 31 -35 24 -37 24 -50 7 -7 -11 -13 -15 -13 -9 1 31 71 77
143 94 35 9 75 11 45 3z m82 -56 c0 -2 -10 -12 -22 -23 l-23 -19 19 23 c18 21
26 27 26 19z m-1630 -345 c0 -9 -13 -12 -45 -11 -24 2 -48 0 -51 -4 -4 -4 8
-7 27 -7 l34 -1 -25 -14 c-30 -17 -106 -20 -116 -3 -4 6 4 21 20 35 24 20 37
23 92 21 46 -1 64 -6 64 -16z m15947 -268 c-3 -3 -12 -4 -19 -1 -8 3 -5 6 6 6
11 1 17 -2 13 -5z m9 -55 c-9 -19 -15 -29 -16 -22 0 18 20 66 25 61 3 -3 -1
-20 -9 -39z m-12991 -39 c6 -9 -113 -70 -136 -70 -26 0 -2 20 59 47 37 17 68
32 69 32 1 1 5 -4 8 -9z m-15 -47 c0 -8 -77 -43 -93 -43 -20 0 -3 19 31 33 42
17 62 20 62 10z m13254 -1 c3 -5 -1 -9 -9 -9 -8 0 -12 4 -9 9 3 4 7 8 9 8 2 0
6 -4 9 -8z m-13278 -47 c-11 -8 -27 -15 -35 -15 -13 1 -12 4 3 15 11 8 27 15
35 15 13 -1 12 -4 -3 -15z m13329 -13 c-3 -3 -11 0 -18 7 -9 10 -8 11 6 5 10
-3 15 -9 12 -12z m212 -57 c-1 -25 -3 -31 -10 -20 -7 13 -2 55 8 55 2 0 3 -16
2 -35z m190 -11 c-3 -3 -12 -4 -19 -1 -8 3 -5 6 6 6 11 1 17 -2 13 -5z m-170
-40 c-3 -3 -12 -4 -19 -1 -8 3 -5 6 6 6 11 1 17 -2 13 -5z m391 -61 c-10 -2
-28 -2 -40 0 -13 2 -5 4 17 4 22 1 32 -1 23 -4z m69 1 c-3 -3 -12 -4 -19 -1
-8 3 -5 6 6 6 11 1 17 -2 13 -5z m56 -1 c-7 -2 -19 -2 -25 0 -7 3 -2 5 12 5
14 0 19 -2 13 -5z m120 -55 c-6 -37 -23 -62 -23 -36 0 20 17 68 25 68 2 0 2
-15 -2 -32z m-18516 -14 c-3 -3 -12 -4 -19 -1 -8 3 -5 6 6 6 11 1 17 -2 13 -5z
m16473 -128 c0 -2 -9 -6 -20 -9 -11 -3 -18 -1 -14 4 5 9 34 13 34 5z m-15407
-303 c-7 -2 -19 -2 -25 0 -7 3 -2 5 12 5 14 0 19 -2 13 -5z m16247 -197 c0 -2
-7 -7 -16 -10 -8 -3 -12 -2 -9 4 6 10 25 14 25 6z m-15249 -176 c-24 -11 -46
-20 -50 -20 -12 1 64 39 79 39 8 0 -5 -8 -29 -19z m39 -19 c0 -5 -10 -11 -22
-14 -13 -2 -32 -8 -43 -12 -11 -4 -6 2 10 13 32 22 55 27 55 13z m0 -36 c-14
-8 -32 -14 -40 -14 -9 0 -4 6 10 14 14 8 32 14 40 14 9 0 4 -6 -10 -14z
m-2106 -730 c-21 -19 -50 -34 -63 -35 -25 0 -25 0 8 34 29 29 74 49 90 39 2
-2 -13 -19 -35 -38z m7131 13 c20 -17 45 -48 56 -69 13 -26 28 -41 47 -45 15
-3 47 -12 71 -20 36 -11 47 -11 70 0 14 8 44 17 67 20 39 7 42 6 55 -26 7 -18
14 -52 14 -75 0 -28 7 -49 21 -65 70 -75 125 -210 123 -302 0 -45 -2 -48 -11
-26 -44 104 -77 159 -130 215 -101 108 -217 152 -380 143 -193 -11 -331 -131
-374 -325 -34 -155 0 -278 105 -384 84 -83 149 -111 266 -113 65 0 89 4 127
22 179 89 231 323 96 437 -102 86 -248 70 -306 -33 -49 -87 -20 -186 65 -224
39 -17 52 -19 83 -9 45 13 50 14 50 2 0 -18 -61 -33 -114 -29 -104 9 -168 78
-174 188 -6 110 43 196 140 244 67 34 171 36 252 6 121 -46 220 -188 220 -317
0 -35 3 -63 7 -63 10 0 54 -76 63 -107 8 -27 -23 -50 -86 -64 -54 -13 -164
-125 -177 -181 -13 -57 -58 -128 -82 -128 -28 0 -90 33 -118 64 -20 21 -34 26
-71 26 -25 0 -71 7 -102 15 -55 14 -58 14 -101 -11 -59 -32 -166 -52 -178 -33
-15 25 -22 118 -11 159 9 38 8 42 -34 96 -35 45 -55 61 -92 73 -60 21 -130 62
-161 95 -22 23 -23 28 -11 57 21 50 83 122 123 144 23 12 37 27 37 38 0 11 7
45 15 77 14 56 14 60 -6 94 -27 46 -49 129 -49 187 0 45 1 46 39 57 44 14 176
15 206 2 14 -5 32 -1 60 15 22 13 58 28 81 35 33 10 43 19 54 48 14 40 86 122
106 122 7 0 29 -14 49 -32z m-7195 -2 c-8 -7 -28 -16 -45 -20 l-30 -6 24 20
c27 24 75 30 51 6z m-30 -30 c0 -2 -18 -19 -41 -37 -29 -22 -43 -29 -51 -21
-8 8 -6 16 6 27 19 19 86 43 86 31z m34 -37 c-7 -12 -66 -39 -86 -39 -16 0 24
37 48 43 34 8 45 7 38 -4z m8505 -180 c62 -14 141 -53 185 -91 l37 -33 -36
-42 -36 -42 -47 33 c-165 118 -381 70 -477 -105 -24 -45 -30 -69 -33 -141 -4
-77 -2 -92 22 -145 33 -71 84 -126 151 -161 43 -23 62 -27 135 -27 69 0 94 5
133 24 26 13 47 26 47 30 0 3 -36 30 -80 59 -71 47 -100 82 -69 82 12 0 123
-73 155 -102 21 -19 21 -19 54 18 31 35 48 69 64 122 l7 22 -180 0 -181 0 0
55 0 55 239 0 c132 0 242 -3 245 -8 2 -4 0 -43 -5 -87 -31 -278 -298 -457
-560 -376 -182 57 -299 221 -299 421 0 177 91 324 250 406 77 39 193 53 279
33z m1861 -48 c0 -5 -9 -29 -19 -54 l-19 -45 -67 -4 c-61 -4 -71 -7 -96 -36
-18 -20 -29 -43 -29 -62 l0 -30 95 0 95 0 0 -55 0 -55 -95 0 -95 0 0 -240 0
-240 -60 0 -60 0 0 318 c0 368 4 397 70 456 22 19 52 38 67 42 16 3 33 7 38 9
23 8 175 4 175 -4z m-693 -236 c27 -8 66 -26 87 -40 l36 -24 0 34 0 35 50 0
50 0 0 -295 0 -295 -50 0 c-49 0 -50 1 -50 29 l0 30 -66 -35 c-57 -30 -75 -34
-137 -34 -87 0 -155 28 -214 87 -161 161 -97 429 120 504 64 23 108 23 174 4z
m1059 0 c27 -8 65 -26 84 -40 l35 -26 3 35 c3 36 3 36 53 36 l49 0 0 -295 0
-295 -50 0 -50 0 0 36 0 35 -35 -27 c-82 -62 -201 -72 -300 -26 -105 50 -165
140 -173 257 -13 211 183 370 384 310z m680 0 c65 -19 116 -63 148 -127 25
-51 26 -57 26 -255 l0 -203 -60 0 -60 0 0 190 c0 212 -5 235 -63 270 -58 36
-132 20 -176 -36 -20 -25 -21 -39 -21 -225 l0 -199 -60 0 -60 0 0 295 0 295
45 0 c33 0 45 -4 45 -14 0 -21 19 -30 35 -16 18 15 93 38 126 39 14 1 48 -6
75 -14z m650 0 c27 -8 65 -26 84 -40 l35 -26 3 35 c3 36 3 36 53 36 l49 0 0
-295 0 -295 -50 0 -50 0 0 36 0 35 -33 -25 c-83 -63 -203 -74 -302 -28 -105
50 -165 140 -173 257 -13 211 183 370 384 310z m-3026 -15 c0 -24 4 -25 37 -3
19 13 54 19 126 21 l99 4 -7 -23 c-4 -13 -15 -40 -24 -59 -15 -33 -19 -35 -78
-40 -54 -4 -67 -10 -95 -38 l-33 -32 -3 -200 -3 -200 -60 0 -59 0 0 295 0 295
50 0 c43 0 50 -3 50 -20z m-170 -1505 c-7 -9 -15 -13 -17 -11 -7 7 7 26 19 26
6 0 6 -6 -2 -15z m300 6 c0 -5 -7 -12 -16 -15 -14 -5 -15 -4 -4 9 14 17 20 19
20 6z m-438 -33 c-8 -8 -9 -4 -5 13 4 13 8 18 11 10 2 -7 -1 -18 -6 -23z m377
-42 c-18 -20 -36 -36 -40 -36 -5 0 2 11 14 24 12 13 28 32 36 41 7 9 15 14 18
11 3 -2 -10 -21 -28 -40z m494 -163 c3 -5 -23 -7 -56 -5 -104 5 -116 9 -30 11
45 0 84 -2 86 -6z m150 0 c-7 -2 -13 -11 -13 -19 0 -8 -4 -14 -8 -14 -5 0 -15
-11 -22 -25 -7 -14 -17 -25 -21 -25 -5 0 6 20 23 45 18 25 37 45 42 44 6 0 5
-3 -1 -6z m-2083 -385 l0 -352 33 30 c103 97 238 137 382 114 169 -27 294
-133 349 -295 19 -56 20 -90 24 -467 l3 -408 -135 0 -136 0 0 358 c0 411 -2
422 -77 497 -123 124 -339 89 -417 -67 l-26 -52 0 -368 0 -368 -135 0 -135 0
0 865 0 865 135 0 135 0 0 -352z m1250 2 l0 -350 35 31 c139 127 362 152 545
63 156 -77 274 -236 309 -416 54 -285 -69 -562 -302 -676 -87 -43 -153 -55
-273 -50 -92 4 -109 8 -175 41 -41 20 -89 48 -106 63 l-33 27 0 -57 0 -56
-135 0 -135 0 0 865 0 865 135 0 135 0 0 -350z m5620 -515 l0 -865 -130 0
-130 0 0 61 0 61 -35 -30 c-88 -78 -185 -112 -320 -112 -187 0 -337 78 -445
232 -192 274 -122 692 147 871 98 65 177 89 293 90 132 1 234 -35 325 -115
l35 -30 0 351 0 351 130 0 130 0 0 -865z m-4503 829 c-3 -3 -12 -4 -19 -1 -8
3 -5 6 6 6 11 1 17 -2 13 -5z m-32 -14 c3 -5 2 -10 -4 -10 -5 0 -13 5 -16 10
-3 6 -2 10 4 10 5 0 13 -4 16 -10z m-5675 -29 c437 -130 682 -522 605 -966
-56 -319 -283 -566 -605 -657 -70 -20 -103 -22 -477 -26 l-403 -3 0 841 0 841
403 -3 c381 -4 406 -5 477 -27z m5355 9 c-3 -5 -11 -10 -16 -10 -6 0 -7 5 -4
10 3 6 11 10 16 10 6 0 7 -4 4 -10z m-3919 -510 c63 -22 112 -50 161 -93 l33
-29 0 61 0 61 130 0 130 0 0 -575 0 -575 -130 0 -130 0 0 61 0 61 -35 -30
c-89 -78 -186 -112 -319 -112 -150 1 -223 26 -337 114 -168 130 -253 387 -205
616 19 90 80 218 136 282 46 53 153 127 220 152 106 40 241 42 346 6z m1248 0
c91 -28 200 -102 228 -154 9 -16 -2 -31 -71 -100 l-82 -82 -37 34 c-62 59
-130 84 -227 84 -95 1 -143 -19 -159 -65 -25 -71 23 -107 227 -168 205 -62
292 -120 340 -228 28 -63 29 -186 2 -260 -38 -104 -150 -194 -273 -220 -76
-16 -237 -14 -307 4 -91 23 -199 81 -261 138 l-55 52 85 84 85 84 42 -37 c69
-63 139 -89 247 -94 71 -3 103 0 138 13 50 19 64 38 64 90 0 59 -41 88 -179
131 -239 73 -303 106 -361 186 -41 56 -53 108 -48 204 7 141 68 229 199 288
104 48 277 54 403 16z m3659 3 c198 -58 354 -216 413 -418 11 -40 17 -93 17
-160 -2 -219 -107 -404 -295 -518 -90 -54 -146 -69 -279 -74 -199 -8 -319 37
-455 172 -122 122 -174 247 -174 425 0 222 111 410 310 523 129 73 317 93 463
50z m1220 -2 c61 -21 128 -61 170 -99 l27 -26 0 62 0 62 130 0 130 0 0 -575 0
-575 -130 0 -130 0 0 61 0 61 -35 -30 c-88 -78 -185 -112 -320 -112 -187 0
-337 78 -445 232 -94 133 -132 330 -96 498 19 90 80 218 136 282 46 53 153
127 220 152 105 39 241 42 343 7z m1312 18 c74 -14 140 -47 184 -93 l34 -35
-84 -87 -85 -86 -38 25 c-65 45 -166 48 -246 7 -52 -26 -106 -92 -119 -145 -7
-28 -11 -173 -11 -399 l0 -356 -135 0 -135 0 0 575 0 575 135 0 135 0 0 -55 0
-56 31 35 c49 56 153 99 255 105 11 0 47 -4 79 -10z m2118 -16 c29 -8 72 -26
97 -38 52 -26 150 -111 150 -129 0 -6 -36 -47 -79 -90 l-79 -79 -44 36 c-70
57 -128 79 -217 80 -126 1 -191 -46 -165 -120 13 -39 71 -67 227 -114 205 -62
291 -120 341 -228 26 -60 28 -184 2 -258 -34 -101 -135 -185 -261 -218 -76
-20 -243 -20 -320 0 -91 23 -199 81 -261 138 l-55 52 85 84 85 84 42 -37 c69
-63 139 -89 247 -94 71 -3 103 0 138 13 50 19 64 38 64 90 0 59 -41 88 -179
131 -239 73 -303 106 -361 186 -41 56 -53 108 -48 204 7 141 68 229 199 288
100 46 273 54 392 19z m-15313 -793 c0 -15 -100 -62 -118 -55 -13 5 -4 13 33
35 52 29 85 37 85 20z m95 1 c6 -11 -116 -79 -157 -88 -50 -10 -29 12 50 55
80 43 97 48 107 33z m6120 -950 c3 -6 -5 -15 -17 -21 -21 -10 -22 -10 -5 4 18
14 18 14 0 19 -15 4 -16 5 -1 6 9 0 19 -3 23 -8z m-68 -26 c0 -8 -4 -12 -9 -9
-5 3 -6 10 -3 15 9 13 12 11 12 -6z m237 -91 c15 -6 15 -8 -1 -20 -10 -7 -22
-14 -27 -14 -6 0 -1 7 10 15 22 17 12 20 -19 4 -21 -10 -21 -10 -3 5 23 18 20
18 40 10z m-234 -9 c0 -6 -56 -35 -67 -35 -4 1 8 9 27 20 39 22 40 22 40 15z
m30 -3 c0 -8 -53 -42 -66 -42 -4 0 8 11 27 24 40 29 39 28 39 18z m310 -142
c-30 -23 -20 -26 20 -5 17 9 30 13 30 11 0 -10 -61 -37 -70 -31 -16 10 -12 21
13 33 33 16 35 14 7 -8z m-255 -40 c3 -5 -8 -16 -25 -25 -38 -19 -40 -11 -2
10 27 16 13 16 -33 0 -13 -4 -12 -1 5 9 29 18 46 20 55 6z m-2038 -37 c-3 -10
-5 -4 -5 12 0 17 2 24 5 18 2 -7 2 -21 0 -30z m2363 -98 c0 -2 -10 -9 -22 -15
-22 -11 -22 -10 -4 4 21 17 26 19 26 11z m34 -4 c3 -5 -1 -11 -9 -14 -9 -4
-12 -1 -8 9 6 16 10 17 17 5z m-90 -33 c-5 -8 -2 -9 9 -5 40 16 50 17 24 2
-27 -16 -53 -12 -42 6 4 5 8 9 11 9 3 0 2 -5 -2 -12z m-1307 -124 c-3 -3 -12
-4 -19 -1 -8 3 -5 6 6 6 11 1 17 -2 13 -5z m93 -39 c13 -14 21 -25 18 -25 -2
0 -15 11 -28 25 -13 14 -21 25 -18 25 2 0 15 -11 28 -25z m7545 -285 c-3 -5
-12 -10 -18 -10 -7 0 -6 4 3 10 19 12 23 12 15 0z m3189 -35 c21 -16 21 -17
-11 -34 -18 -9 -28 -9 -45 0 l-23 12 23 10 c12 6 22 14 22 19 0 12 12 9 34 -7z
m-3254 0 c0 -2 -10 -9 -22 -15 -22 -11 -22 -10 -4 4 21 17 26 19 26 11z m3444
-34 c3 -4 -17 -18 -44 -31 -28 -13 -50 -27 -50 -32 0 -5 -4 -7 -9 -4 -5 4 -11
1 -13 -5 -3 -8 -10 -8 -26 2 -12 8 -22 16 -22 20 0 3 27 18 60 34 33 16 60 33
60 37 0 10 36 -7 44 -21z m-159 -15 c18 -13 18 -14 -4 -21 -27 -8 -60 13 -39
26 18 12 21 11 43 -5z m-7701 -442 c3 -8 2 -12 -4 -9 -6 3 -10 10 -10 16 0 14
7 11 14 -7z m17 -101 c13 -16 12 -17 -3 -4 -17 13 -22 21 -14 21 2 0 10 -8 17
-17z m-146 -3 c4 -6 -1 -7 -11 -3 -13 5 -15 3 -9 -7 5 -9 4 -11 -4 -6 -6 4 -9
12 -6 17 8 12 22 12 30 -1z m186 -27 c13 -16 12 -17 -3 -4 -10 7 -18 15 -18
17 0 8 8 3 21 -13z m-70 -60 c13 -16 12 -17 -3 -4 -17 13 -22 21 -14 21 2 0
10 -8 17 -17z m150 0 c13 -16 12 -17 -3 -4 -10 7 -18 15 -18 17 0 8 8 3 21
-13z m150 0 c13 -16 12 -17 -3 -4 -10 7 -18 15 -18 17 0 8 8 3 21 -13z m-130
-40 c13 -16 12 -17 -3 -4 -10 7 -18 15 -18 17 0 8 8 3 21 -13z m150 0 c13 -16
12 -17 -3 -4 -10 7 -18 15 -18 17 0 8 8 3 21 -13z m-90 -20 c13 -16 12 -17 -3
-4 -10 7 -18 15 -18 17 0 8 8 3 21 -13z m150 0 c13 -16 12 -17 -3 -4 -10 7
-18 15 -18 17 0 8 8 3 21 -13z m-250 -60 c13 -16 12 -17 -3 -4 -10 7 -18 15
-18 17 0 8 8 3 21 -13z m319 5 c0 -4 -6 -8 -14 -8 -8 0 -17 4 -20 8 -2 4 4 8
15 8 10 0 19 -4 19 -8z m-255 -28 c10 -11 16 -20 13 -20 -3 0 -13 9 -23 20
-10 11 -16 20 -13 20 3 0 13 -9 23 -20z m157 -14 c10 6 11 4 0 -7 -10 -11 -15
-10 -30 6 -15 17 -15 18 0 6 9 -7 23 -9 30 -5z m-8635 -28 c-3 -7 -5 -2 -5 12
0 14 2 19 5 13 2 -7 2 -19 0 -25z m8504 -5 c13 -16 12 -17 -3 -4 -10 7 -18 15
-18 17 0 8 8 3 21 -13z m54 -13 c3 -5 1 -10 -4 -10 -6 0 -11 5 -11 10 0 6 2
10 4 10 3 0 8 -4 11 -10z m3555 5 c0 -3 -25 -19 -55 -36 -66 -37 -71 -45 -13
-19 41 18 69 18 38 0 -46 -26 -47 -37 -2 -15 87 42 79 24 -14 -34 -69 -44 -83
-56 -68 -62 12 -4 4 -7 -23 -7 -24 0 -42 3 -40 8 1 5 -11 20 -28 34 -16 13
-28 26 -25 29 3 3 50 27 105 55 93 47 125 59 125 47z m79 -49 c-1 -20 -2 -20
-6 -1 -3 11 -12 29 -22 40 -16 20 -16 20 7 1 12 -11 21 -29 21 -40z m-12220
18 c-13 -14 -33 -30 -44 -36 -11 -6 -2 6 20 25 47 43 58 48 24 11z m11941 -7
c0 -2 -10 -12 -22 -23 l-23 -19 19 23 c18 21 26 27 26 19z m1720 -37 c-8 -5
-19 -10 -25 -10 -5 0 -3 5 5 10 8 5 20 10 25 10 6 0 3 -5 -5 -10z m-1450 -3
c0 -2 -12 -14 -27 -28 l-28 -24 24 28 c23 25 31 32 31 24z m-313 -39 c-3 -7
-5 -2 -5 12 0 14 2 19 5 13 2 -7 2 -19 0 -25z m239 -23 c-11 -8 -25 -15 -30
-15 -6 1 0 7 14 15 32 19 40 18 16 0z m1284 -10 c0 -2 -10 -9 -22 -15 -22 -11
-22 -10 -4 4 21 17 26 19 26 11z m100 1 c0 -2 -66 -41 -147 -86 -178 -100
-170 -95 -160 -84 7 7 298 174 305 174 1 0 2 -2 2 -4z m351 -39 c-10 -9 -11
-8 -5 6 3 10 9 15 12 12 3 -3 0 -11 -7 -18z m-526 -6 c-15 -13 -151 -86 -142
-76 8 9 138 84 147 85 2 0 0 -4 -5 -9z m430 1 c-16 -14 -145 -83 -145 -78 0 5
140 86 150 86 2 0 0 -4 -5 -8z m75 -7 c0 -2 -10 -9 -22 -15 -22 -11 -22 -10
-4 4 21 17 26 19 26 11z m-75 -44 c-16 -14 -105 -63 -105 -58 0 5 101 66 110
67 2 0 0 -4 -5 -9z m339 -45 c-3 -7 -17 -18 -32 -25 l-27 -11 28 21 c15 11 24
26 21 31 -4 7 -2 8 4 4 6 -4 9 -13 6 -20z m-938 -1 c-11 -8 -23 -15 -27 -15
-4 0 -10 -8 -12 -17 -4 -17 -5 -17 -6 -1 0 10 11 24 27 32 35 19 42 19 18 1z
m848 -4 c-45 -27 -100 -55 -92 -46 12 13 102 64 113 64 6 1 -4 -8 -21 -18z
m-384 -26 c0 -2 -13 -11 -30 -20 -38 -19 -40 -11 -2 9 31 17 32 18 32 11z
m-110 -10 c0 -2 -10 -9 -22 -15 -22 -11 -22 -10 -4 4 21 17 26 19 26 11z m520
0 c0 -2 -13 -11 -30 -20 -38 -19 -40 -11 -2 9 31 17 32 18 32 11z m-130 -20
c0 -2 -13 -11 -30 -20 -38 -19 -40 -11 -2 9 31 17 32 18 32 11z m-350 -10 c0
-2 -13 -11 -30 -20 -38 -19 -40 -11 -2 9 31 17 32 18 32 11z m-110 -10 c0 -2
-10 -9 -22 -15 -22 -11 -22 -10 -4 4 21 17 26 19 26 11z m520 0 c0 -2 -13 -11
-30 -20 -38 -19 -40 -11 -2 9 31 17 32 18 32 11z m-500 -40 c0 -2 -10 -9 -22
-15 -22 -11 -22 -10 -4 4 21 17 26 19 26 11z m-140 -30 c-6 -8 -8 -20 -4 -27
5 -10 4 -10 -6 -1 -11 10 -11 15 0 28 7 8 15 15 17 15 3 0 0 -7 -7 -15z m519
2 c-2 -1 -13 -9 -24 -17 -19 -14 -19 -14 -6 3 7 9 18 17 24 17 6 0 8 -1 6 -3z
m-454 -17 c-3 -5 -12 -10 -18 -10 -7 0 -6 4 3 10 19 12 23 12 15 0z m405 -14
c0 -2 -7 -7 -16 -10 -8 -3 -12 -2 -9 4 6 10 25 14 25 6z m-225 -76 c-3 -5 -12
-10 -18 -10 -7 0 -6 4 3 10 19 12 23 12 15 0z m892 -25 c1 -14 0 -15 -3 -3 -3
9 -15 19 -27 22 -18 4 -18 4 3 3 17 -1 25 -8 27 -22z m3213 -10 c61 -21 87
-40 110 -78 92 -150 -169 -342 -442 -324 -195 13 -289 126 -207 250 90 137
364 214 539 152z m-4162 -5 c-7 -10 -14 -17 -17 -15 -4 4 18 35 25 35 2 0 -1
-9 -8 -20z m847 1 c-13 -11 -312 -179 -385 -216 -83 -41 -47 -14 50 38 47 25
141 77 210 116 124 70 143 79 125 62z m40 -30 c-13 -12 -152 -87 -143 -76 8 8
139 84 148 85 2 0 0 -4 -5 -9z m-155 -85 c0 -6 -235 -136 -246 -136 -7 0 235
139 244 140 1 0 2 -2 2 -4z m-13970 -161 l25 -30 -27 24 c-16 14 -28 29 -28
34 0 6 1 8 3 6 1 -2 13 -17 27 -34z m13618 5 c-7 -10 -14 -17 -17 -15 -4 4 18
35 25 35 2 0 -1 -9 -8 -20z m82 6 c0 -2 -8 -10 -17 -17 -16 -13 -17 -12 -4 4
13 16 21 21 21 13z m-53 -32 c-3 -3 -12 -4 -19 -1 -8 3 -5 6 6 6 11 1 17 -2
13 -5z m-828 -115 l42 -32 -66 -39 c-54 -32 -71 -38 -88 -31 -15 6 -30 5 -46
-3 -30 -16 -57 -8 -40 12 6 8 18 14 27 14 13 0 13 3 -2 19 -17 18 -17 19 2 25
10 4 27 4 36 0 9 -3 28 -3 42 0 21 6 25 11 20 31 -5 21 2 31 25 34 3 1 24 -13
48 -30z m-12598 4 c13 -16 12 -17 -3 -4 -10 7 -18 15 -18 17 0 8 8 3 21 -13z
m44 -33 c10 -11 16 -20 13 -20 -3 0 -13 9 -23 20 -10 11 -16 20 -13 20 3 0 13
-9 23 -20z m70 -60 c10 -11 16 -20 13 -20 -3 0 -13 9 -23 20 -10 11 -16 20
-13 20 3 0 13 -9 23 -20z m-54 -17 c13 -16 12 -17 -3 -4 -10 7 -18 15 -18 17
0 8 8 3 21 -13z m2619 -21 c0 -15 -61 -45 -72 -34 -7 7 -1 15 18 26 32 17 54
20 54 8z m80 -10 c0 -12 -100 -63 -110 -57 -16 10 -3 23 48 49 44 22 62 25 62
8z m95 -2 c-3 -5 -39 -27 -80 -49 -54 -30 -80 -39 -91 -33 -13 7 2 19 67 54
73 40 119 53 104 28z m-2725 -25 c13 -14 21 -25 18 -25 -2 0 -15 11 -28 25
-13 14 -21 25 -18 25 2 0 15 -11 28 -25z m61 8 c13 -16 12 -17 -3 -4 -10 7
-18 15 -18 17 0 8 8 3 21 -13z m70 -60 c13 -16 12 -17 -3 -4 -10 7 -18 15 -18
17 0 8 8 3 21 -13z m-56 -13 c10 -11 16 -20 13 -20 -3 0 -13 9 -23 20 -10 11
-16 20 -13 20 3 0 13 -9 23 -20z m130 -50 c10 -11 16 -20 13 -20 -3 0 -13 9
-23 20 -10 11 -16 20 -13 20 3 0 13 -9 23 -20z m-4 -57 c13 -16 12 -17 -3 -4
-10 7 -18 15 -18 17 0 8 8 3 21 -13z m74 -3 c10 -11 16 -20 13 -20 -3 0 -13 9
-23 20 -10 11 -16 20 -13 20 3 0 13 -9 23 -20z"/>
<path d="M9665 7261 c-136 -62 -151 -243 -26 -322 72 -46 164 -38 224 19 56
53 74 116 52 189 -32 108 -148 161 -250 114z"/>
<path d="M10712 7259 c-133 -68 -134 -262 -1 -329 121 -62 269 26 269 161 0
137 -148 229 -268 168z"/>
<path d="M12042 7259 c-121 -61 -135 -232 -26 -315 33 -26 45 -29 109 -29 63
0 76 3 108 28 138 105 78 317 -94 333 -43 4 -63 1 -97 -17z"/>
<path d="M9225 4761 c-126 -59 -192 -183 -183 -339 8 -144 91 -267 205 -306
59 -20 176 -21 235 0 221 75 281 429 101 595 -67 61 -113 79 -213 79 -73 0
-94 -4 -145 -29z"/>
<path d="M14043 4790 c-136 -28 -227 -125 -253 -270 -31 -169 38 -324 175
-391 61 -30 69 -31 157 -27 135 6 209 50 269 160 33 62 34 65 34 183 0 111 -2
124 -28 177 -15 31 -44 71 -64 89 -76 66 -195 99 -290 79z"/>
<path d="M3870 4710 l0 -592 238 5 c167 3 252 9 287 19 97 29 168 71 241 143
117 115 166 238 167 420 1 118 -13 184 -59 282 -63 132 -184 236 -334 285 -57
19 -95 22 -302 26 l-238 4 0 -592z"/>
<path d="M5724 4790 c-209 -43 -317 -270 -234 -492 28 -76 79 -131 155 -169
61 -30 69 -31 157 -27 108 5 150 23 214 90 76 79 89 116 89 253 0 118 -1 121
-34 183 -19 35 -48 75 -65 89 -72 61 -192 92 -282 73z"/>
<path d="M10519 4767 c-110 -46 -167 -109 -194 -213 -66 -253 101 -472 344
-451 124 11 211 68 263 174 31 64 33 74 33 173 0 124 -18 173 -87 242 -64 65
-126 91 -223 95 -67 3 -89 0 -136 -20z"/>
<path d="M11854 4790 c-62 -13 -137 -54 -172 -95 -122 -139 -119 -379 7 -505
72 -72 108 -85 231 -85 124 0 158 14 231 92 70 74 92 143 87 268 -3 91 -7 106
-38 163 -18 35 -47 75 -64 89 -72 61 -192 92 -282 73z"/>
<path d="M17605 758 c-112 -27 -169 -68 -152 -111 4 -10 41 -39 83 -67 66 -43
84 -50 126 -50 72 0 120 28 157 93 27 47 30 58 20 85 -6 19 -23 36 -44 46 -36
18 -125 19 -190 4z m139 -44 c22 -9 20 -47 -4 -69 -11 -10 -17 -22 -14 -27 10
-15 -17 -38 -45 -38 -15 0 -57 20 -95 46 l-70 47 23 18 c32 26 71 25 78 -2 4
-12 11 -18 20 -15 8 3 23 6 34 6 12 0 19 7 19 20 0 20 22 26 54 14z"/>
<path d="M68 1444 c-38 -20 -36 -28 2 -9 17 9 30 18 30 20 0 7 -1 6 -32 -11z"/>
</g>
</svg>
