<svg width="144" height="144" viewBox="0 0 144 144" fill="none" xmlns="http://www.w3.org/2000/svg">
<rect width="144" height="144" rx="24" fill="url(#paint0_linear_687_3403)"/>
<g clip-path="url(#clip0_687_3403)">
<path d="M72 29C66.3926 29 61.0148 31.2388 57.0497 35.224C53.0847 39.2091 50.8571 44.6141 50.8571 50.25C50.8571 55.8859 53.0847 61.2909 57.0497 65.276C61.0148 69.2612 66.3926 71.5 72 71.5C77.6074 71.5 82.9852 69.2612 86.9503 65.276C90.9153 61.2909 93.1429 55.8859 93.1429 50.25C93.1429 44.6141 90.9153 39.2091 86.9503 35.224C82.9852 31.2388 77.6074 29 72 29ZM60.9826 83.3037C60.454 82.5898 59.5951 82.1914 58.7196 82.2744C45.3897 83.7354 35 95.1074 35 108.903C35 111.726 37.2795 114 40.071 114H103.929C106.737 114 109 111.709 109 108.903C109 95.1074 98.6103 83.752 85.2638 82.291C84.3884 82.1914 83.5295 82.6064 83.0009 83.3203L74.0978 95.2402C73.0406 96.6514 70.9263 96.6514 69.8692 95.2402L60.9661 83.3203L60.9826 83.3037Z" fill="black"/>
</g>
<defs>
<linearGradient id="paint0_linear_687_3403" x1="72" y1="144" x2="-1.2817e-05" y2="4" gradientUnits="userSpaceOnUse">
<stop stop-color="#C0D6FF"/>
<stop offset="0.3" stop-color="#C4DAFF"/>
<stop offset="0.65" stop-color="#D3E9FF"/>
<stop offset="1" stop-color="#E9FFFF"/>
</linearGradient>
<clipPath id="clip0_687_3403">
<rect width="74" height="85" fill="white" transform="translate(35 29)"/>
</clipPath>
</defs>
</svg>
