<svg width="144" height="144" viewBox="0 0 144 144" fill="none" xmlns="http://www.w3.org/2000/svg">
<rect x="-0.00195312" width="144" height="144" rx="24" fill="url(#paint0_linear_683_2963)"/>
<path d="M122.442 73.4729C121.959 73.5134 121.474 73.5322 120.958 73.5322C117.965 73.5322 115.061 72.8304 112.442 71.5451C113.314 66.5421 113.685 61.5019 113.588 56.4802C110.748 52.3723 107.502 48.4965 103.838 44.9257C105.428 41.9454 107.778 39.3811 110.711 37.5628L111.971 36.7842L110.989 35.6774C105.932 29.9832 99.8971 25.5809 93.0547 22.5937L91.6902 22L91.3437 23.4423C90.5277 26.8036 88.8222 29.836 86.4807 32.2695C81.9803 29.8774 77.2788 27.944 72.4305 26.4797C67.5937 27.9408 62.9005 29.8686 58.402 32.2571C56.0701 29.8268 54.3688 26.8018 53.556 23.4501L53.2072 22.0083L51.8477 22.5992C45.0914 25.5431 38.8901 30.0647 33.9162 35.6742L32.9318 36.7833L34.19 37.5619C37.1142 39.3733 39.4576 41.9224 41.0444 44.8866C37.3917 48.4435 34.1495 52.307 31.3119 56.3959C31.2014 61.4154 31.5535 66.4924 32.4297 71.5644C29.8231 72.8378 26.9358 73.5318 23.9628 73.5318C23.4409 73.5318 22.9527 73.5129 22.4782 73.4733L21 73.3606L21.1385 74.8365C21.8629 82.3033 24.1814 89.4053 28.0334 95.9471L28.7853 97.2237L29.9142 96.2656C32.5305 94.0465 35.6917 92.577 39.053 91.9847C41.2689 96.5155 43.8953 100.772 46.8747 104.725C51.6287 106.387 56.5819 107.629 61.6971 108.367C62.1877 111.75 61.797 115.249 60.4624 118.484L59.8995 119.855L61.3469 120.174C65.0529 120.989 68.7917 121.404 72.4526 121.404L83.5551 120.174L85.0039 119.855L84.4397 118.482C83.1087 115.246 82.718 111.743 83.2086 108.36C88.3036 107.621 93.2384 106.382 97.9748 104.725C100.957 100.769 103.586 96.5095 105.805 91.9728C109.177 92.5614 112.356 94.0317 114.989 96.2573L116.118 97.2141L116.866 95.9407C120.725 89.3905 123.043 82.2891 123.756 74.8342L123.895 73.361L122.442 73.4729ZM88.3197 91.5181C83.0673 92.9466 77.733 93.6677 72.4305 93.6677C67.1137 93.6677 61.7859 92.947 56.529 91.5181C53.6448 87.0366 51.3645 82.2357 49.7234 77.1812C48.0892 72.1502 47.1329 66.8795 46.8554 61.4522C50.2504 57.2547 54.111 53.5776 58.3767 50.4823C62.7114 47.3294 67.4271 44.7679 72.4305 42.841C77.4256 44.7683 82.1326 47.3262 86.4572 50.4657C90.7394 53.5776 94.6171 57.2832 98.0287 61.507C97.7378 66.9034 96.77 72.1438 95.133 77.1665C93.4961 82.22 91.2084 87.0361 88.3197 91.5181ZM76.7684 66.1974C76.7684 69.9081 79.7754 72.9096 83.481 72.9096C87.1857 72.9096 90.1895 69.9086 90.1895 66.1974C90.1895 62.501 87.1857 59.4881 83.481 59.4881C79.7754 59.4881 76.7684 62.501 76.7684 66.1974ZM68.0954 66.1974C68.0954 69.9081 65.0888 72.9096 61.3832 72.9096C57.6749 72.9096 54.6766 69.9086 54.6766 66.1974C54.6766 62.5024 57.6753 59.4894 61.3832 59.4894C65.0888 59.4894 68.0954 62.5024 68.0954 66.1974Z" fill="white"/>
<defs>
<linearGradient id="paint0_linear_683_2963" x1="5.5" y1="11" x2="141" y2="124.5" gradientUnits="userSpaceOnUse">
<stop stop-color="#53B2F0"/>
<stop offset="1" stop-color="#419EDA"/>
</linearGradient>
</defs>
</svg>
