<?xml version="1.0" encoding="UTF-8" standalone="no"?>
<svg
   width="933.33301"
   height="933.33301"
   viewBox="0 0 700 700"
   preserveAspectRatio="xMidYMid meet"
   version="1.1"
   id="svg826"
   sodipodi:docname="safari-pinned-tab.svg"
   inkscape:version="1.1.1 (c3084ef, 2021-09-22)"
   xmlns:inkscape="http://www.inkscape.org/namespaces/inkscape"
   xmlns:sodipodi="http://sodipodi.sourceforge.net/DTD/sodipodi-0.dtd"
   xmlns="http://www.w3.org/2000/svg"
   xmlns:svg="http://www.w3.org/2000/svg">
  <defs
     id="defs830" />
  <sodipodi:namedview
     id="namedview828"
     pagecolor="#ffffff"
     bordercolor="#666666"
     borderopacity="1.0"
     inkscape:pageshadow="2"
     inkscape:pageopacity="0.0"
     inkscape:pagecheckerboard="0"
     showgrid="false"
     inkscape:zoom="0.77035741"
     inkscape:cx="436.81023"
     inkscape:cy="541.95623"
     inkscape:window-width="1720"
     inkscape:window-height="1387"
     inkscape:window-x="1720"
     inkscape:window-y="25"
     inkscape:window-maximized="0"
     inkscape:current-layer="svg826" />
  <rect
     style="fill:#000000;stroke-width:6.33749"
     id="rect938"
     width="700"
     height="700"
     x="0"
     y="-1.7763568e-15" />
  <path
     fill-rule="evenodd"
     clip-rule="evenodd"
     d="m 170.27273,142.84005 c 0,-13.12938 10.41078,-23.77292 23.25562,-23.77292 h 325.57872 c 12.8449,0 23.25558,10.64354 23.25558,23.77292 v 0 c 0,13.12957 -10.41068,23.77302 -23.25558,23.77302 H 193.52835 c -12.84484,0 -23.25562,-10.64345 -23.25562,-23.77302 z m 0,427.91341 c 0,-13.12903 10.41078,-23.77297 23.25562,-23.77297 h 325.57872 c 12.8449,0 23.25558,10.64394 23.25558,23.77297 v 0 c 0,13.12982 -10.41068,23.77298 -23.25558,23.77298 H 193.52835 c -12.84484,0 -23.25562,-10.64316 -23.25562,-23.77298 z M 542.36265,356.79661 c 0,-13.12902 -10.41068,-23.77296 -23.25558,-23.77296 H 193.52835 c -12.84484,0 -23.25562,10.64394 -23.25562,23.77296 v 0 c 0,13.12982 10.41078,23.77298 23.25562,23.77298 h 325.57872 c 12.8449,0 23.25558,-10.64316 23.25558,-23.77298 z"
     fill="#ffffff"
     id="path840"
     style="stroke-width:7.83755" />
</svg>
