<svg width="144" height="144" viewBox="0 0 144 144" fill="none" xmlns="http://www.w3.org/2000/svg">
<rect width="144" height="144" rx="24" fill="url(#paint0_linear_681_2820)"/>
<path d="M91.0307 77.8185C86.8577 77.8185 83.1166 79.6818 80.5547 82.6154L73.9901 77.9315C74.6869 75.9978 75.087 73.9215 75.087 71.7482C75.087 69.6126 74.7008 67.5711 74.0269 65.666L80.5769 61.0318C83.1385 63.9505 86.8699 65.8037 91.0307 65.8037C98.7328 65.8037 105 59.4884 105 51.7247C105 43.961 98.7328 37.6457 91.0307 37.6457C83.3285 37.6457 77.0614 43.961 77.0614 51.7247C77.0614 53.1143 77.2697 54.4543 77.6435 55.7233L71.0891 60.3598C68.3512 56.9365 64.409 54.5463 59.9174 53.8166V45.8553C66.2451 44.5158 71.0128 38.8495 71.0128 32.079C71.0128 24.3153 64.7457 18 57.0435 18C49.3414 18 43.0742 24.3153 43.0742 32.079C43.0742 38.7589 47.7184 44.3552 53.9196 45.7903V53.8551C45.4567 55.3523 39 62.7961 39 71.7482C39 80.744 45.5206 88.2151 54.0446 89.6613V98.1772C47.7801 99.565 43.0742 105.196 43.0742 111.921C43.0742 119.685 49.3414 126 57.0435 126C64.7457 126 71.0128 119.685 71.0128 111.921C71.0128 105.196 66.307 99.565 60.0424 98.1772V89.6611C64.3569 88.9286 68.2601 86.6407 71.0252 83.2234L77.6337 87.9376C77.2669 89.1952 77.0614 90.5219 77.0614 91.8975C77.0614 99.6612 83.3285 105.976 91.0307 105.976C98.7328 105.976 105 99.6612 105 91.8975C105 84.1338 98.7328 77.8185 91.0307 77.8185ZM91.0307 44.8985C94.7656 44.8985 97.8034 47.9615 97.8034 51.7247C97.8034 55.4879 94.7656 58.5506 91.0307 58.5506C87.2958 58.5506 84.258 55.4879 84.258 51.7247C84.258 47.9615 87.2958 44.8985 91.0307 44.8985ZM50.2705 32.079C50.2705 28.3158 53.3086 25.2531 57.0435 25.2531C60.7785 25.2531 63.8163 28.3158 63.8163 32.079C63.8163 35.8422 60.7785 38.9049 57.0435 38.9049C53.3086 38.9049 50.2705 35.8422 50.2705 32.079ZM63.8163 111.921C63.8163 115.684 60.7785 118.747 57.0435 118.747C53.3086 118.747 50.2705 115.684 50.2705 111.921C50.2705 108.158 53.3086 105.095 57.0435 105.095C60.7785 105.095 63.8163 108.158 63.8163 111.921ZM57.043 81.2681C51.8339 81.2681 47.5962 76.998 47.5962 71.7482C47.5962 66.4982 51.8339 62.2273 57.043 62.2273C62.2519 62.2273 66.4895 66.4982 66.4895 71.7482C66.4895 76.998 62.2519 81.2681 57.043 81.2681ZM91.0307 98.7237C87.2958 98.7237 84.258 95.6607 84.258 91.8975C84.258 88.1343 87.2958 85.0716 91.0307 85.0716C94.7656 85.0716 97.8034 88.1343 97.8034 91.8975C97.8034 95.6607 94.7656 98.7237 91.0307 98.7237Z" fill="white"/>
<defs>
<linearGradient id="paint0_linear_681_2820" x1="140" y1="130.5" x2="4" y2="9.49999" gradientUnits="userSpaceOnUse">
<stop/>
<stop offset="1" stop-color="#434141"/>
</linearGradient>
</defs>
</svg>
