<svg width="144" height="144" viewBox="0 0 144 144" fill="none" xmlns="http://www.w3.org/2000/svg">
<rect x="-0.00195312" width="144" height="144" rx="24" fill="url(#paint0_linear_683_2930)"/>
<path d="M133.191 29.0022C131.213 29.0654 131.839 29.6354 127.564 30.6873C123.248 31.7496 117.975 31.4239 113.327 33.3733C99.4516 39.1924 96.6676 59.0813 84.0535 66.2059C74.6247 71.5318 65.112 71.9565 56.5594 74.6365C50.9389 76.399 44.7906 80.0135 39.6982 84.4018C35.7455 87.8093 35.6423 90.8054 31.5123 95.0791C27.0947 99.6504 13.9551 95.1564 8 102.153C9.91835 104.093 10.7594 104.636 14.5398 104.133C13.7571 105.616 9.14332 106.866 10.0465 109.049C10.9968 111.345 22.1511 112.901 32.2908 106.78C37.0131 103.929 40.7743 99.8193 48.1288 98.8384C57.6459 97.5699 68.6093 99.652 79.6268 101.241C77.9932 106.112 74.7133 109.351 72.086 113.231C71.2724 114.107 73.7202 114.205 76.5126 113.675C81.5359 112.433 85.1561 111.433 88.9472 109.227C93.6047 106.515 94.3104 99.5639 100.025 98.0599C103.209 102.954 111.869 104.11 117.242 100.195C112.527 98.8607 111.224 88.8244 112.815 84.4018C114.323 80.2156 115.813 73.5192 117.331 67.9855C118.961 62.0425 119.562 54.5519 121.535 51.5247C124.503 46.9701 127.783 45.406 130.63 42.8377C133.477 40.2695 136.083 37.7694 135.998 31.8927C135.97 29.9998 134.992 28.9447 133.191 29.0022Z" fill="#04244E"/>
<path d="M128.953 32.4844C129.427 34.1004 130.168 34.8421 133.375 35.1387C132.906 39.2041 130.195 41.4276 127.154 43.5611C124.479 45.4376 121.547 47.2445 119.664 50.1757C117.734 53.1785 116.509 63.4554 113.517 73.6044C110.931 82.3738 107.025 91.0445 100.204 94.8437C99.4919 93.0502 100.295 89.74 98.878 88.652C97.9611 91.2674 96.9242 93.7627 95.7098 96.0821C91.7077 103.732 85.7822 109.459 75.8801 111.208C80.5785 104.85 85.071 98.2844 85.1683 87.3262C81.8617 88.0417 81.9319 95.8522 78.5345 97.9402C76.3563 98.1772 74.1498 98.1758 71.9291 98.0424C62.8091 97.4959 53.4535 94.7549 44.9219 97.4923C39.1128 99.3568 34.3619 103.755 29.4428 105.888C23.6614 108.396 19.2831 109.427 12.0836 108.396C11.1695 107.164 17.3526 105.575 16.9829 102.902C14.1653 102.59 12.5293 103.273 10.0801 102.16C10.3505 101.662 10.7479 101.247 11.2483 100.901C15.7373 97.794 28.4882 100.167 31.9006 96.8167C34.007 94.75 35.3889 92.5867 36.8197 90.4838C38.2072 88.4434 39.6415 86.4597 41.8268 84.6719C42.6337 84.0118 43.511 83.3596 44.4421 82.723C48.166 80.1743 52.7729 77.8628 57.3066 76.2694C63.4826 74.0984 69.741 73.9195 76.3237 71.4043C80.3904 69.85 84.8127 67.9302 88.4174 65.2439C89.2733 64.6051 90.0831 63.9245 90.8319 63.1949C101.125 53.1608 103.165 35.461 119.224 33.8116C121.166 33.6121 122.756 33.6767 124.203 33.6327C125.871 33.583 127.347 33.3893 128.953 32.4844ZM109.375 89.1339C109.567 92.2013 111.348 98.2872 112.92 99.7663C109.841 100.515 104.537 99.278 103.177 97.1062C103.876 93.9707 107.514 91.1041 109.375 89.1339Z" fill="white"/>
<path d="M130.109 35.9187C129.49 37.2169 128.305 38.8908 128.305 42.1956C128.3 42.763 127.875 43.1517 127.867 42.277C127.899 39.047 128.754 37.6507 129.662 35.8155C130.085 35.0636 130.339 35.3738 130.109 35.9187ZM129.486 35.4297C128.756 36.6684 126.998 38.9278 126.707 42.2203C126.653 42.7848 126.194 43.1343 126.264 42.2618C126.581 39.0477 127.986 37.036 129.052 35.2873C129.536 34.5761 129.763 34.9074 129.486 35.4297ZM128.918 34.7817C128.086 35.9543 125.38 38.6678 124.814 41.9247C124.712 42.4819 124.225 42.7928 124.368 41.929C124.954 38.752 127.287 36.255 128.496 34.6037C129.038 33.9346 129.237 34.284 128.918 34.7817ZM128.411 34.0588L128.137 34.3499C126.927 35.6472 124.116 38.8114 123.179 41.7074C122.999 42.245 122.474 42.4848 122.737 41.6493C123.763 38.5864 126.589 35.2873 128.018 33.8227C128.65 33.2364 128.796 33.6106 128.411 34.0588ZM113.886 40.6162C114.513 37.9231 116.607 36.696 120.223 36.9953C121.096 41.0151 116.213 42.6366 113.886 40.6162Z" fill="#04244E"/>
<defs>
<linearGradient id="paint0_linear_683_2930" x1="140.5" y1="141" x2="5.99999" y2="-5.50228e-06" gradientUnits="userSpaceOnUse">
<stop stop-color="#C49A6C"/>
<stop offset="1" stop-color="#E7BF93"/>
</linearGradient>
</defs>
</svg>
