<svg width="144" height="144" viewBox="0 0 144 144" fill="none" xmlns="http://www.w3.org/2000/svg">
<rect width="144" height="144" rx="24" fill="url(#paint0_linear_683_3213)"/>
<path d="M120.149 95.5491C114.586 98.4485 85.7709 110.296 79.6363 113.495C73.5016 116.693 70.0937 116.662 65.2472 114.346C60.4012 112.029 29.7364 99.6423 24.2125 97.0019C21.4519 95.6827 20 94.5687 20 93.5166V82.9809C20 82.9809 59.922 74.2901 66.3669 71.9778C72.8115 69.6656 75.0476 69.5821 80.532 71.591C86.0173 73.6008 118.812 79.5176 124.233 81.5029L124.23 91.8896C124.231 92.9311 122.98 94.0736 120.149 95.5491Z" fill="#912626"/>
<path d="M120.147 85.0752C114.585 87.9734 85.77 99.8218 79.6354 103.02C73.5011 106.219 70.0932 106.187 65.2472 103.871C60.4007 101.555 29.7371 89.1668 24.2136 86.528C18.6901 83.8876 18.5744 82.0704 24.0003 79.9458C29.4261 77.8205 59.9215 65.8561 66.3672 63.5438C72.8118 61.2324 75.0475 61.1481 80.5319 63.1578C86.0168 65.1668 114.66 76.5676 120.079 78.5525C125.501 80.5399 125.709 82.1763 120.147 85.0752Z" fill="#C6302B"/>
<path d="M120.149 78.502C114.586 81.4018 85.7709 93.2493 79.6363 96.4488C73.5016 99.6462 70.0937 99.6152 65.2472 97.2985C60.4008 94.983 29.7364 82.5952 24.2125 79.9547C21.4519 78.6355 20 77.5232 20 76.4707V65.9338C20 65.9338 59.922 57.2434 66.3669 54.9311C72.8115 52.6189 75.0476 52.535 80.532 54.5443C86.0177 56.5536 118.813 62.4693 124.233 64.455L124.23 74.8428C124.231 75.884 122.98 77.0264 120.149 78.502Z" fill="#912626"/>
<path d="M120.147 68.0282C114.585 70.9271 85.77 82.7747 79.6354 85.9737C73.5011 89.1716 70.0932 89.1402 65.2472 86.8235C60.4007 84.5084 29.7371 72.1201 24.2136 69.4809C18.6901 66.8413 18.5744 65.0237 24.0003 62.8984C29.4261 60.7742 59.9219 48.809 66.3672 46.4972C72.8118 44.1853 75.0475 44.1014 80.5319 46.1108C86.0168 48.1197 114.66 59.5197 120.079 61.5055C125.501 63.4924 125.709 65.1292 120.147 68.0282Z" fill="#C6302B"/>
<path d="M120.149 60.8224C114.586 63.7214 85.7709 75.5698 79.6363 78.7692C73.5016 81.9671 70.0937 81.9357 65.2472 79.619C60.4008 77.3035 29.7364 64.9152 24.2125 62.276C21.4519 60.9556 20 59.8428 20 58.7915V48.2542C20 48.2542 59.922 39.5642 66.3669 37.2524C72.8115 34.9397 75.0476 34.8567 80.532 36.8656C86.0177 38.8749 118.813 44.7905 124.233 46.7763L124.23 57.1637C124.231 58.204 122.98 59.3465 120.149 60.8224Z" fill="#912626"/>
<path d="M120.147 50.349C114.585 53.2479 85.7698 65.0963 79.6352 68.2941C73.5009 71.492 70.093 71.4606 65.2469 69.1451C60.4009 66.8283 29.7369 54.4409 24.2138 51.8013C18.6899 49.1621 18.5746 47.3441 24 45.2192C29.4259 43.0946 59.9217 31.131 66.367 28.8184C72.8116 26.5061 75.0473 26.423 80.5317 28.4324C86.0166 30.4417 114.659 41.8418 120.079 43.8275C125.501 45.8128 125.709 47.45 120.147 50.349Z" fill="#C6302B"/>
<path d="M84.8541 40.0994L75.8926 41.0298L73.8865 45.857L70.6463 40.4703L60.2983 39.5404L68.0197 36.7558L65.703 32.4814L72.9321 35.3088L79.7471 33.0775L77.9052 37.4972L84.8541 40.0994ZM73.3515 63.5184L56.6266 56.5816L80.592 52.9029L73.3515 63.5184ZM50.1637 42.7826C57.2381 42.7826 62.973 45.0057 62.973 47.7475C62.973 50.4901 57.2381 52.7128 50.1637 52.7128C43.0893 52.7128 37.3545 50.4897 37.3545 47.7475C37.3545 45.0057 43.0893 42.7826 50.1637 42.7826Z" fill="white"/>
<path d="M95.4434 41.4174L109.627 47.0224L95.4556 52.622L95.4434 41.4174Z" fill="#621B1C"/>
<path d="M79.7529 47.6261L95.4449 41.4189L95.4571 52.6236L93.9184 53.2254L79.7529 47.6261Z" fill="#9A2928"/>
<defs>
<linearGradient id="paint0_linear_683_3213" x1="189" y1="210.5" x2="0" y2="0" gradientUnits="userSpaceOnUse">
<stop stop-color="#A80000"/>
<stop offset="1" stop-color="#FFCFCF"/>
</linearGradient>
</defs>
</svg>
