<svg width="553" height="185" viewBox="0 0 553 185" fill="none" xmlns="http://www.w3.org/2000/svg">
<rect width="553" height="185" fill="#131111"/>
<path fill-rule="evenodd" clip-rule="evenodd" d="M214.096 90.9081V120.863L221.477 120.862V91.0224L245.778 57.4091H237.408L217.921 84.3639L198.435 57.4091H189.794L214.096 90.9081ZM141.224 115.373V120.863H187.938V114.473H150.132L186.677 62.8991V57.4091H141.224V63.7991H177.71L141.224 115.373ZM91.726 119.423C95.326 120.923 99.317 121.673 103.697 121.673C108.197 121.673 112.218 120.923 115.758 119.423C119.358 117.862 122.418 115.672 124.938 112.852C127.458 110.032 129.408 106.612 130.788 102.592C132.168 98.5721 132.858 94.0411 132.858 89.0001C132.858 84.0201 132.168 79.5501 130.788 75.5901C129.468 71.5691 127.518 68.1491 124.938 65.3291C122.417 62.5091 119.357 60.3491 115.757 58.8491C112.217 57.3491 108.197 56.5991 103.697 56.5991C99.256 56.5991 95.236 57.3791 91.635 58.9391C88.095 60.4391 85.065 62.6001 82.545 65.4201C80.025 68.1801 78.075 71.5701 76.695 75.5901C75.375 79.5511 74.715 84.0511 74.715 89.0911C74.715 94.0721 75.375 98.5721 76.695 102.592C78.075 106.613 80.025 110.033 82.546 112.853C85.066 115.673 88.126 117.863 91.726 119.423ZM115.217 112.043C112.097 114.083 108.257 115.103 103.697 115.103L103.696 115.102C99.256 115.102 95.446 114.082 92.266 112.042C89.146 109.942 86.746 106.972 85.066 103.132C83.386 99.2321 82.546 94.5511 82.546 89.0901C82.546 83.6301 83.386 78.9801 85.066 75.1401C86.746 71.2401 89.146 68.2701 92.266 66.2301C95.446 64.1901 99.257 63.1701 103.697 63.1701C108.257 63.1701 112.098 64.1901 115.218 66.2301C118.398 68.2701 120.828 71.2101 122.508 75.0501C124.188 78.8911 125.028 83.5711 125.028 89.0911C125.028 94.5521 124.188 99.2321 122.507 103.132C120.827 107.033 118.397 110.003 115.217 112.043ZM29.77 117.713C34.211 120.353 39.552 121.673 45.792 121.673C50.172 121.673 54.223 120.983 57.943 119.603C61.663 118.163 64.783 116.152 67.303 113.572L64.422 107.542C61.662 110.122 58.782 112.012 55.782 113.212C52.842 114.352 49.572 114.922 45.972 114.922C38.831 114.922 33.37 112.672 29.59 108.172C25.81 103.611 23.92 97.2511 23.92 89.0911C23.92 80.9301 25.81 74.5991 29.59 70.0991C33.371 65.5991 38.832 63.3491 45.972 63.3491C49.572 63.3491 52.842 63.9491 55.783 65.1491C58.783 66.2891 61.663 68.1491 64.423 70.7291L67.303 64.6991C64.782 62.0591 61.662 60.0491 57.942 58.6691C54.222 57.2891 50.172 56.5991 45.792 56.5991C39.551 56.5991 34.21 57.9191 29.77 60.5591C25.33 63.2001 21.91 66.9501 19.51 71.8101C17.17 76.6111 16 82.3711 16 89.0911C16 95.8111 17.17 101.602 19.51 106.463C21.91 111.323 25.33 115.073 29.77 117.713ZM487.226 120.863V57.4101H494.606V86.2101H494.786L525.568 57.4081H535.019L501.909 88.2368L536.999 120.862H527.279L494.786 90.9801H494.606V120.862L487.226 120.863ZM454.117 121.673C447.877 121.673 442.537 120.353 438.097 117.713C433.655 115.073 430.235 111.323 427.835 106.463C425.495 101.602 424.325 95.8111 424.325 89.0911C424.325 82.3711 425.495 76.6111 427.835 71.8101C430.235 66.9501 433.655 63.2001 438.096 60.5591C442.536 57.9191 447.876 56.5991 454.117 56.5991C458.497 56.5991 462.547 57.2891 466.268 58.6691C469.988 60.0491 473.108 62.0591 475.628 64.6991L472.748 70.7291C469.988 68.1491 467.108 66.2891 464.108 65.1491C461.168 63.9491 457.898 63.3491 454.298 63.3491C447.156 63.3491 441.696 65.5991 437.916 70.0991C434.136 74.5991 432.246 80.9301 432.246 89.0911C432.246 97.2511 434.136 103.611 437.916 108.172C441.696 112.672 447.156 114.922 454.297 114.922C457.897 114.922 461.167 114.352 464.107 113.212C467.108 112.012 469.988 110.122 472.748 107.542L475.628 113.572C473.108 116.152 469.988 118.163 466.268 119.603C462.548 120.983 458.498 121.673 454.118 121.673H454.117ZM356.028 120.863L384.02 57.4091H390.32L418.312 120.863H410.662L403.65 104.662H370.611L363.679 120.863H356.028ZM387.08 66.0491L373.316 98.4521H401.025L387.261 66.0491H387.08ZM330.433 120.863V63.8001H307.39V57.4101H360.944V63.8001H337.903V120.864L330.433 120.863ZM250.878 57.3301H301.705V63.6831H250.878V57.3301ZM250.878 114.51H301.705V120.863H250.878V114.51ZM301.705 85.9201H250.878V92.2731H301.705V85.9201Z" fill="white"/>
</svg>
